<svg id="svg" version="1.1" xmlns="http://www.w3.org/2000/svg" xmlns:xlink="http://www.w3.org/1999/xlink" width="400" height="400" viewBox="0, 0, 400,400"><g id="svgg"><path id="path8" d="M209.500 71.052 C 209.500 71.081,209.744 71.325,210.042 71.594 L 210.583 72.083 210.094 71.542 C 209.638 71.037,209.500 70.923,209.500 71.052 M254.611 99.456 C 254.568 99.526,255.353 100.333,256.355 101.250 C 269.090 112.892,278.232 128.653,282.942 147.083 C 282.988 147.267,282.642 146.779,282.171 146.000 C 281.700 145.221,281.241 144.509,281.151 144.418 C 280.842 144.108,281.457 145.581,282.076 146.635 C 283.359 148.818,283.830 150.489,284.504 155.250 C 284.711 156.706,285.172 158.717,285.275 158.614 C 285.376 158.513,284.695 153.833,284.237 151.472 L 283.827 149.361 285.137 147.358 C 291.352 137.855,294.149 126.550,292.978 115.667 C 292.627 112.408,291.752 108.584,291.265 108.179 C 291.078 108.024,291.093 108.205,291.340 109.032 C 294.320 119.045,292.895 131.756,287.613 142.272 C 286.285 144.915,283.918 148.807,283.745 148.633 C 283.712 148.601,283.349 147.264,282.937 145.662 C 279.450 132.102,273.208 119.807,264.492 109.333 C 260.806 104.904,254.895 98.995,254.611 99.456 M165.539 104.500 C 165.539 104.821,165.573 104.952,165.615 104.792 C 165.657 104.631,165.657 104.369,165.615 104.208 C 165.573 104.048,165.539 104.179,165.539 104.500 M165.539 111.833 C 165.539 112.154,165.573 112.285,165.615 112.125 C 165.657 111.965,165.657 111.702,165.615 111.542 C 165.573 111.381,165.539 111.513,165.539 111.833 M242.718 117.250 C 242.719 117.800,242.750 118.005,242.787 117.705 C 242.825 117.406,242.824 116.956,242.786 116.705 C 242.748 116.455,242.717 116.700,242.718 117.250 M329.096 125.981 C 332.543 138.561,331.695 152.760,326.898 162.761 C 325.701 165.257,320.916 172.667,320.501 172.667 C 320.435 172.667,320.331 172.123,320.269 171.458 C 319.481 162.928,315.987 150.927,312.446 144.583 C 310.885 141.786,307.951 137.787,307.782 138.227 C 307.736 138.347,308.053 138.859,308.485 139.367 C 313.906 145.719,318.237 157.841,319.905 171.333 L 320.142 173.250 318.515 175.750 C 313.762 183.054,310.128 190.753,307.483 199.125 C 307.037 200.536,306.917 200.611,306.773 199.564 C 306.198 195.369,303.632 187.626,300.592 180.917 C 298.976 177.351,295.933 171.528,295.866 171.873 C 295.838 172.016,296.490 173.435,297.315 175.025 C 302.028 184.114,305.295 192.961,306.443 199.744 L 306.739 201.494 306.203 203.705 C 305.424 206.917,305.232 207.915,304.412 213.018 C 304.005 215.549,303.557 218.121,303.415 218.732 C 303.261 219.395,303.214 219.948,303.299 220.099 C 303.484 220.430,303.979 218.063,304.749 213.167 C 305.466 208.599,305.688 207.439,306.437 204.312 L 307.022 201.873 307.636 201.772 C 307.974 201.716,308.684 201.670,309.215 201.669 C 310.774 201.666,313.399 201.328,313.632 201.101 C 313.805 200.932,313.675 200.916,312.965 201.018 C 312.480 201.088,310.978 201.199,309.626 201.265 L 307.169 201.385 307.430 200.506 C 309.979 191.925,313.952 183.392,318.969 175.727 L 320.403 173.537 321.743 172.996 C 333.150 168.392,343.317 159.626,349.845 148.765 C 351.325 146.302,353.000 142.961,352.999 142.475 C 352.998 142.244,352.531 143.008,351.864 144.333 C 345.393 157.186,334.364 167.566,321.871 172.562 L 320.825 172.980 321.682 171.782 C 330.791 159.055,333.466 146.777,330.565 131.000 C 329.963 127.727,329.133 124.500,328.893 124.500 C 328.749 124.500,328.807 124.926,329.096 125.981 M245.601 128.570 C 245.660 128.723,246.396 128.811,248.216 128.886 C 260.135 129.373,270.013 133.157,276.959 139.895 C 278.980 141.855,279.494 141.926,277.574 139.980 C 270.869 133.182,260.328 128.997,248.833 128.570 C 247.596 128.525,246.344 128.458,246.052 128.422 C 245.671 128.376,245.543 128.418,245.601 128.570 M124.542 133.115 C 124.702 133.157,124.965 133.157,125.125 133.115 C 125.285 133.073,125.154 133.039,124.833 133.039 C 124.513 133.039,124.381 133.073,124.542 133.115 M312.073 133.542 L 311.583 134.083 312.125 133.594 C 312.630 133.138,312.743 133.000,312.615 133.000 C 312.586 133.000,312.342 133.244,312.073 133.542 M139.875 133.948 C 140.035 133.990,140.298 133.990,140.458 133.948 C 140.619 133.906,140.487 133.872,140.167 133.872 C 139.846 133.872,139.715 133.906,139.875 133.948 M310.573 135.042 L 310.083 135.583 310.625 135.094 C 311.130 134.638,311.243 134.500,311.115 134.500 C 311.086 134.500,310.842 134.744,310.573 135.042 M179.542 136.115 C 179.702 136.157,179.965 136.157,180.125 136.115 C 180.285 136.073,180.154 136.039,179.833 136.039 C 179.512 136.039,179.381 136.073,179.542 136.115 M222.542 138.448 C 222.702 138.490,222.965 138.490,223.125 138.448 C 223.285 138.406,223.154 138.372,222.833 138.372 C 222.512 138.372,222.381 138.406,222.542 138.448 M80.288 159.375 C 76.239 176.232,78.468 190.003,87.278 202.561 C 89.271 205.402,89.265 205.368,87.640 204.657 C 74.846 199.066,64.942 189.761,58.476 177.257 C 57.655 175.670,57.005 174.583,57.003 174.794 C 56.997 175.559,59.931 180.941,61.978 183.917 C 68.551 193.473,77.827 201.045,88.104 205.242 L 89.625 205.864 90.962 207.890 C 92.728 210.566,93.493 211.830,94.861 214.332 C 95.635 215.747,96.000 216.280,96.000 215.996 C 96.000 215.477,93.485 211.034,91.427 207.917 C 89.674 205.261,89.783 205.873,90.352 201.917 C 92.086 189.855,95.872 179.010,100.442 173.018 C 101.104 172.149,101.219 171.473,100.572 172.250 C 97.487 175.956,94.181 183.353,92.183 191.023 C 91.084 195.238,89.667 202.814,89.667 204.470 C 89.667 204.761,89.610 205.000,89.542 204.999 C 89.390 204.998,86.220 200.470,84.991 198.500 C 78.638 188.313,77.077 173.417,80.820 158.708 C 81.151 157.407,81.236 156.833,81.098 156.833 C 80.978 156.833,80.653 157.852,80.288 159.375 M246.583 180.833 C 247.035 181.292,247.442 181.667,247.487 181.667 C 247.533 181.667,247.201 181.292,246.750 180.833 C 246.299 180.375,245.892 180.000,245.846 180.000 C 245.800 180.000,246.132 180.375,246.583 180.833 M351.500 184.280 C 346.488 188.659,339.037 193.256,333.015 195.685 C 332.032 196.081,331.725 196.267,331.987 196.305 C 333.860 196.581,344.604 190.351,350.523 185.558 C 351.682 184.620,352.676 183.885,352.732 183.926 C 352.788 183.967,352.798 183.953,352.756 183.895 C 352.713 183.837,352.757 183.643,352.853 183.464 C 353.162 182.887,352.944 183.018,351.500 184.280 M229.231 184.317 C 228.558 184.728,228.082 185.409,227.840 186.310 C 227.595 187.220,227.711 187.398,227.975 186.517 C 228.303 185.424,230.041 184.271,230.877 184.591 C 231.033 184.651,231.156 184.560,231.212 184.343 C 231.336 183.871,229.991 183.854,229.231 184.317 M232.110 184.573 C 232.050 184.730,232.265 184.957,232.732 185.230 C 233.927 185.931,234.910 187.145,235.612 188.789 C 235.935 189.544,236.002 189.627,235.926 189.177 C 235.582 187.143,232.535 183.466,232.110 184.573 M253.333 187.417 C 253.831 187.921,254.276 188.333,254.322 188.333 C 254.368 188.333,253.998 187.921,253.500 187.417 C 253.002 186.912,252.557 186.500,252.511 186.500 C 252.466 186.500,252.835 186.912,253.333 187.417 M208.841 192.417 C 208.841 193.132,209.702 194.447,217.190 205.167 C 221.449 211.262,230.513 224.237,237.332 234.000 C 244.152 243.762,250.591 252.987,251.641 254.500 C 254.382 258.449,254.840 258.853,256.595 258.869 C 257.931 258.881,257.538 259.160,275.417 245.528 C 293.406 231.812,293.070 232.080,293.521 231.088 C 293.988 230.059,293.883 229.813,293.371 230.738 C 292.909 231.573,291.798 232.447,274.083 245.907 C 272.708 246.951,270.196 248.863,268.500 250.154 C 254.661 260.690,256.280 260.517,250.407 252.083 C 248.684 249.608,244.601 243.758,241.335 239.083 C 238.068 234.408,233.642 228.071,231.498 225.000 C 229.354 221.929,224.404 214.842,220.497 209.250 C 216.591 203.658,212.509 197.816,211.428 196.266 C 210.346 194.717,209.322 193.142,209.151 192.766 C 208.957 192.340,208.841 192.209,208.841 192.417 M260.167 194.083 C 260.478 194.404,260.770 194.667,260.815 194.667 C 260.861 194.667,260.644 194.404,260.333 194.083 C 260.022 193.762,259.730 193.500,259.685 193.500 C 259.639 193.500,259.856 193.762,260.167 194.083 M249.030 198.443 C 247.986 199.174,247.997 198.709,248.905 203.972 C 249.311 206.325,250.328 212.262,251.164 217.167 C 252.001 222.071,252.761 226.478,252.855 226.960 L 253.024 227.836 253.927 227.210 C 254.423 226.865,254.830 226.515,254.831 226.431 C 254.832 226.347,254.423 223.872,253.923 220.931 C 253.422 217.990,252.482 212.471,251.835 208.667 C 250.542 201.059,249.991 197.937,249.932 197.877 C 249.911 197.856,249.505 198.110,249.030 198.443 M240.333 204.747 C 237.177 205.764,236.431 209.760,238.591 214.083 C 241.146 219.197,245.377 221.024,247.935 218.117 C 251.651 213.896,245.502 203.083,240.333 204.747 M256.668 206.219 C 256.348 206.321,255.699 206.782,255.225 207.244 C 250.809 211.551,257.868 223.167,263.272 220.485 C 268.983 217.650,262.789 204.270,256.668 206.219 M272.833 206.385 C 272.833 206.414,273.077 206.658,273.375 206.927 L 273.917 207.417 273.427 206.875 C 272.971 206.370,272.833 206.257,272.833 206.385 M242.151 208.075 C 245.073 209.586,247.446 216.167,245.069 216.167 C 242.470 216.167,238.883 208.875,241.053 208.001 C 241.558 207.797,241.622 207.802,242.151 208.075 M258.950 209.660 C 260.295 210.480,262.468 214.135,262.623 215.838 C 262.848 218.326,260.799 218.205,258.894 215.618 C 256.198 211.956,256.235 208.004,258.950 209.660 M280.250 213.667 C 280.701 214.125,281.108 214.500,281.154 214.500 C 281.200 214.500,280.868 214.125,280.417 213.667 C 279.965 213.208,279.558 212.833,279.513 212.833 C 279.467 212.833,279.799 213.208,280.250 213.667 M57.129 215.652 C 57.886 217.695,70.136 225.588,76.654 228.232 C 79.064 229.210,78.580 228.658,76.083 227.582 C 69.817 224.881,64.088 221.301,58.546 216.624 C 57.679 215.892,57.061 215.468,57.129 215.652 M286.917 220.167 C 287.368 220.625,287.775 221.000,287.821 221.000 C 287.867 221.000,287.535 220.625,287.083 220.167 C 286.632 219.708,286.225 219.333,286.179 219.333 C 286.133 219.333,286.465 219.708,286.917 220.167 M274.876 225.543 C 261.372 234.344,256.866 237.279,254.969 238.510 C 252.016 240.426,251.429 241.414,252.427 242.779 C 253.549 244.313,253.902 244.216,258.764 241.047 C 260.864 239.678,265.846 236.434,269.833 233.838 C 279.953 227.249,279.915 227.275,280.162 226.677 C 280.758 225.240,279.864 223.665,278.456 223.668 C 277.840 223.670,277.385 223.908,274.876 225.543 M57.550 266.500 C 57.550 267.004,57.581 267.210,57.619 266.958 C 57.658 266.706,57.658 266.294,57.619 266.042 C 57.581 265.790,57.550 265.996,57.550 266.500 M151.250 284.727 C 150.975 285.018,150.423 285.518,150.024 285.837 C 148.895 286.738,148.052 287.566,148.385 287.445 C 148.627 287.358,148.677 287.411,148.635 287.710 C 148.602 287.950,148.662 288.067,148.804 288.038 C 148.925 288.012,148.988 288.051,148.944 288.123 C 148.899 288.195,148.969 288.398,149.098 288.575 C 149.227 288.752,149.333 288.842,149.333 288.775 C 149.333 288.708,149.438 288.750,149.566 288.868 C 149.694 288.987,149.770 289.131,149.734 289.189 C 149.699 289.248,149.876 289.334,150.127 289.382 C 150.645 289.482,151.500 289.054,151.500 288.696 C 151.500 288.445,152.329 287.724,152.538 287.792 C 152.609 287.815,152.667 287.721,152.667 287.583 C 152.667 287.446,152.742 287.333,152.833 287.333 C 152.925 287.333,153.000 287.421,153.000 287.528 C 153.000 287.815,153.184 287.580,153.238 287.224 C 153.271 287.007,153.402 286.931,153.684 286.965 L 154.083 287.014 153.667 286.682 C 153.438 286.500,153.250 286.222,153.249 286.064 C 153.249 285.906,153.136 285.747,152.999 285.709 C 152.779 285.649,152.779 285.663,153.000 285.833 C 153.222 286.004,153.222 286.018,153.000 285.957 C 152.862 285.920,152.750 285.742,152.750 285.563 C 152.750 285.384,152.525 285.003,152.250 284.717 L 151.750 284.196 151.250 284.727 M153.994 289.270 C 153.768 289.575,153.522 289.826,153.446 289.829 C 153.247 289.835,152.833 290.280,152.833 290.488 C 152.833 290.586,152.671 290.667,152.473 290.667 C 151.933 290.667,151.134 291.627,151.346 292.023 C 151.437 292.194,151.640 292.334,151.798 292.336 C 152.008 292.338,152.027 292.374,151.870 292.474 C 151.705 292.579,151.735 292.708,152.003 293.049 C 152.193 293.290,152.326 293.516,152.299 293.549 C 152.272 293.582,152.373 293.866,152.524 294.180 C 152.675 294.493,152.870 294.938,152.958 295.167 C 153.046 295.396,153.293 295.958,153.507 296.417 C 153.721 296.875,153.910 297.306,153.927 297.375 C 153.944 297.444,153.977 297.537,154.000 297.583 C 154.023 297.629,154.057 297.723,154.076 297.792 C 154.096 297.860,154.199 298.128,154.306 298.386 C 154.413 298.644,154.504 298.944,154.509 299.053 C 154.514 299.161,154.726 299.764,154.980 300.392 L 155.443 301.534 155.731 299.892 C 156.031 298.175,156.138 295.231,155.957 293.667 C 155.740 291.800,155.697 291.594,155.517 291.534 C 155.416 291.500,155.334 291.347,155.336 291.194 C 155.338 290.952,155.361 290.949,155.518 291.167 C 155.663 291.368,155.676 291.352,155.583 291.083 C 155.445 290.685,155.363 290.325,155.346 290.042 C 155.339 289.927,155.202 289.827,155.042 289.820 C 154.867 289.812,154.834 289.773,154.958 289.723 C 155.073 289.677,155.167 289.566,155.167 289.476 C 155.167 289.387,155.099 289.356,155.016 289.407 C 154.932 289.458,154.901 289.361,154.946 289.190 C 155.098 288.606,154.446 288.661,153.994 289.270 M150.107 289.615 C 150.048 289.674,150.198 290.066,150.439 290.486 C 151.035 291.524,151.176 291.654,151.132 291.126 C 151.112 290.882,151.062 290.716,151.021 290.756 C 150.895 290.883,150.498 290.471,150.595 290.314 C 150.645 290.233,150.599 290.167,150.492 290.167 C 150.385 290.167,150.340 290.057,150.392 289.922 C 150.492 289.661,150.284 289.438,150.107 289.615 M67.000 290.885 C 67.000 290.914,67.244 291.158,67.542 291.427 L 68.083 291.917 67.594 291.375 C 67.138 290.870,67.000 290.757,67.000 290.885 M108.460 291.285 C 108.668 291.324,108.968 291.323,109.127 291.281 C 109.286 291.239,109.117 291.207,108.750 291.209 C 108.383 291.211,108.253 291.245,108.460 291.285 M231.914 308.833 C 231.914 318.596,231.934 322.590,231.958 317.708 C 231.983 312.827,231.983 304.840,231.958 299.958 C 231.934 295.077,231.914 299.071,231.914 308.833 M231.073 292.042 L 230.583 292.583 231.125 292.094 C 231.630 291.638,231.743 291.500,231.615 291.500 C 231.586 291.500,231.342 291.744,231.073 292.042 M70.902 303.417 C 70.902 305.067,70.927 305.719,70.958 304.867 C 70.988 304.014,70.988 302.664,70.957 301.867 C 70.927 301.069,70.902 301.767,70.902 303.417 M221.250 301.536 C 216.636 301.726,217.083 301.289,217.083 305.603 C 217.083 309.671,217.045 309.586,218.833 309.435 C 219.429 309.385,221.172 309.294,222.707 309.233 C 226.385 309.087,226.072 309.434,226.135 305.433 L 226.186 302.171 225.767 301.752 C 225.537 301.522,225.251 301.345,225.133 301.359 C 225.014 301.373,223.267 301.453,221.250 301.536 M200.833 302.264 C 187.435 302.769,181.061 303.003,180.720 303.002 C 179.889 302.998,179.833 303.253,179.833 307.083 C 179.833 310.706,179.910 311.167,180.516 311.167 C 180.666 311.167,191.902 310.649,204.000 310.085 C 206.979 309.946,209.655 309.832,209.946 309.833 C 210.960 309.834,211.000 309.684,211.000 305.855 C 211.000 303.390,210.943 302.343,210.800 302.200 C 210.555 301.955,208.698 301.967,200.833 302.264 M74.224 309.083 C 74.224 309.817,74.254 310.096,74.289 309.704 C 74.324 309.312,74.324 308.712,74.288 308.371 C 74.252 308.029,74.223 308.350,74.224 309.083 M220.103 317.679 C 216.977 317.840,217.101 317.737,217.028 320.220 C 216.979 321.883,217.010 322.142,217.299 322.499 L 217.625 322.902 221.508 322.691 C 226.477 322.422,226.262 322.569,226.142 319.534 C 226.053 317.270,226.335 317.357,220.103 317.679 M207.000 318.281 C 206.404 318.309,202.504 318.484,198.333 318.670 C 182.503 319.376,180.285 319.499,180.059 319.687 C 179.889 319.828,179.833 320.446,179.833 322.175 C 179.833 325.151,179.770 325.077,182.156 324.933 C 183.125 324.874,187.217 324.641,191.250 324.415 C 206.690 323.548,210.405 323.306,210.698 323.150 C 211.071 322.950,211.161 318.728,210.800 318.367 C 210.607 318.174,209.732 318.154,207.000 318.281 M75.230 322.917 C 75.231 324.017,75.258 324.445,75.290 323.868 C 75.323 323.292,75.323 322.392,75.290 321.868 C 75.257 321.345,75.230 321.817,75.230 322.917 M221.172 324.107 C 218.413 324.283,217.535 324.394,217.338 324.590 C 216.912 325.016,216.873 328.640,217.290 329.155 L 217.606 329.545 221.512 329.322 C 226.476 329.038,226.219 329.205,226.139 326.313 C 226.079 324.160,225.927 323.801,225.093 323.856 C 224.904 323.868,223.140 323.981,221.172 324.107 M203.583 325.086 C 200.008 325.294,193.371 325.668,188.833 325.918 C 178.827 326.468,179.833 326.105,179.833 329.167 C 179.833 332.117,179.736 332.023,182.583 331.823 C 183.683 331.746,187.696 331.488,191.500 331.249 C 206.140 330.332,210.544 330.004,210.771 329.816 C 211.493 329.217,210.942 324.508,210.171 324.687 C 210.123 324.698,207.158 324.878,203.583 325.086 M74.230 333.917 C 74.231 335.017,74.258 335.445,74.290 334.868 C 74.323 334.292,74.323 333.392,74.290 332.868 C 74.257 332.345,74.230 332.817,74.230 333.917 M75.230 348.250 C 75.231 349.350,75.258 349.778,75.290 349.202 C 75.323 348.625,75.323 347.725,75.290 347.202 C 75.257 346.678,75.230 347.150,75.230 348.250 M152.333 347.417 C 152.644 347.738,152.936 348.000,152.982 348.000 C 153.028 348.000,152.811 347.738,152.500 347.417 C 152.189 347.096,151.897 346.833,151.851 346.833 C 151.805 346.833,152.022 347.096,152.333 347.417 M153.167 348.219 C 153.167 348.248,153.410 348.491,153.708 348.760 L 154.250 349.250 153.760 348.708 C 153.304 348.203,153.167 348.090,153.167 348.219 M96.963 353.622 C 97.355 353.657,97.955 353.657,98.296 353.621 C 98.637 353.585,98.317 353.557,97.583 353.557 C 96.850 353.558,96.571 353.587,96.963 353.622 M106.208 353.619 C 106.460 353.658,106.873 353.658,107.125 353.619 C 107.377 353.581,107.171 353.550,106.667 353.550 C 106.162 353.550,105.956 353.581,106.208 353.619 " stroke="none" fill="#ebd3cb" fill-rule="evenodd"></path><path id="path0" d="M111.083 134.295 C 107.783 135.173,105.070 135.898,105.053 135.907 C 105.024 135.921,104.047 144.602,100.579 175.667 C 97.500 203.240,94.335 231.506,93.673 237.333 C 93.304 240.588,93.001 243.444,93.001 243.682 L 93.000 244.114 95.958 244.222 C 100.520 244.389,114.775 244.971,121.083 245.247 C 124.200 245.384,131.400 245.685,137.083 245.915 C 142.767 246.146,150.004 246.447,153.167 246.584 C 156.329 246.721,161.729 246.947,165.167 247.086 C 178.681 247.632,187.838 248.009,193.417 248.247 C 202.746 248.645,206.640 248.805,214.000 249.095 C 222.316 249.423,222.605 249.479,223.623 250.989 C 224.528 252.332,224.500 251.645,224.500 272.717 C 224.500 289.311,224.534 292.179,224.731 292.016 C 224.916 291.862,225.282 292.126,226.560 293.329 C 228.506 295.160,228.077 295.203,230.204 292.965 L 231.991 291.083 231.995 308.794 L 232.000 326.504 232.625 326.419 C 232.969 326.372,235.950 326.106,239.250 325.827 C 242.550 325.548,247.200 325.152,249.583 324.947 L 253.917 324.574 253.959 303.461 L 254.001 282.348 254.542 282.266 C 254.840 282.221,257.521 282.142,260.500 282.090 C 278.774 281.772,278.006 281.816,275.229 281.251 C 269.809 280.150,268.334 278.501,268.541 273.778 C 268.727 269.530,270.117 268.017,274.014 267.821 C 277.828 267.629,279.161 266.709,280.396 263.417 C 280.984 261.848,281.380 261.238,282.034 260.893 C 284.760 259.457,290.284 263.529,293.068 269.028 L 293.879 270.629 294.667 269.682 C 297.959 265.726,301.548 264.643,305.309 266.471 C 307.385 267.480,307.909 268.779,307.246 271.279 C 306.543 273.931,306.904 274.957,309.084 276.500 C 311.343 278.100,311.430 279.937,309.339 281.917 L 308.810 282.417 314.363 282.588 C 320.480 282.777,320.596 282.798,321.362 283.872 L 321.750 284.417 321.794 301.542 C 321.830 315.727,321.876 318.667,322.061 318.667 C 322.383 318.667,331.548 317.839,331.764 317.791 C 331.873 317.766,331.402 315.903,330.572 313.083 C 329.817 310.517,326.897 300.579,324.083 291.000 C 321.270 281.421,318.779 272.946,318.548 272.167 C 318.318 271.387,318.034 270.412,317.917 270.000 C 317.801 269.587,312.518 251.588,306.177 230.000 C 299.837 208.412,291.417 179.725,287.467 166.250 C 283.517 152.775,280.239 141.703,280.184 141.645 C 280.089 141.546,277.796 141.411,259.250 140.414 C 255.125 140.193,251.164 139.978,250.448 139.937 L 249.147 139.863 249.261 140.390 C 249.470 141.349,249.651 141.667,249.990 141.667 C 254.744 141.667,257.010 149.474,253.326 153.158 C 247.513 158.971,239.219 150.141,244.454 143.713 C 245.293 142.683,245.280 142.805,244.745 141.052 C 244.235 139.379,245.221 139.611,236.750 139.172 C 232.992 138.977,228.642 138.747,227.083 138.660 C 225.525 138.573,219.375 138.240,213.417 137.918 C 207.458 137.597,199.808 137.184,196.417 137.001 C 193.025 136.817,187.512 136.520,184.167 136.339 C 180.821 136.158,175.776 135.884,172.956 135.730 C 170.136 135.575,167.788 135.490,167.737 135.541 C 167.489 135.789,168.760 142.500,169.055 142.500 C 169.331 142.500,170.463 143.118,171.167 143.651 C 171.487 143.895,172.050 144.193,172.417 144.314 C 172.783 144.435,174.246 145.160,175.667 145.926 C 180.284 148.416,183.661 149.968,196.472 155.488 C 221.758 166.383,228.668 170.507,231.525 176.408 C 231.878 177.136,232.167 177.838,232.167 177.967 C 232.167 178.097,232.260 178.165,232.375 178.119 C 232.490 178.073,233.981 177.427,235.688 176.684 C 240.619 174.539,239.978 174.281,247.205 181.329 C 250.163 184.214,258.583 192.420,265.917 199.565 C 292.672 225.633,293.156 226.113,293.558 227.000 C 294.068 228.124,294.006 230.060,293.422 231.253 C 293.009 232.099,292.611 232.431,286.034 237.440 C 282.211 240.351,276.758 244.507,273.917 246.676 C 256.062 260.300,257.692 259.202,255.879 258.826 C 254.512 258.542,253.965 257.883,248.070 249.417 C 242.889 241.975,224.682 215.894,214.284 201.017 C 208.853 193.247,208.842 193.228,208.837 191.563 C 208.827 188.416,208.879 188.375,217.620 184.566 C 220.895 183.139,223.697 181.907,223.845 181.827 C 224.671 181.385,220.407 174.457,217.359 171.290 C 210.914 164.592,204.798 162.314,187.500 160.169 C 178.567 159.060,174.021 157.926,170.403 155.903 C 169.377 155.329,169.281 155.307,168.586 155.482 C 164.094 156.613,159.833 151.727,161.249 147.068 C 161.472 146.331,161.470 146.136,161.220 145.101 C 160.745 143.128,161.428 142.019,163.209 141.871 L 164.099 141.798 163.574 138.562 C 163.285 136.783,163.017 135.295,162.978 135.256 C 162.939 135.217,160.734 135.066,158.078 134.922 C 155.423 134.777,149.875 134.472,145.750 134.243 C 141.625 134.015,134.725 133.642,130.417 133.414 C 126.108 133.186,121.383 132.925,119.917 132.834 C 118.450 132.743,117.212 132.675,117.167 132.684 C 117.121 132.692,114.383 133.417,111.083 134.295 M162.472 142.922 C 161.966 143.196,161.767 143.846,161.967 144.573 L 162.102 145.063 162.556 144.467 C 162.806 144.139,163.308 143.665,163.672 143.413 C 164.036 143.161,164.333 142.890,164.333 142.811 C 164.333 142.577,162.955 142.659,162.472 142.922 M172.742 145.596 C 174.126 148.931,173.396 152.588,171.009 154.277 C 170.132 154.898,170.091 154.837,171.958 155.709 C 175.755 157.482,179.395 158.307,188.333 159.423 C 203.173 161.274,208.702 163.023,214.816 167.797 C 218.834 170.934,223.438 177.098,224.568 180.855 L 224.751 181.460 228.084 179.997 C 231.779 178.374,231.584 178.575,230.918 177.071 C 228.519 171.645,221.279 167.148,200.417 158.122 C 197.758 156.972,193.633 155.191,191.250 154.164 C 183.520 150.831,179.885 149.125,174.930 146.504 C 173.211 145.595,172.644 145.359,172.742 145.596 M229.235 184.982 C 225.274 187.397,230.232 195.891,234.438 193.896 C 237.244 192.564,236.069 187.089,232.556 185.126 L 232.036 184.836 231.430 186.111 C 230.285 188.522,228.852 190.257,228.389 189.794 C 228.144 189.549,228.171 189.467,228.708 188.805 C 229.500 187.830,230.446 186.320,230.835 185.413 L 231.155 184.667 230.452 184.667 C 230.059 184.668,229.524 184.806,229.235 184.982 M90.000 296.933 C 80.751 297.437,75.737 298.044,72.766 299.019 C 70.874 299.640,70.957 299.447,70.984 303.182 L 71.006 306.417 71.427 306.789 C 71.658 306.994,72.406 307.325,73.090 307.523 L 74.333 307.885 74.333 309.173 L 74.333 310.462 73.375 310.581 C 71.859 310.769,69.316 311.480,68.542 311.933 L 67.833 312.347 67.833 315.565 C 67.833 319.108,67.797 318.979,68.954 319.566 C 69.557 319.871,72.286 320.541,74.125 320.836 L 75.333 321.030 75.333 323.101 L 75.333 325.172 75.875 325.504 C 76.173 325.687,76.810 325.962,77.292 326.116 L 78.167 326.394 78.167 328.191 L 78.167 329.987 77.458 330.169 C 74.360 330.967,74.290 331.045,74.322 333.680 L 74.347 335.763 73.132 335.970 C 70.113 336.483,68.072 337.232,67.911 337.887 C 67.862 338.087,67.843 339.597,67.869 341.244 L 67.917 344.237 68.484 344.619 C 69.299 345.168,73.861 346.333,75.196 346.333 C 75.271 346.333,75.333 347.266,75.333 348.405 L 75.333 350.477 75.808 350.815 C 81.117 354.595,124.566 354.410,128.385 350.591 C 128.817 350.159,128.808 344.175,128.375 343.796 C 127.641 343.153,125.411 342.484,122.375 341.997 L 121.167 341.803 121.167 340.913 C 121.167 339.932,121.154 339.943,122.500 339.750 C 123.975 339.538,126.428 338.813,127.042 338.408 L 127.667 337.995 127.667 335.671 L 127.667 333.346 128.375 333.166 C 131.556 332.358,131.517 332.417,131.462 328.501 L 131.417 325.286 130.975 324.956 C 130.733 324.775,130.133 324.491,129.642 324.325 L 128.750 324.023 128.710 321.553 C 128.657 318.350,128.694 318.465,127.545 317.955 C 126.630 317.548,123.656 316.821,121.958 316.588 L 121.167 316.480 121.167 315.576 C 121.167 314.773,121.208 314.665,121.542 314.598 C 126.143 313.677,127.300 313.249,127.593 312.360 L 127.769 311.825 128.303 313.038 C 133.644 325.191,155.119 353.036,157.882 351.391 C 159.138 350.644,162.985 347.741,163.051 347.491 C 164.155 343.266,143.598 313.016,134.717 305.797 C 132.462 303.965,132.542 303.964,129.935 305.833 C 127.521 307.564,127.667 307.505,127.667 306.748 C 127.667 306.043,127.189 305.693,125.458 305.132 L 124.333 304.768 124.333 302.396 C 124.333 300.033,124.332 300.023,123.895 299.679 C 122.609 298.668,117.325 297.727,109.750 297.160 C 107.482 296.991,92.175 296.815,90.000 296.933 " stroke="none" fill="#f1a643" fill-rule="evenodd"></path><path id="path2" d="M323.083 195.235 C 318.138 196.361,313.138 200.607,309.494 206.776 C 305.764 213.091,304.917 218.108,306.303 225.667 C 307.023 229.592,307.167 230.654,307.167 232.043 C 307.167 233.068,316.436 265.666,318.130 270.600 L 318.250 270.949 319.833 270.581 C 341.126 265.629,352.781 252.162,352.285 233.085 C 351.752 212.636,336.051 192.284,323.083 195.235 M82.554 243.842 C 81.132 244.120,80.051 245.000,79.393 246.413 L 79.003 247.250 79.002 272.481 L 79.000 297.713 79.958 297.600 C 89.716 296.452,107.468 296.511,116.167 297.720 L 117.583 297.917 119.566 294.334 C 120.656 292.363,125.033 284.450,129.292 276.750 C 133.552 269.050,137.215 262.438,137.434 262.056 C 138.798 259.670,142.417 260.516,142.417 263.221 C 142.417 264.032,142.188 264.504,138.642 271.000 C 136.565 274.804,134.546 278.517,134.155 279.250 C 133.764 279.983,132.623 282.083,131.621 283.917 C 123.227 299.268,123.263 299.198,123.545 299.355 C 124.293 299.774,124.333 299.928,124.333 302.395 L 124.333 304.767 125.550 305.124 C 127.087 305.577,127.631 305.990,127.699 306.756 L 127.750 307.337 129.833 305.840 C 130.979 305.017,132.010 304.341,132.125 304.338 C 132.380 304.332,132.394 304.457,131.988 303.167 C 129.032 293.761,133.796 283.222,141.681 281.726 C 149.095 280.319,154.834 284.838,156.001 293.000 C 156.202 294.407,156.300 295.060,156.320 295.133 C 156.327 295.160,156.607 294.917,156.942 294.591 C 157.277 294.266,157.623 294.000,157.710 294.000 C 157.797 294.000,157.824 293.884,157.770 293.741 C 157.714 293.597,157.741 293.526,157.831 293.582 C 158.112 293.756,159.966 292.281,159.870 291.958 C 159.850 291.890,159.946 291.833,160.083 291.833 C 160.221 291.833,160.333 291.758,160.333 291.667 C 160.333 291.575,160.408 291.500,160.499 291.500 C 160.657 291.500,160.905 291.307,162.045 290.292 C 162.328 290.040,162.630 289.833,162.715 289.833 C 162.799 289.833,162.827 289.725,162.776 289.592 C 162.714 289.430,162.764 289.381,162.925 289.443 C 163.074 289.500,163.167 289.433,163.167 289.268 C 163.167 289.121,163.269 289.000,163.394 289.000 C 163.689 289.000,164.929 288.007,164.875 287.815 C 164.852 287.733,164.890 287.667,164.958 287.666 C 165.166 287.666,166.086 286.808,166.044 286.655 C 166.022 286.576,166.119 286.556,166.260 286.610 C 166.417 286.671,166.690 286.520,166.966 286.221 C 167.480 285.665,168.896 284.500,169.060 284.500 C 169.119 284.500,169.536 284.125,169.984 283.667 C 170.433 283.208,170.848 282.833,170.907 282.833 C 171.034 282.833,171.183 282.715,172.159 281.836 C 172.568 281.468,172.970 281.167,173.052 281.167 C 173.135 281.167,173.158 281.050,173.103 280.908 C 173.048 280.764,173.075 280.693,173.164 280.748 C 173.447 280.923,175.167 279.554,175.167 279.154 C 175.167 279.069,175.279 279.000,175.417 279.000 C 175.554 279.000,175.667 278.925,175.667 278.833 C 175.667 278.742,175.745 278.667,175.840 278.667 C 176.043 278.667,176.280 278.480,177.162 277.625 C 177.517 277.281,177.896 277.000,178.005 277.000 C 178.115 277.000,178.158 276.885,178.103 276.741 C 178.046 276.593,178.074 276.526,178.168 276.584 C 178.357 276.701,180.271 275.191,180.208 274.976 C 180.185 274.897,180.266 274.833,180.387 274.833 C 180.628 274.833,181.434 273.988,181.374 273.798 C 181.354 273.732,181.439 273.718,181.563 273.765 C 181.687 273.813,182.005 273.640,182.270 273.380 C 182.873 272.788,184.253 271.667,184.379 271.667 C 184.430 271.667,184.846 271.292,185.302 270.833 C 185.758 270.375,186.179 270.000,186.239 270.000 C 186.368 270.000,186.515 269.883,187.493 269.002 C 187.901 268.634,188.303 268.333,188.385 268.333 C 188.468 268.333,188.491 268.217,188.436 268.075 C 188.381 267.931,188.408 267.860,188.497 267.915 C 188.713 268.048,189.356 267.609,190.362 266.639 C 190.822 266.196,191.232 265.833,191.273 265.833 C 191.376 265.833,191.740 265.523,192.495 264.792 C 192.850 264.448,193.183 264.167,193.234 264.167 C 193.285 264.167,193.535 263.980,193.789 263.751 C 194.662 262.964,195.250 262.500,195.375 262.500 C 195.444 262.500,195.500 262.405,195.500 262.290 C 195.500 262.174,195.669 262.004,195.875 261.913 C 196.081 261.821,196.241 261.626,196.230 261.478 C 196.216 261.287,196.308 261.235,196.550 261.298 C 196.811 261.366,196.866 261.325,196.787 261.119 C 196.719 260.942,196.757 260.878,196.897 260.932 C 197.015 260.977,197.494 260.655,197.963 260.216 C 198.952 259.288,199.519 258.833,199.687 258.833 C 199.752 258.833,200.179 258.458,200.635 258.000 C 201.091 257.542,201.513 257.167,201.572 257.167 C 201.701 257.167,201.848 257.049,202.826 256.169 C 203.234 255.801,203.636 255.500,203.719 255.500 C 203.801 255.500,203.827 255.391,203.776 255.258 C 203.718 255.107,203.764 255.048,203.898 255.099 C 204.017 255.145,204.209 255.066,204.327 254.924 C 204.445 254.783,204.598 254.667,204.667 254.667 C 204.736 254.667,205.267 254.217,205.847 253.667 C 206.427 253.117,206.958 252.667,207.027 252.667 C 207.097 252.667,207.451 252.367,207.814 252.000 C 208.177 251.633,208.555 251.333,208.654 251.333 C 208.752 251.333,208.833 251.269,208.833 251.191 C 208.833 251.113,209.271 250.705,209.806 250.285 C 211.026 249.327,211.050 249.079,209.931 249.025 C 205.111 248.793,193.444 248.281,186.667 248.005 C 182.037 247.816,176.487 247.587,174.333 247.496 C 169.098 247.274,144.439 246.253,134.250 245.835 C 129.758 245.650,123.458 245.389,120.250 245.254 C 117.042 245.119,110.704 244.858,106.167 244.674 C 101.629 244.491,97.129 244.302,96.167 244.254 C 95.204 244.207,92.392 244.093,89.917 244.002 C 87.442 243.910,84.929 243.806,84.333 243.771 C 83.737 243.735,82.937 243.767,82.554 243.842 M224.414 272.167 C 224.414 282.479,224.434 286.698,224.458 281.542 C 224.483 276.385,224.483 267.948,224.458 262.792 C 224.434 257.635,224.414 261.854,224.414 272.167 M112.504 258.807 C 120.726 261.067,125.039 270.069,122.578 279.833 C 118.986 294.081,100.143 295.449,95.151 281.824 C 91.307 271.329,96.437 260.271,106.000 258.439 C 107.081 258.232,111.275 258.469,112.504 258.807 M107.664 265.422 C 102.586 266.988,102.223 281.422,107.199 283.902 C 110.739 285.665,113.567 282.836,114.183 276.917 C 114.992 269.135,112.109 264.051,107.664 265.422 M277.292 281.954 C 277.590 281.991,278.077 281.991,278.375 281.954 C 278.673 281.917,278.429 281.887,277.833 281.887 C 277.237 281.887,276.994 281.917,277.292 281.954 M259.333 282.162 C 257.076 282.215,255.849 282.297,256.250 282.368 C 257.648 282.614,262.752 282.698,268.390 282.568 L 274.250 282.432 271.167 282.230 C 267.992 282.022,265.806 282.010,259.333 282.162 M308.121 282.802 L 307.667 283.077 307.667 293.007 C 307.667 303.684,307.665 303.667,308.513 303.667 C 308.605 303.667,308.840 303.815,309.035 303.997 C 309.230 304.179,309.715 304.451,310.112 304.603 C 310.509 304.755,310.833 304.943,310.833 305.023 C 310.833 305.102,310.946 305.167,311.083 305.167 C 311.221 305.167,311.333 305.240,311.333 305.330 C 311.333 305.420,311.521 305.541,311.750 305.598 C 311.979 305.656,312.167 305.764,312.167 305.838 C 312.167 305.913,312.429 306.061,312.750 306.167 C 313.071 306.273,313.333 306.428,313.333 306.513 C 313.333 306.597,313.440 306.667,313.569 306.667 C 313.699 306.667,313.831 306.725,313.861 306.797 C 313.892 306.869,314.348 307.143,314.875 307.408 C 315.402 307.672,315.833 307.951,315.833 308.027 C 315.833 308.104,315.946 308.167,316.083 308.167 C 316.221 308.167,316.333 308.231,316.333 308.311 C 316.333 308.390,316.690 308.590,317.125 308.755 C 317.560 308.920,318.039 309.193,318.187 309.362 C 318.336 309.531,318.693 309.751,318.979 309.851 C 319.266 309.951,319.500 310.100,319.500 310.183 C 319.500 310.266,319.612 310.333,319.750 310.333 C 319.887 310.333,320.000 310.407,320.000 310.497 C 320.000 310.587,320.188 310.707,320.417 310.765 C 320.646 310.822,320.833 310.929,320.833 311.002 C 320.833 311.075,321.058 311.212,321.333 311.308 L 321.833 311.483 321.833 298.236 C 321.833 283.747,321.876 284.388,320.842 283.417 L 320.309 282.917 314.835 282.917 C 311.825 282.917,309.306 282.861,309.238 282.793 C 309.170 282.725,308.999 282.763,308.858 282.876 C 308.679 283.021,308.638 283.024,308.721 282.887 C 308.919 282.556,308.600 282.511,308.121 282.802 M296.667 282.833 C 295.791 282.969,295.736 282.961,298.750 283.156 C 300.033 283.239,301.571 283.254,302.167 283.190 L 303.250 283.072 301.952 282.870 C 300.582 282.655,297.927 282.637,296.667 282.833 M276.333 283.147 C 274.324 283.255,281.286 283.675,285.000 283.670 L 286.417 283.668 285.873 283.999 C 284.616 284.766,284.668 284.305,284.667 294.756 L 284.667 304.095 285.167 304.390 C 285.442 304.553,285.667 304.794,285.667 304.926 C 285.667 305.072,285.831 305.167,286.083 305.167 C 286.313 305.167,286.500 305.242,286.500 305.333 C 286.500 305.425,286.689 305.500,286.920 305.500 C 287.210 305.500,287.401 305.633,287.535 305.928 C 287.674 306.232,287.823 306.331,288.050 306.272 C 288.272 306.214,288.397 306.291,288.458 306.524 C 288.519 306.758,288.644 306.835,288.866 306.776 C 289.049 306.729,289.225 306.790,289.274 306.919 C 289.322 307.044,289.467 307.105,289.597 307.055 C 289.755 306.994,289.833 307.081,289.833 307.319 C 289.833 307.613,289.903 307.655,290.250 307.568 C 290.573 307.487,290.667 307.528,290.667 307.750 C 290.667 307.930,290.755 308.002,290.906 307.944 C 291.038 307.893,291.319 307.987,291.531 308.153 C 291.743 308.319,292.085 308.507,292.292 308.572 C 292.498 308.636,292.667 308.824,292.667 308.988 C 292.667 309.217,292.764 309.268,293.083 309.207 C 293.313 309.164,293.500 309.204,293.500 309.298 C 293.500 309.391,293.732 309.548,294.015 309.647 C 294.298 309.745,294.569 309.978,294.617 310.163 C 294.674 310.381,294.844 310.500,295.098 310.500 C 295.399 310.500,295.526 310.627,295.642 311.042 C 295.739 311.392,295.801 309.211,295.817 304.860 L 295.842 298.138 295.379 297.593 C 294.550 296.616,294.419 296.424,294.238 295.917 C 294.140 295.642,293.978 295.433,293.879 295.453 C 293.780 295.473,293.654 295.374,293.600 295.234 C 293.475 294.908,293.966 295.044,294.931 295.605 C 295.306 295.822,295.662 296.000,295.723 296.000 C 295.784 296.000,295.833 293.235,295.833 289.856 L 295.833 283.712 294.125 283.600 C 293.185 283.538,291.292 283.413,289.917 283.323 C 286.748 283.114,278.845 283.011,276.333 283.147 M142.910 288.146 C 138.670 290.072,138.223 303.070,142.324 305.162 C 145.274 306.667,147.748 304.134,148.343 299.000 C 149.210 291.511,146.671 286.438,142.910 288.146 M155.175 302.364 C 153.573 308.616,145.931 313.571,140.731 311.729 C 140.522 311.655,140.617 311.835,141.017 312.267 C 141.347 312.624,142.429 313.919,143.420 315.145 L 145.223 317.373 147.570 317.260 C 148.861 317.198,153.359 316.964,157.567 316.740 C 161.774 316.516,165.543 316.333,165.942 316.333 C 166.952 316.333,166.983 315.739,166.000 315.187 C 161.766 312.807,158.217 308.442,155.922 302.790 L 155.397 301.497 155.175 302.364 M127.672 312.266 C 127.658 313.125,125.570 313.969,121.958 314.577 L 121.333 314.682 121.334 315.549 L 121.334 316.417 123.959 316.936 C 125.402 317.222,126.958 317.624,127.417 317.830 C 128.162 318.164,130.546 318.343,130.805 318.084 C 130.837 318.052,130.600 317.551,130.277 316.971 C 129.955 316.391,129.238 315.017,128.684 313.917 C 128.131 312.817,127.675 312.074,127.672 312.266 M165.917 333.251 C 165.825 333.282,163.912 333.392,161.667 333.494 C 159.421 333.596,157.384 333.719,157.141 333.767 L 156.699 333.853 158.109 336.218 C 158.884 337.519,160.084 339.698,160.775 341.061 L 162.030 343.538 162.723 343.430 C 165.840 342.948,166.667 341.499,166.667 336.522 C 166.667 332.969,166.671 332.990,165.917 333.251 M138.167 334.847 C 137.021 334.920,134.621 335.061,132.833 335.160 C 131.046 335.260,129.152 335.384,128.625 335.437 L 127.667 335.533 127.667 336.741 C 127.667 338.534,126.591 339.131,121.958 339.910 L 121.333 340.015 121.333 340.914 L 121.333 341.813 122.125 341.921 C 126.587 342.533,128.667 343.423,128.667 344.720 L 128.667 345.417 132.042 345.223 C 133.898 345.116,138.342 344.867,141.917 344.668 C 145.492 344.469,148.630 344.256,148.891 344.195 L 149.365 344.083 147.972 342.417 C 146.436 340.579,143.142 336.405,142.394 335.348 C 141.849 334.578,142.041 334.601,138.167 334.847 M169.958 342.951 C 170.165 342.991,170.502 342.991,170.708 342.951 C 170.915 342.911,170.746 342.879,170.333 342.879 C 169.921 342.879,169.752 342.911,169.958 342.951 " stroke="none" fill="#a075ed" fill-rule="evenodd"></path><path id="path3" d="M80.627 244.252 C 79.743 244.577,78.634 245.376,78.106 246.069 C 77.111 247.372,77.167 245.786,77.167 273.042 L 77.167 298.042 77.688 297.938 C 77.974 297.880,78.386 297.833,78.604 297.833 L 79.000 297.833 79.002 272.542 L 79.003 247.250 79.407 246.417 C 79.911 245.378,80.243 244.980,81.065 244.432 C 81.771 243.962,81.605 243.893,80.627 244.252 M210.667 249.251 C 210.805 249.417,210.612 249.651,209.840 250.258 C 209.286 250.693,208.833 251.113,208.833 251.191 C 208.833 251.269,208.752 251.333,208.654 251.333 C 208.555 251.333,208.177 251.633,207.814 252.000 C 207.451 252.367,207.097 252.667,207.027 252.667 C 206.958 252.667,206.427 253.117,205.847 253.667 C 205.267 254.217,204.736 254.667,204.667 254.667 C 204.598 254.667,204.445 254.783,204.327 254.924 C 204.209 255.066,204.017 255.145,203.898 255.099 C 203.764 255.048,203.718 255.107,203.776 255.258 C 203.827 255.391,203.801 255.500,203.719 255.500 C 203.636 255.500,203.234 255.801,202.826 256.169 C 201.848 257.049,201.701 257.167,201.572 257.167 C 201.513 257.167,201.091 257.542,200.635 258.000 C 200.179 258.458,199.752 258.833,199.687 258.833 C 199.519 258.833,198.952 259.288,197.963 260.216 C 197.494 260.655,197.015 260.977,196.897 260.932 C 196.757 260.878,196.719 260.942,196.787 261.119 C 196.866 261.325,196.811 261.366,196.550 261.298 C 196.308 261.235,196.216 261.287,196.230 261.478 C 196.241 261.626,196.081 261.821,195.875 261.913 C 195.669 262.004,195.500 262.174,195.500 262.290 C 195.500 262.405,195.444 262.500,195.375 262.500 C 195.250 262.500,194.662 262.964,193.789 263.751 C 193.535 263.980,193.285 264.167,193.234 264.167 C 193.183 264.167,192.850 264.448,192.495 264.792 C 191.740 265.523,191.376 265.833,191.273 265.833 C 191.232 265.833,190.822 266.196,190.362 266.639 C 189.356 267.609,188.713 268.048,188.497 267.915 C 188.408 267.860,188.381 267.931,188.436 268.075 C 188.491 268.217,188.468 268.333,188.385 268.333 C 188.303 268.333,187.901 268.634,187.493 269.002 C 186.515 269.883,186.368 270.000,186.239 270.000 C 186.179 270.000,185.758 270.375,185.302 270.833 C 184.846 271.292,184.430 271.667,184.379 271.667 C 184.253 271.667,182.873 272.788,182.270 273.380 C 182.005 273.640,181.687 273.813,181.563 273.765 C 181.439 273.718,181.354 273.732,181.374 273.798 C 181.434 273.988,180.628 274.833,180.387 274.833 C 180.266 274.833,180.185 274.897,180.208 274.976 C 180.271 275.191,178.357 276.701,178.168 276.584 C 178.074 276.526,178.046 276.593,178.103 276.741 C 178.158 276.885,178.115 277.000,178.005 277.000 C 177.896 277.000,177.517 277.281,177.162 277.625 C 176.280 278.480,176.043 278.667,175.840 278.667 C 175.745 278.667,175.667 278.742,175.667 278.833 C 175.667 278.925,175.554 279.000,175.417 279.000 C 175.279 279.000,175.167 279.069,175.167 279.154 C 175.167 279.554,173.447 280.923,173.164 280.748 C 173.075 280.693,173.048 280.764,173.103 280.908 C 173.158 281.050,173.135 281.167,173.052 281.167 C 172.970 281.167,172.568 281.468,172.159 281.836 C 171.183 282.715,171.034 282.833,170.907 282.833 C 170.848 282.833,170.433 283.208,169.984 283.667 C 169.536 284.125,169.119 284.500,169.060 284.500 C 168.896 284.500,167.480 285.665,166.966 286.221 C 166.690 286.520,166.417 286.671,166.260 286.610 C 166.119 286.556,166.022 286.576,166.044 286.655 C 166.086 286.808,165.166 287.666,164.958 287.666 C 164.890 287.667,164.852 287.733,164.875 287.815 C 164.929 288.007,163.689 289.000,163.394 289.000 C 163.269 289.000,163.167 289.121,163.167 289.268 C 163.167 289.433,163.074 289.500,162.925 289.443 C 162.764 289.381,162.714 289.430,162.776 289.592 C 162.827 289.725,162.799 289.833,162.715 289.833 C 162.630 289.833,162.328 290.040,162.045 290.292 C 160.905 291.307,160.657 291.500,160.499 291.500 C 160.408 291.500,160.333 291.575,160.333 291.667 C 160.333 291.758,160.221 291.833,160.083 291.833 C 159.946 291.833,159.850 291.890,159.870 291.958 C 159.966 292.281,158.112 293.756,157.831 293.582 C 157.741 293.526,157.714 293.597,157.770 293.741 C 157.824 293.884,157.797 294.000,157.710 294.000 C 157.623 294.000,157.285 294.258,156.960 294.574 C 156.635 294.889,156.334 295.112,156.291 295.069 C 156.248 295.026,156.172 295.874,156.123 296.954 C 156.074 298.033,155.905 299.535,155.747 300.292 C 155.415 301.891,155.452 302.028,157.132 305.417 C 159.210 309.605,162.481 313.209,166.000 315.187 C 166.487 315.461,166.667 315.669,166.667 315.960 L 166.667 316.358 168.208 316.258 C 169.056 316.203,170.294 316.116,170.958 316.065 L 172.167 315.972 172.167 304.152 C 172.167 292.931,172.207 291.899,172.617 292.542 C 172.690 292.657,173.597 293.533,174.633 294.489 L 176.516 296.227 178.148 294.602 L 179.779 292.977 181.415 294.536 L 183.052 296.095 184.630 294.469 L 186.208 292.842 187.875 294.379 L 189.541 295.917 191.115 294.265 L 192.688 292.613 193.880 293.765 C 195.322 295.158,195.167 295.013,195.643 295.417 L 196.037 295.750 197.584 294.086 L 199.132 292.422 200.701 293.961 C 202.595 295.818,202.219 295.823,204.056 293.911 L 205.583 292.321 207.232 293.863 L 208.880 295.405 210.456 293.766 L 212.032 292.127 212.969 293.022 C 213.485 293.514,213.948 293.954,213.998 294.000 C 214.049 294.046,214.377 294.346,214.728 294.667 L 215.365 295.250 216.922 293.584 L 218.479 291.918 220.051 293.459 C 221.941 295.313,221.659 295.298,223.173 293.625 L 224.417 292.250 224.333 272.250 C 224.240 249.947,224.340 251.711,223.107 250.482 C 222.236 249.614,221.796 249.516,217.967 249.335 C 211.352 249.021,210.468 249.011,210.667 249.251 M254.000 306.806 L 254.000 331.327 254.375 331.408 C 254.581 331.453,256.438 331.755,258.500 332.080 C 260.563 332.404,262.419 332.708,262.625 332.754 L 263.000 332.840 263.000 307.778 L 263.000 282.717 260.375 282.606 C 258.931 282.546,256.906 282.448,255.875 282.390 L 254.000 282.284 254.000 306.806 M268.621 282.620 C 268.917 282.657,269.442 282.658,269.788 282.622 C 270.134 282.586,269.892 282.555,269.250 282.555 C 268.608 282.554,268.325 282.583,268.621 282.620 M282.208 282.948 C 282.369 282.990,282.631 282.990,282.792 282.948 C 282.952 282.906,282.821 282.872,282.500 282.872 C 282.179 282.872,282.048 282.906,282.208 282.948 M273.874 308.886 L 273.917 334.580 277.750 335.208 C 285.052 336.405,284.755 336.396,294.213 335.737 L 295.843 335.623 295.828 323.026 C 295.819 315.241,295.754 310.522,295.659 310.673 C 295.554 310.839,295.504 310.850,295.503 310.708 C 295.501 310.594,295.321 310.500,295.103 310.500 C 294.844 310.500,294.675 310.382,294.617 310.163 C 294.569 309.978,294.298 309.745,294.015 309.647 C 293.732 309.548,293.500 309.391,293.500 309.298 C 293.500 309.204,293.313 309.164,293.083 309.207 C 292.764 309.268,292.667 309.217,292.667 308.988 C 292.667 308.824,292.498 308.636,292.292 308.572 C 292.085 308.507,291.743 308.319,291.531 308.153 C 291.319 307.987,291.038 307.893,290.906 307.944 C 290.755 308.002,290.667 307.930,290.667 307.750 C 290.667 307.528,290.573 307.487,290.250 307.568 C 289.903 307.655,289.833 307.613,289.833 307.319 C 289.833 307.081,289.755 306.994,289.597 307.055 C 289.467 307.105,289.322 307.044,289.274 306.919 C 289.225 306.790,289.049 306.729,288.866 306.776 C 288.644 306.835,288.519 306.758,288.458 306.524 C 288.397 306.291,288.272 306.214,288.050 306.272 C 287.823 306.331,287.674 306.232,287.535 305.928 C 287.401 305.633,287.210 305.500,286.920 305.500 C 286.689 305.500,286.500 305.425,286.500 305.333 C 286.500 305.242,286.313 305.167,286.083 305.167 C 285.831 305.167,285.667 305.072,285.667 304.926 C 285.667 304.794,285.442 304.553,285.167 304.390 L 284.667 304.095 284.667 294.756 C 284.668 284.305,284.616 284.766,285.873 283.999 L 286.417 283.668 284.611 283.667 C 283.020 283.667,278.625 283.482,275.041 283.265 L 273.832 283.192 273.874 308.886 M293.604 295.245 C 293.656 295.379,293.780 295.473,293.879 295.453 C 293.978 295.433,294.140 295.642,294.238 295.917 C 294.423 296.436,294.603 296.696,295.374 297.567 L 295.832 298.083 295.808 297.063 L 295.785 296.043 294.767 295.522 C 293.619 294.933,293.471 294.898,293.604 295.245 M307.667 318.964 L 307.667 334.992 308.125 334.918 C 308.377 334.877,310.908 334.722,313.750 334.574 C 319.626 334.268,320.003 334.203,320.851 333.355 C 321.831 332.375,321.831 332.371,321.832 321.450 L 321.833 311.483 321.333 311.308 C 321.058 311.212,320.833 311.075,320.833 311.002 C 320.833 310.929,320.646 310.822,320.417 310.765 C 320.188 310.707,320.000 310.587,320.000 310.497 C 320.000 310.407,319.887 310.333,319.750 310.333 C 319.612 310.333,319.500 310.266,319.500 310.183 C 319.500 310.100,319.266 309.951,318.979 309.851 C 318.693 309.751,318.336 309.531,318.187 309.362 C 318.039 309.193,317.560 308.920,317.125 308.755 C 316.690 308.590,316.333 308.390,316.333 308.311 C 316.333 308.231,316.221 308.167,316.083 308.167 C 315.946 308.167,315.833 308.104,315.833 308.027 C 315.833 307.951,315.402 307.672,314.875 307.408 C 314.348 307.143,313.892 306.869,313.861 306.797 C 313.831 306.725,313.699 306.667,313.569 306.667 C 313.440 306.667,313.333 306.597,313.333 306.513 C 313.333 306.428,313.071 306.273,312.750 306.167 C 312.429 306.061,312.167 305.913,312.167 305.838 C 312.167 305.764,311.979 305.656,311.750 305.598 C 311.521 305.541,311.333 305.420,311.333 305.330 C 311.333 305.240,311.221 305.167,311.083 305.167 C 310.946 305.167,310.833 305.102,310.833 305.023 C 310.833 304.943,310.509 304.755,310.112 304.603 C 309.715 304.451,309.230 304.179,309.035 303.997 C 308.840 303.815,308.605 303.667,308.513 303.667 C 308.422 303.667,308.193 303.503,308.006 303.302 L 307.667 302.937 307.667 318.964 M164.127 316.451 C 164.334 316.491,164.634 316.490,164.794 316.448 C 164.953 316.406,164.783 316.374,164.417 316.375 C 164.050 316.377,163.920 316.411,164.127 316.451 M160.875 316.615 C 161.035 316.657,161.298 316.657,161.458 316.615 C 161.619 316.573,161.487 316.539,161.167 316.539 C 160.846 316.539,160.715 316.573,160.875 316.615 M147.960 317.285 C 148.168 317.324,148.468 317.323,148.627 317.281 C 148.786 317.239,148.617 317.207,148.250 317.209 C 147.883 317.211,147.753 317.245,147.960 317.285 M128.627 318.285 C 128.834 318.324,129.134 318.323,129.294 318.281 C 129.453 318.239,129.283 318.207,128.917 318.209 C 128.550 318.211,128.420 318.245,128.627 318.285 M77.167 328.167 C 77.167 329.267,77.223 330.166,77.292 330.164 C 78.120 330.149,78.167 330.044,78.167 328.167 C 78.167 326.290,78.120 326.184,77.292 326.169 C 77.223 326.168,77.167 327.067,77.167 328.167 M170.000 332.945 C 169.496 332.972,168.540 333.040,167.875 333.095 L 166.667 333.195 166.667 336.537 C 166.667 341.007,166.347 341.865,164.291 342.919 L 163.417 343.367 164.667 343.273 C 165.354 343.221,167.267 343.087,168.917 342.976 C 170.633 342.861,171.969 342.698,172.039 342.595 C 172.106 342.497,172.163 340.260,172.164 337.625 L 172.167 332.833 171.542 332.864 C 171.198 332.881,170.504 332.917,170.000 332.945 M165.127 333.285 C 165.334 333.324,165.634 333.323,165.794 333.281 C 165.953 333.239,165.783 333.207,165.417 333.209 C 165.050 333.211,164.920 333.245,165.127 333.285 M162.294 333.451 C 162.501 333.491,162.801 333.490,162.960 333.448 C 163.120 333.406,162.950 333.374,162.583 333.375 C 162.217 333.377,162.086 333.411,162.294 333.451 M139.294 334.785 C 139.501 334.824,139.801 334.823,139.960 334.781 C 140.120 334.739,139.950 334.707,139.583 334.709 C 139.217 334.711,139.086 334.745,139.294 334.785 M136.542 334.948 C 136.702 334.990,136.965 334.990,137.125 334.948 C 137.285 334.906,137.154 334.872,136.833 334.872 C 136.512 334.872,136.381 334.906,136.542 334.948 M127.875 335.448 C 128.035 335.490,128.298 335.490,128.458 335.448 C 128.619 335.406,128.487 335.372,128.167 335.372 C 127.846 335.372,127.715 335.406,127.875 335.448 " stroke="none" fill="#7462df" fill-rule="evenodd"></path><path id="path4" d="M174.635 55.837 C 159.149 58.263,147.442 75.002,139.609 105.917 C 137.623 113.754,134.054 133.152,134.521 133.570 C 134.555 133.601,135.569 133.679,136.774 133.744 L 138.965 133.862 139.079 132.972 C 139.405 130.441,140.612 123.113,141.269 119.667 C 148.592 81.301,161.377 60.513,177.657 60.501 L 179.397 60.500 178.426 61.085 C 169.388 66.527,163.920 77.251,161.853 93.583 C 160.325 105.661,161.016 123.227,163.640 139.024 L 164.101 141.797 163.210 141.871 C 161.428 142.019,160.745 143.128,161.220 145.101 C 161.470 146.136,161.472 146.331,161.249 147.068 C 159.833 151.727,164.094 156.613,168.586 155.482 C 169.281 155.307,169.377 155.329,170.403 155.903 C 174.021 157.926,178.567 159.060,187.500 160.169 C 195.635 161.178,198.512 161.665,202.333 162.683 C 211.887 165.226,218.576 170.641,223.003 179.417 C 224.056 181.505,224.520 182.026,224.632 181.245 C 224.699 180.777,222.927 177.249,221.663 175.333 C 216.472 167.464,209.359 163.023,198.583 160.927 C 195.860 160.397,194.259 160.162,188.333 159.423 C 179.395 158.307,175.755 157.482,171.958 155.709 C 170.091 154.837,170.132 154.898,171.009 154.277 C 173.111 152.790,174.040 149.360,173.094 146.583 C 172.875 145.942,172.710 145.402,172.728 145.384 C 172.746 145.366,173.954 145.983,175.412 146.756 C 180.482 149.440,183.478 150.818,195.500 155.998 C 213.773 163.871,220.787 167.361,225.604 170.975 C 232.504 176.152,233.672 182.244,228.959 188.471 C 228.225 189.440,228.169 189.574,228.400 189.805 C 229.552 190.957,232.580 184.558,232.566 181.000 C 232.534 172.768,226.218 168.304,196.472 155.488 C 183.661 149.968,180.284 148.416,175.667 145.926 C 174.246 145.160,172.783 144.435,172.417 144.314 C 172.050 144.193,171.487 143.895,171.167 143.651 C 170.463 143.118,169.331 142.500,169.055 142.500 C 168.514 142.500,166.772 130.409,166.090 121.917 C 163.379 88.140,170.064 67.666,185.239 63.267 L 186.727 62.836 187.655 63.357 C 205.130 73.170,220.418 102.779,224.888 135.467 C 225.104 137.045,225.333 138.389,225.397 138.453 C 225.504 138.559,229.693 138.850,229.794 138.758 C 229.996 138.573,228.458 128.780,227.475 124.000 C 222.391 99.260,210.841 76.502,197.328 64.592 C 196.230 63.625,195.422 62.833,195.533 62.833 C 196.673 62.833,201.318 64.838,203.674 66.347 C 218.032 75.544,232.741 101.891,243.994 138.571 C 245.380 143.087,245.339 142.627,244.454 143.713 C 240.030 149.145,245.498 157.414,251.550 154.442 C 256.986 151.773,256.283 143.260,250.505 141.781 L 249.602 141.550 248.459 137.733 C 237.778 102.058,222.926 74.793,208.250 63.919 C 202.024 59.305,197.697 57.770,190.833 57.741 C 188.007 57.729,186.806 57.665,186.521 57.512 C 183.997 56.158,177.989 55.311,174.635 55.837 M164.333 142.811 C 164.333 142.890,164.036 143.161,163.672 143.413 C 163.308 143.665,162.806 144.139,162.556 144.467 L 162.102 145.063 161.967 144.573 C 161.767 143.846,161.966 143.196,162.472 142.922 C 162.955 142.659,164.333 142.577,164.333 142.811 M282.417 260.747 C 281.496 261.078,281.147 261.543,280.427 263.400 C 279.138 266.727,277.802 267.652,274.033 267.827 C 270.121 268.008,268.728 269.518,268.541 273.778 C 268.302 279.228,269.695 280.326,278.833 281.892 C 279.063 281.931,277.600 281.931,275.583 281.891 C 273.567 281.852,271.242 281.883,270.417 281.960 L 268.917 282.101 271.750 282.257 L 274.583 282.414 272.167 282.519 C 270.837 282.577,268.231 282.634,266.375 282.646 L 263.000 282.667 263.000 307.750 C 263.000 323.476,263.059 332.833,263.158 332.833 C 263.245 332.833,265.544 333.208,268.267 333.667 C 270.989 334.125,273.355 334.500,273.525 334.500 C 273.824 334.500,273.833 333.698,273.833 308.833 L 273.833 283.167 275.292 283.149 C 276.094 283.140,277.987 283.080,279.500 283.016 C 281.550 282.929,283.926 282.996,288.833 283.280 C 292.454 283.489,295.510 283.662,295.625 283.663 C 295.791 283.666,295.833 288.983,295.833 309.686 L 295.833 335.706 297.042 335.603 C 298.149 335.508,300.533 335.363,305.708 335.076 L 307.667 334.967 307.667 309.025 L 307.667 283.083 308.408 282.615 C 311.354 280.754,311.625 278.300,309.084 276.500 C 306.909 274.960,306.534 273.894,307.246 271.280 C 308.027 268.414,307.108 266.936,303.948 265.974 C 300.594 264.952,297.612 266.144,294.667 269.682 L 293.879 270.629 293.068 269.028 C 290.427 263.812,285.198 259.747,282.417 260.747 M302.750 282.962 C 303.648 283.239,301.164 283.364,298.500 283.176 C 295.523 282.965,295.590 282.977,296.500 282.823 C 297.471 282.658,302.101 282.761,302.750 282.962 M168.917 316.185 C 166.393 316.344,151.354 317.127,147.869 317.281 C 144.993 317.408,145.079 317.295,146.477 319.106 C 148.969 322.336,154.438 330.216,156.149 333.042 C 156.494 333.611,156.592 333.667,157.257 333.667 C 158.000 333.667,168.287 333.087,170.792 332.904 L 172.167 332.803 172.167 324.402 L 172.167 316.000 171.625 316.024 C 171.327 316.037,170.108 316.110,168.917 316.185 M129.083 318.284 L 128.583 318.348 128.636 321.132 C 128.693 324.198,128.643 324.033,129.598 324.304 C 129.974 324.410,130.536 324.670,130.848 324.880 L 131.417 325.263 131.462 328.489 C 131.517 332.419,131.558 332.358,128.375 333.166 L 127.667 333.346 127.667 334.340 L 127.667 335.333 128.875 335.321 C 129.540 335.314,132.727 335.145,135.959 334.946 L 141.835 334.583 140.402 332.583 C 137.075 327.942,133.742 322.886,131.684 319.364 L 130.985 318.167 130.284 318.193 C 129.899 318.208,129.358 318.249,129.083 318.284 " stroke="none" fill="#602e4e" fill-rule="evenodd"></path><path id="path5" d="M190.621 57.620 C 190.917 57.657,191.442 57.658,191.788 57.622 C 192.134 57.586,191.892 57.555,191.250 57.555 C 190.608 57.554,190.325 57.583,190.621 57.620 M265.833 95.669 C 262.902 96.070,259.439 97.127,256.536 98.505 L 254.822 99.318 256.936 101.284 C 269.349 112.831,278.519 128.481,282.937 145.662 C 283.349 147.264,283.712 148.601,283.745 148.633 C 283.918 148.807,286.285 144.915,287.613 142.272 C 292.398 132.745,294.001 121.911,292.066 112.167 C 291.317 108.397,291.196 108.113,289.531 106.242 C 282.366 98.186,274.165 94.527,265.833 95.669 M253.049 100.484 C 246.316 105.020,242.963 110.468,242.931 116.917 C 242.912 120.762,242.973 121.128,244.233 124.712 C 244.838 126.432,245.333 127.911,245.333 127.997 C 245.333 128.339,246.021 128.460,248.500 128.552 C 260.376 128.992,270.935 133.162,277.636 140.055 C 278.800 141.254,279.117 141.489,279.618 141.532 C 280.209 141.583,280.218 141.596,280.599 142.879 C 280.810 143.592,281.132 144.384,281.313 144.639 C 281.495 144.894,281.954 145.623,282.332 146.260 C 282.711 146.896,282.984 147.267,282.938 147.083 C 279.107 131.531,271.341 116.910,261.179 106.119 C 260.470 105.366,259.745 104.574,259.570 104.360 C 258.957 103.613,254.650 99.667,254.451 99.671 C 254.340 99.673,253.709 100.039,253.049 100.484 M165.539 103.167 C 165.539 103.487,165.573 103.619,165.615 103.458 C 165.657 103.298,165.657 103.035,165.615 102.875 C 165.573 102.715,165.539 102.846,165.539 103.167 M291.750 109.083 C 292.029 109.899,292.679 113.300,292.901 115.105 C 294.254 126.118,291.473 137.670,285.137 147.358 L 283.827 149.361 284.241 151.488 C 284.470 152.658,284.842 154.958,285.069 156.599 C 285.470 159.496,285.614 160.029,289.963 174.810 L 294.444 190.037 294.811 187.727 C 295.571 182.957,295.661 181.609,295.831 172.583 C 296.128 156.712,297.716 151.541,305.479 141.167 C 306.909 139.257,306.905 139.804,305.515 135.649 C 302.452 126.489,298.069 117.536,293.652 111.417 C 291.985 109.107,291.593 108.626,291.750 109.083 M165.539 113.333 C 165.539 113.654,165.573 113.785,165.615 113.625 C 165.657 113.465,165.657 113.202,165.615 113.042 C 165.573 112.881,165.539 113.013,165.539 113.333 M245.667 128.860 C 245.667 129.071,246.658 131.833,246.906 132.313 C 247.063 132.616,247.149 132.973,247.097 133.107 C 247.046 133.241,247.065 133.313,247.139 133.267 C 247.214 133.221,247.967 134.702,248.814 136.559 L 250.353 139.934 254.218 140.135 C 263.701 140.628,276.351 141.325,277.417 141.413 L 278.583 141.510 277.333 140.241 C 270.599 133.406,260.268 129.378,248.208 128.886 C 246.810 128.828,245.667 128.817,245.667 128.860 M281.580 146.167 C 282.012 147.911,284.650 156.423,284.575 155.833 C 284.040 151.595,283.452 149.166,282.559 147.500 C 281.710 145.919,281.420 145.524,281.580 146.167 M82.423 227.341 C 72.319 228.922,61.516 242.690,58.503 257.826 C 55.663 272.089,59.789 285.004,69.881 293.442 C 72.081 295.281,76.270 298.000,76.904 298.000 C 77.142 298.000,77.167 295.632,77.167 272.866 L 77.167 247.732 77.593 246.877 C 79.122 243.809,80.919 243.456,92.004 244.050 L 92.924 244.099 93.566 238.258 C 93.920 235.045,94.244 232.188,94.288 231.908 C 94.358 231.453,94.271 231.326,93.475 230.713 C 89.948 227.999,85.973 226.786,82.423 227.341 M112.542 244.948 C 112.702 244.990,112.965 244.990,113.125 244.948 C 113.285 244.906,113.154 244.872,112.833 244.872 C 112.513 244.872,112.381 244.906,112.542 244.948 M148.708 246.448 C 148.869 246.490,149.131 246.490,149.292 246.448 C 149.452 246.406,149.321 246.372,149.000 246.372 C 148.679 246.372,148.548 246.406,148.708 246.448 M184.875 247.948 C 185.035 247.990,185.298 247.990,185.458 247.948 C 185.619 247.906,185.487 247.872,185.167 247.872 C 184.846 247.872,184.715 247.906,184.875 247.948 M276.711 281.786 C 276.964 281.825,277.339 281.824,277.544 281.784 C 277.749 281.744,277.542 281.713,277.083 281.714 C 276.625 281.716,276.457 281.748,276.711 281.786 M269.127 281.951 C 269.334 281.991,269.634 281.990,269.794 281.948 C 269.953 281.906,269.783 281.874,269.417 281.875 C 269.050 281.877,268.920 281.911,269.127 281.951 M254.794 282.285 C 255.001 282.324,255.301 282.323,255.460 282.281 C 255.620 282.239,255.450 282.207,255.083 282.209 C 254.717 282.211,254.586 282.245,254.794 282.285 M313.460 282.618 C 313.668 282.658,313.968 282.656,314.127 282.615 C 314.286 282.573,314.117 282.540,313.750 282.542 C 313.383 282.544,313.253 282.578,313.460 282.618 M318.627 282.785 C 318.834 282.824,319.134 282.823,319.294 282.781 C 319.453 282.739,319.283 282.707,318.917 282.709 C 318.550 282.711,318.420 282.745,318.627 282.785 " stroke="none" fill="#fb8c8c" fill-rule="evenodd"></path><path id="path6" d="M329.167 124.668 C 329.167 124.760,329.389 125.716,329.661 126.793 C 332.486 137.992,332.159 149.807,328.761 159.250 C 327.480 162.812,325.148 166.939,321.682 171.782 L 320.825 172.980 321.871 172.562 C 334.515 167.505,346.087 156.488,352.194 143.692 C 352.999 142.007,353.002 142.030,351.536 139.143 C 346.988 130.184,338.850 124.500,330.571 124.500 C 329.740 124.500,329.167 124.568,329.167 124.668 M326.684 124.924 C 321.105 126.135,315.607 129.749,309.709 136.083 C 307.691 138.250,307.763 137.905,309.010 139.456 C 314.444 146.211,319.180 159.670,320.269 171.458 C 320.415 173.028,320.331 173.083,322.450 170.042 C 330.686 158.221,333.105 145.346,329.999 129.871 C 328.896 124.378,328.935 124.436,326.684 124.924 M306.512 139.818 C 298.623 149.853,295.853 157.586,295.836 169.617 L 295.833 171.483 297.416 174.465 C 302.015 183.126,305.977 193.756,306.773 199.564 C 306.917 200.611,307.037 200.536,307.483 199.125 C 310.128 190.753,313.762 183.054,318.515 175.750 L 320.142 173.250 319.905 171.333 C 318.232 157.804,313.877 145.646,308.429 139.292 C 307.582 138.304,307.735 138.262,306.512 139.818 M352.162 144.535 C 345.870 157.293,334.656 167.785,321.743 172.996 L 320.403 173.537 318.969 175.727 C 313.952 183.392,309.979 191.925,307.430 200.506 L 307.169 201.385 309.626 201.265 C 313.677 201.067,313.596 201.091,315.121 199.657 C 319.768 195.287,324.756 193.975,330.177 195.695 L 331.771 196.200 333.250 195.588 C 339.602 192.958,347.286 188.133,352.140 183.725 C 353.004 182.940,353.042 182.868,353.436 181.250 C 356.780 167.510,356.854 154.352,353.643 144.333 C 353.364 143.462,353.122 142.736,353.105 142.718 C 353.088 142.700,352.664 143.518,352.162 144.535 M75.992 157.091 C 68.870 158.381,61.837 164.295,58.149 172.094 C 56.957 174.612,56.931 174.263,58.544 177.384 C 64.934 189.750,74.896 199.088,87.640 204.657 C 89.265 205.368,89.271 205.402,87.278 202.561 C 78.461 189.992,76.172 175.661,80.342 159.135 C 80.612 158.063,80.833 157.107,80.833 157.010 C 80.833 156.756,77.534 156.812,75.992 157.091 M81.243 157.062 C 78.966 163.706,78.190 175.491,79.514 183.316 C 80.773 190.748,82.784 195.482,87.646 202.457 C 89.531 205.162,89.667 205.297,89.667 204.470 C 89.667 204.178,89.860 202.697,90.095 201.178 C 91.994 188.941,95.614 178.801,100.285 172.636 C 100.937 171.776,101.012 171.576,101.106 170.459 L 101.210 169.230 98.813 166.817 C 92.972 160.937,87.733 157.903,81.779 156.950 C 81.514 156.908,81.279 156.957,81.243 157.062 M295.832 174.500 C 295.821 179.154,295.487 183.501,294.808 187.833 L 294.456 190.083 297.323 199.833 C 298.899 205.196,300.329 210.033,300.499 210.583 C 300.669 211.133,301.311 213.308,301.926 215.417 C 302.541 217.525,303.085 219.321,303.136 219.408 C 303.278 219.653,303.619 217.957,304.342 213.417 C 305.146 208.358,305.350 207.289,306.120 204.083 C 306.801 201.247,306.794 201.020,305.910 197.060 C 304.500 190.751,300.499 180.703,296.527 173.500 L 295.838 172.250 295.832 174.500 M99.972 173.677 C 95.509 180.006,92.036 190.200,90.352 201.917 C 89.783 205.873,89.673 205.261,91.427 207.917 C 92.275 209.200,93.669 211.484,94.526 212.992 L 96.083 215.734 96.194 214.659 C 96.254 214.067,97.326 204.442,98.575 193.269 C 99.824 182.096,100.820 172.876,100.787 172.779 C 100.755 172.682,100.388 173.086,99.972 173.677 M56.366 176.610 C 53.186 186.702,53.211 199.414,56.436 212.865 L 57.023 215.313 58.053 216.212 C 63.294 220.786,69.726 224.842,76.083 227.582 C 77.092 228.017,77.980 228.431,78.058 228.503 C 78.136 228.575,78.528 228.488,78.928 228.311 C 83.467 226.304,88.731 227.131,93.274 230.566 C 93.811 230.973,94.268 231.287,94.290 231.265 C 94.313 231.243,94.706 227.899,95.165 223.833 L 95.999 216.442 95.083 214.727 C 93.924 212.557,92.664 210.465,90.963 207.890 L 89.625 205.864 88.104 205.242 C 75.354 200.035,64.644 190.063,58.069 177.277 L 56.883 174.971 56.366 176.610 M351.167 185.027 C 345.789 189.563,334.422 196.333,332.184 196.333 C 332.041 196.333,332.513 196.669,333.233 197.079 C 336.172 198.754,339.420 201.743,342.517 205.623 L 343.480 206.830 344.475 204.956 C 347.377 199.499,353.702 183.290,352.779 183.679 C 352.763 183.685,352.037 184.292,351.167 185.027 M311.583 201.506 C 311.033 201.575,310.058 201.639,309.417 201.650 C 308.775 201.661,307.974 201.716,307.636 201.772 L 307.022 201.873 306.437 204.312 C 305.682 207.462,305.476 208.550,304.672 213.606 C 304.305 215.909,303.868 218.385,303.700 219.106 L 303.395 220.418 305.114 226.250 C 306.060 229.459,306.908 232.308,306.999 232.583 C 307.396 233.780,306.981 229.404,306.407 226.333 C 304.634 216.850,306.294 210.147,312.246 202.750 C 312.688 202.200,313.123 201.656,313.212 201.542 C 313.394 201.307,313.220 201.303,311.583 201.506 M57.526 217.116 C 59.608 224.223,61.735 229.644,64.997 236.160 L 66.519 239.201 67.172 238.326 C 69.688 234.954,73.277 231.559,76.397 229.600 L 77.827 228.703 76.872 228.323 C 71.189 226.061,63.119 221.124,58.546 217.110 C 57.097 215.838,57.151 215.838,57.526 217.116 M317.460 282.785 C 317.668 282.824,317.968 282.823,318.127 282.781 C 318.286 282.739,318.117 282.707,317.750 282.709 C 317.383 282.711,317.253 282.745,317.460 282.785 M121.218 315.583 C 121.219 316.133,121.250 316.338,121.287 316.039 C 121.325 315.739,121.324 315.289,121.286 315.039 C 121.248 314.788,121.217 315.033,121.218 315.583 M121.209 340.917 C 121.211 341.283,121.245 341.414,121.285 341.206 C 121.324 340.999,121.323 340.699,121.281 340.540 C 121.239 340.380,121.207 340.550,121.209 340.917 " stroke="none" fill="#e48ddc" fill-rule="evenodd"></path><path id="path7" d="M338.667 201.417 C 338.978 201.737,339.270 202.000,339.315 202.000 C 339.361 202.000,339.144 201.737,338.833 201.417 C 338.522 201.096,338.230 200.833,338.185 200.833 C 338.139 200.833,338.356 201.096,338.667 201.417 M352.383 234.167 C 352.383 234.671,352.415 234.877,352.453 234.625 C 352.491 234.373,352.491 233.960,352.453 233.708 C 352.415 233.456,352.383 233.662,352.383 234.167 M308.722 282.752 C 308.722 282.912,308.786 282.942,308.908 282.840 C 309.023 282.745,309.189 282.746,309.339 282.842 C 309.565 282.987,316.986 282.880,317.153 282.729 C 317.191 282.695,316.291 282.658,315.153 282.648 C 314.015 282.637,312.102 282.602,310.903 282.569 C 309.075 282.518,308.722 282.548,308.722 282.752 M135.573 285.042 L 135.083 285.583 135.625 285.094 C 135.923 284.825,136.167 284.581,136.167 284.552 C 136.167 284.423,136.029 284.537,135.573 285.042 M118.491 287.292 L 117.917 287.917 118.542 287.342 C 119.123 286.808,119.243 286.667,119.116 286.667 C 119.088 286.667,118.807 286.948,118.491 287.292 M172.248 317.083 C 172.248 330.742,172.268 336.305,172.292 329.445 C 172.316 322.586,172.316 311.411,172.292 304.612 C 172.268 297.813,172.248 303.425,172.248 317.083 M96.125 296.791 C 96.973 296.821,98.360 296.821,99.208 296.791 C 100.056 296.761,99.362 296.736,97.667 296.736 C 95.971 296.736,95.277 296.761,96.125 296.791 " stroke="none" fill="#b198ee" fill-rule="evenodd"></path><path id="path8" d="M209.500 71.052 C 209.500 71.081,209.744 71.325,210.042 71.594 L 210.583 72.083 210.094 71.542 C 209.638 71.037,209.500 70.923,209.500 71.052 M254.611 99.456 C 254.568 99.526,255.353 100.333,256.355 101.250 C 269.090 112.892,278.232 128.653,282.942 147.083 C 282.988 147.267,282.642 146.779,282.171 146.000 C 281.700 145.221,281.241 144.509,281.151 144.418 C 280.842 144.108,281.457 145.581,282.076 146.635 C 283.359 148.818,283.830 150.489,284.504 155.250 C 284.711 156.706,285.172 158.717,285.275 158.614 C 285.376 158.513,284.695 153.833,284.237 151.472 L 283.827 149.361 285.137 147.358 C 291.352 137.855,294.149 126.550,292.978 115.667 C 292.627 112.408,291.752 108.584,291.265 108.179 C 291.078 108.024,291.093 108.205,291.340 109.032 C 294.320 119.045,292.895 131.756,287.613 142.272 C 286.285 144.915,283.918 148.807,283.745 148.633 C 283.712 148.601,283.349 147.264,282.937 145.662 C 279.450 132.102,273.208 119.807,264.492 109.333 C 260.806 104.904,254.895 98.995,254.611 99.456 M165.539 104.500 C 165.539 104.821,165.573 104.952,165.615 104.792 C 165.657 104.631,165.657 104.369,165.615 104.208 C 165.573 104.048,165.539 104.179,165.539 104.500 M165.539 111.833 C 165.539 112.154,165.573 112.285,165.615 112.125 C 165.657 111.965,165.657 111.702,165.615 111.542 C 165.573 111.381,165.539 111.513,165.539 111.833 M242.718 117.250 C 242.719 117.800,242.750 118.005,242.787 117.705 C 242.825 117.406,242.824 116.956,242.786 116.705 C 242.748 116.455,242.717 116.700,242.718 117.250 M329.096 125.981 C 332.543 138.561,331.695 152.760,326.898 162.761 C 325.701 165.257,320.916 172.667,320.501 172.667 C 320.435 172.667,320.331 172.123,320.269 171.458 C 319.481 162.928,315.987 150.927,312.446 144.583 C 310.885 141.786,307.951 137.787,307.782 138.227 C 307.736 138.347,308.053 138.859,308.485 139.367 C 313.906 145.719,318.237 157.841,319.905 171.333 L 320.142 173.250 318.515 175.750 C 313.762 183.054,310.128 190.753,307.483 199.125 C 307.037 200.536,306.917 200.611,306.773 199.564 C 306.198 195.369,303.632 187.626,300.592 180.917 C 298.976 177.351,295.933 171.528,295.866 171.873 C 295.838 172.016,296.490 173.435,297.315 175.025 C 302.028 184.114,305.295 192.961,306.443 199.744 L 306.739 201.494 306.203 203.705 C 305.424 206.917,305.232 207.915,304.412 213.018 C 304.005 215.549,303.557 218.121,303.415 218.732 C 303.261 219.395,303.214 219.948,303.299 220.099 C 303.484 220.430,303.979 218.063,304.749 213.167 C 305.466 208.599,305.688 207.439,306.437 204.312 L 307.022 201.873 307.636 201.772 C 307.974 201.716,308.684 201.670,309.215 201.669 C 310.774 201.666,313.399 201.328,313.632 201.101 C 313.805 200.932,313.675 200.916,312.965 201.018 C 312.480 201.088,310.978 201.199,309.626 201.265 L 307.169 201.385 307.430 200.506 C 309.979 191.925,313.952 183.392,318.969 175.727 L 320.403 173.537 321.743 172.996 C 333.150 168.392,343.317 159.626,349.845 148.765 C 351.325 146.302,353.000 142.961,352.999 142.475 C 352.998 142.244,352.531 143.008,351.864 144.333 C 345.393 157.186,334.364 167.566,321.871 172.562 L 320.825 172.980 321.682 171.782 C 330.791 159.055,333.466 146.777,330.565 131.000 C 329.963 127.727,329.133 124.500,328.893 124.500 C 328.749 124.500,328.807 124.926,329.096 125.981 M245.601 128.570 C 245.660 128.723,246.396 128.811,248.216 128.886 C 260.135 129.373,270.013 133.157,276.959 139.895 C 278.980 141.855,279.494 141.926,277.574 139.980 C 270.869 133.182,260.328 128.997,248.833 128.570 C 247.596 128.525,246.344 128.458,246.052 128.422 C 245.671 128.376,245.543 128.418,245.601 128.570 M124.542 133.115 C 124.702 133.157,124.965 133.157,125.125 133.115 C 125.285 133.073,125.154 133.039,124.833 133.039 C 124.513 133.039,124.381 133.073,124.542 133.115 M312.073 133.542 L 311.583 134.083 312.125 133.594 C 312.630 133.138,312.743 133.000,312.615 133.000 C 312.586 133.000,312.342 133.244,312.073 133.542 M139.875 133.948 C 140.035 133.990,140.298 133.990,140.458 133.948 C 140.619 133.906,140.487 133.872,140.167 133.872 C 139.846 133.872,139.715 133.906,139.875 133.948 M310.573 135.042 L 310.083 135.583 310.625 135.094 C 311.130 134.638,311.243 134.500,311.115 134.500 C 311.086 134.500,310.842 134.744,310.573 135.042 M179.542 136.115 C 179.702 136.157,179.965 136.157,180.125 136.115 C 180.285 136.073,180.154 136.039,179.833 136.039 C 179.512 136.039,179.381 136.073,179.542 136.115 M222.542 138.448 C 222.702 138.490,222.965 138.490,223.125 138.448 C 223.285 138.406,223.154 138.372,222.833 138.372 C 222.512 138.372,222.381 138.406,222.542 138.448 M80.288 159.375 C 76.239 176.232,78.468 190.003,87.278 202.561 C 89.271 205.402,89.265 205.368,87.640 204.657 C 74.846 199.066,64.942 189.761,58.476 177.257 C 57.655 175.670,57.005 174.583,57.003 174.794 C 56.997 175.559,59.931 180.941,61.978 183.917 C 68.551 193.473,77.827 201.045,88.104 205.242 L 89.625 205.864 90.962 207.890 C 92.728 210.566,93.493 211.830,94.861 214.332 C 95.635 215.747,96.000 216.280,96.000 215.996 C 96.000 215.477,93.485 211.034,91.427 207.917 C 89.674 205.261,89.783 205.873,90.352 201.917 C 92.086 189.855,95.872 179.010,100.442 173.018 C 101.104 172.149,101.219 171.473,100.572 172.250 C 97.487 175.956,94.181 183.353,92.183 191.023 C 91.084 195.238,89.667 202.814,89.667 204.470 C 89.667 204.761,89.610 205.000,89.542 204.999 C 89.390 204.998,86.220 200.470,84.991 198.500 C 78.638 188.313,77.077 173.417,80.820 158.708 C 81.151 157.407,81.236 156.833,81.098 156.833 C 80.978 156.833,80.653 157.852,80.288 159.375 M246.583 180.833 C 247.035 181.292,247.442 181.667,247.487 181.667 C 247.533 181.667,247.201 181.292,246.750 180.833 C 246.299 180.375,245.892 180.000,245.846 180.000 C 245.800 180.000,246.132 180.375,246.583 180.833 M351.500 184.280 C 346.488 188.659,339.037 193.256,333.015 195.685 C 332.032 196.081,331.725 196.267,331.987 196.305 C 333.860 196.581,344.604 190.351,350.523 185.558 C 351.682 184.620,352.676 183.885,352.732 183.926 C 352.788 183.967,352.798 183.953,352.756 183.895 C 352.713 183.837,352.757 183.643,352.853 183.464 C 353.162 182.887,352.944 183.018,351.500 184.280 M229.231 184.317 C 228.558 184.728,228.082 185.409,227.840 186.310 C 227.595 187.220,227.711 187.398,227.975 186.517 C 228.303 185.424,230.041 184.271,230.877 184.591 C 231.033 184.651,231.156 184.560,231.212 184.343 C 231.336 183.871,229.991 183.854,229.231 184.317 M232.110 184.573 C 232.050 184.730,232.265 184.957,232.732 185.230 C 233.927 185.931,234.910 187.145,235.612 188.789 C 235.935 189.544,236.002 189.627,235.926 189.177 C 235.582 187.143,232.535 183.466,232.110 184.573 M253.333 187.417 C 253.831 187.921,254.276 188.333,254.322 188.333 C 254.368 188.333,253.998 187.921,253.500 187.417 C 253.002 186.912,252.557 186.500,252.511 186.500 C 252.466 186.500,252.835 186.912,253.333 187.417 M208.841 192.417 C 208.841 193.132,209.702 194.447,217.190 205.167 C 221.449 211.262,230.513 224.237,237.332 234.000 C 244.152 243.762,250.591 252.987,251.641 254.500 C 254.382 258.449,254.840 258.853,256.595 258.869 C 257.931 258.881,257.538 259.160,275.417 245.528 C 293.406 231.812,293.070 232.080,293.521 231.088 C 293.988 230.059,293.883 229.813,293.371 230.738 C 292.909 231.573,291.798 232.447,274.083 245.907 C 272.708 246.951,270.196 248.863,268.500 250.154 C 254.661 260.690,256.280 260.517,250.407 252.083 C 248.684 249.608,244.601 243.758,241.335 239.083 C 238.068 234.408,233.642 228.071,231.498 225.000 C 229.354 221.929,224.404 214.842,220.497 209.250 C 216.591 203.658,212.509 197.816,211.428 196.266 C 210.346 194.717,209.322 193.142,209.151 192.766 C 208.957 192.340,208.841 192.209,208.841 192.417 M260.167 194.083 C 260.478 194.404,260.770 194.667,260.815 194.667 C 260.861 194.667,260.644 194.404,260.333 194.083 C 260.022 193.762,259.730 193.500,259.685 193.500 C 259.639 193.500,259.856 193.762,260.167 194.083 M249.030 198.443 C 247.986 199.174,247.997 198.709,248.905 203.972 C 249.311 206.325,250.328 212.262,251.164 217.167 C 252.001 222.071,252.761 226.478,252.855 226.960 L 253.024 227.836 253.927 227.210 C 254.423 226.865,254.830 226.515,254.831 226.431 C 254.832 226.347,254.423 223.872,253.923 220.931 C 253.422 217.990,252.482 212.471,251.835 208.667 C 250.542 201.059,249.991 197.937,249.932 197.877 C 249.911 197.856,249.505 198.110,249.030 198.443 M240.333 204.747 C 237.177 205.764,236.431 209.760,238.591 214.083 C 241.146 219.197,245.377 221.024,247.935 218.117 C 251.651 213.896,245.502 203.083,240.333 204.747 M256.668 206.219 C 256.348 206.321,255.699 206.782,255.225 207.244 C 250.809 211.551,257.868 223.167,263.272 220.485 C 268.983 217.650,262.789 204.270,256.668 206.219 M272.833 206.385 C 272.833 206.414,273.077 206.658,273.375 206.927 L 273.917 207.417 273.427 206.875 C 272.971 206.370,272.833 206.257,272.833 206.385 M242.151 208.075 C 245.073 209.586,247.446 216.167,245.069 216.167 C 242.470 216.167,238.883 208.875,241.053 208.001 C 241.558 207.797,241.622 207.802,242.151 208.075 M258.950 209.660 C 260.295 210.480,262.468 214.135,262.623 215.838 C 262.848 218.326,260.799 218.205,258.894 215.618 C 256.198 211.956,256.235 208.004,258.950 209.660 M280.250 213.667 C 280.701 214.125,281.108 214.500,281.154 214.500 C 281.200 214.500,280.868 214.125,280.417 213.667 C 279.965 213.208,279.558 212.833,279.513 212.833 C 279.467 212.833,279.799 213.208,280.250 213.667 M57.129 215.652 C 57.886 217.695,70.136 225.588,76.654 228.232 C 79.064 229.210,78.580 228.658,76.083 227.582 C 69.817 224.881,64.088 221.301,58.546 216.624 C 57.679 215.892,57.061 215.468,57.129 215.652 M286.917 220.167 C 287.368 220.625,287.775 221.000,287.821 221.000 C 287.867 221.000,287.535 220.625,287.083 220.167 C 286.632 219.708,286.225 219.333,286.179 219.333 C 286.133 219.333,286.465 219.708,286.917 220.167 M274.876 225.543 C 261.372 234.344,256.866 237.279,254.969 238.510 C 252.016 240.426,251.429 241.414,252.427 242.779 C 253.549 244.313,253.902 244.216,258.764 241.047 C 260.864 239.678,265.846 236.434,269.833 233.838 C 279.953 227.249,279.915 227.275,280.162 226.677 C 280.758 225.240,279.864 223.665,278.456 223.668 C 277.840 223.670,277.385 223.908,274.876 225.543 M57.550 266.500 C 57.550 267.004,57.581 267.210,57.619 266.958 C 57.658 266.706,57.658 266.294,57.619 266.042 C 57.581 265.790,57.550 265.996,57.550 266.500 M151.250 284.727 C 150.975 285.018,150.423 285.518,150.024 285.837 C 148.895 286.738,148.052 287.566,148.385 287.445 C 148.627 287.358,148.677 287.411,148.635 287.710 C 148.602 287.950,148.662 288.067,148.804 288.038 C 148.925 288.012,148.988 288.051,148.944 288.123 C 148.899 288.195,148.969 288.398,149.098 288.575 C 149.227 288.752,149.333 288.842,149.333 288.775 C 149.333 288.708,149.438 288.750,149.566 288.868 C 149.694 288.987,149.770 289.131,149.734 289.189 C 149.699 289.248,149.876 289.334,150.127 289.382 C 150.645 289.482,151.500 289.054,151.500 288.696 C 151.500 288.445,152.329 287.724,152.538 287.792 C 152.609 287.815,152.667 287.721,152.667 287.583 C 152.667 287.446,152.742 287.333,152.833 287.333 C 152.925 287.333,153.000 287.421,153.000 287.528 C 153.000 287.815,153.184 287.580,153.238 287.224 C 153.271 287.007,153.402 286.931,153.684 286.965 L 154.083 287.014 153.667 286.682 C 153.438 286.500,153.250 286.222,153.249 286.064 C 153.249 285.906,153.136 285.747,152.999 285.709 C 152.779 285.649,152.779 285.663,153.000 285.833 C 153.222 286.004,153.222 286.018,153.000 285.957 C 152.862 285.920,152.750 285.742,152.750 285.563 C 152.750 285.384,152.525 285.003,152.250 284.717 L 151.750 284.196 151.250 284.727 M153.994 289.270 C 153.768 289.575,153.522 289.826,153.446 289.829 C 153.247 289.835,152.833 290.280,152.833 290.488 C 152.833 290.586,152.671 290.667,152.473 290.667 C 151.933 290.667,151.134 291.627,151.346 292.023 C 151.437 292.194,151.640 292.334,151.798 292.336 C 152.008 292.338,152.027 292.374,151.870 292.474 C 151.705 292.579,151.735 292.708,152.003 293.049 C 152.193 293.290,152.326 293.516,152.299 293.549 C 152.272 293.582,152.373 293.866,152.524 294.180 C 152.675 294.493,152.870 294.938,152.958 295.167 C 153.046 295.396,153.293 295.958,153.507 296.417 C 153.721 296.875,153.910 297.306,153.927 297.375 C 153.944 297.444,153.977 297.537,154.000 297.583 C 154.023 297.629,154.057 297.723,154.076 297.792 C 154.096 297.860,154.199 298.128,154.306 298.386 C 154.413 298.644,154.504 298.944,154.509 299.053 C 154.514 299.161,154.726 299.764,154.980 300.392 L 155.443 301.534 155.731 299.892 C 156.031 298.175,156.138 295.231,155.957 293.667 C 155.740 291.800,155.697 291.594,155.517 291.534 C 155.416 291.500,155.334 291.347,155.336 291.194 C 155.338 290.952,155.361 290.949,155.518 291.167 C 155.663 291.368,155.676 291.352,155.583 291.083 C 155.445 290.685,155.363 290.325,155.346 290.042 C 155.339 289.927,155.202 289.827,155.042 289.820 C 154.867 289.812,154.834 289.773,154.958 289.723 C 155.073 289.677,155.167 289.566,155.167 289.476 C 155.167 289.387,155.099 289.356,155.016 289.407 C 154.932 289.458,154.901 289.361,154.946 289.190 C 155.098 288.606,154.446 288.661,153.994 289.270 M150.107 289.615 C 150.048 289.674,150.198 290.066,150.439 290.486 C 151.035 291.524,151.176 291.654,151.132 291.126 C 151.112 290.882,151.062 290.716,151.021 290.756 C 150.895 290.883,150.498 290.471,150.595 290.314 C 150.645 290.233,150.599 290.167,150.492 290.167 C 150.385 290.167,150.340 290.057,150.392 289.922 C 150.492 289.661,150.284 289.438,150.107 289.615 M67.000 290.885 C 67.000 290.914,67.244 291.158,67.542 291.427 L 68.083 291.917 67.594 291.375 C 67.138 290.870,67.000 290.757,67.000 290.885 M108.460 291.285 C 108.668 291.324,108.968 291.323,109.127 291.281 C 109.286 291.239,109.117 291.207,108.750 291.209 C 108.383 291.211,108.253 291.245,108.460 291.285 M231.914 308.833 C 231.914 318.596,231.934 322.590,231.958 317.708 C 231.983 312.827,231.983 304.840,231.958 299.958 C 231.934 295.077,231.914 299.071,231.914 308.833 M231.073 292.042 L 230.583 292.583 231.125 292.094 C 231.630 291.638,231.743 291.500,231.615 291.500 C 231.586 291.500,231.342 291.744,231.073 292.042 M70.902 303.417 C 70.902 305.067,70.927 305.719,70.958 304.867 C 70.988 304.014,70.988 302.664,70.957 301.867 C 70.927 301.069,70.902 301.767,70.902 303.417 M221.250 301.536 C 216.636 301.726,217.083 301.289,217.083 305.603 C 217.083 309.671,217.045 309.586,218.833 309.435 C 219.429 309.385,221.172 309.294,222.707 309.233 C 226.385 309.087,226.072 309.434,226.135 305.433 L 226.186 302.171 225.767 301.752 C 225.537 301.522,225.251 301.345,225.133 301.359 C 225.014 301.373,223.267 301.453,221.250 301.536 M200.833 302.264 C 187.435 302.769,181.061 303.003,180.720 303.002 C 179.889 302.998,179.833 303.253,179.833 307.083 C 179.833 310.706,179.910 311.167,180.516 311.167 C 180.666 311.167,191.902 310.649,204.000 310.085 C 206.979 309.946,209.655 309.832,209.946 309.833 C 210.960 309.834,211.000 309.684,211.000 305.855 C 211.000 303.390,210.943 302.343,210.800 302.200 C 210.555 301.955,208.698 301.967,200.833 302.264 M74.224 309.083 C 74.224 309.817,74.254 310.096,74.289 309.704 C 74.324 309.312,74.324 308.712,74.288 308.371 C 74.252 308.029,74.223 308.350,74.224 309.083 M220.103 317.679 C 216.977 317.840,217.101 317.737,217.028 320.220 C 216.979 321.883,217.010 322.142,217.299 322.499 L 217.625 322.902 221.508 322.691 C 226.477 322.422,226.262 322.569,226.142 319.534 C 226.053 317.270,226.335 317.357,220.103 317.679 M207.000 318.281 C 206.404 318.309,202.504 318.484,198.333 318.670 C 182.503 319.376,180.285 319.499,180.059 319.687 C 179.889 319.828,179.833 320.446,179.833 322.175 C 179.833 325.151,179.770 325.077,182.156 324.933 C 183.125 324.874,187.217 324.641,191.250 324.415 C 206.690 323.548,210.405 323.306,210.698 323.150 C 211.071 322.950,211.161 318.728,210.800 318.367 C 210.607 318.174,209.732 318.154,207.000 318.281 M75.230 322.917 C 75.231 324.017,75.258 324.445,75.290 323.868 C 75.323 323.292,75.323 322.392,75.290 321.868 C 75.257 321.345,75.230 321.817,75.230 322.917 M221.172 324.107 C 218.413 324.283,217.535 324.394,217.338 324.590 C 216.912 325.016,216.873 328.640,217.290 329.155 L 217.606 329.545 221.512 329.322 C 226.476 329.038,226.219 329.205,226.139 326.313 C 226.079 324.160,225.927 323.801,225.093 323.856 C 224.904 323.868,223.140 323.981,221.172 324.107 M203.583 325.086 C 200.008 325.294,193.371 325.668,188.833 325.918 C 178.827 326.468,179.833 326.105,179.833 329.167 C 179.833 332.117,179.736 332.023,182.583 331.823 C 183.683 331.746,187.696 331.488,191.500 331.249 C 206.140 330.332,210.544 330.004,210.771 329.816 C 211.493 329.217,210.942 324.508,210.171 324.687 C 210.123 324.698,207.158 324.878,203.583 325.086 M74.230 333.917 C 74.231 335.017,74.258 335.445,74.290 334.868 C 74.323 334.292,74.323 333.392,74.290 332.868 C 74.257 332.345,74.230 332.817,74.230 333.917 M75.230 348.250 C 75.231 349.350,75.258 349.778,75.290 349.202 C 75.323 348.625,75.323 347.725,75.290 347.202 C 75.257 346.678,75.230 347.150,75.230 348.250 M152.333 347.417 C 152.644 347.738,152.936 348.000,152.982 348.000 C 153.028 348.000,152.811 347.738,152.500 347.417 C 152.189 347.096,151.897 346.833,151.851 346.833 C 151.805 346.833,152.022 347.096,152.333 347.417 M153.167 348.219 C 153.167 348.248,153.410 348.491,153.708 348.760 L 154.250 349.250 153.760 348.708 C 153.304 348.203,153.167 348.090,153.167 348.219 M96.963 353.622 C 97.355 353.657,97.955 353.657,98.296 353.621 C 98.637 353.585,98.317 353.557,97.583 353.557 C 96.850 353.558,96.571 353.587,96.963 353.622 M106.208 353.619 C 106.460 353.658,106.873 353.658,107.125 353.619 C 107.377 353.581,107.171 353.550,106.667 353.550 C 106.162 353.550,105.956 353.581,106.208 353.619 " stroke="none" fill="#ebd3cb" fill-rule="evenodd"></path></g></svg>