<svg width="688" height="761" viewBox="0 0 688 761" fill="none" xmlns="http://www.w3.org/2000/svg">
<path fill-rule="evenodd" clip-rule="evenodd" d="M398.574 135.176C398.574 135.232 399.038 135.696 399.605 136.208L400.634 137.138L399.704 136.109C398.836 135.148 398.574 134.931 398.574 135.176ZM484.397 189.215C484.316 189.348 485.809 190.884 487.715 192.628C511.944 214.777 529.336 244.762 538.297 279.825C538.385 280.175 537.726 279.247 536.83 277.765C535.934 276.283 535.061 274.928 534.89 274.755C534.302 274.165 535.472 276.968 536.65 278.973C539.09 283.126 539.987 286.305 541.269 295.363C541.663 298.133 542.54 301.959 542.736 301.763C542.928 301.571 541.632 292.667 540.761 288.175L539.981 284.159L542.473 280.349C554.297 262.269 559.618 240.761 557.391 220.056C556.723 213.856 555.058 206.581 554.132 205.811C553.776 205.516 553.804 205.86 554.274 207.433C559.944 226.483 557.233 250.666 547.184 270.672C544.657 275.701 540.154 283.105 539.825 282.774C539.762 282.713 539.071 280.17 538.288 277.122C531.654 251.324 519.778 227.933 503.196 208.006C496.183 199.58 484.938 188.338 484.397 189.215ZM314.938 198.811C314.938 199.422 315.003 199.671 315.083 199.367C315.162 199.06 315.162 198.562 315.083 198.256C315.003 197.951 314.938 198.201 314.938 198.811ZM314.938 212.762C314.938 213.373 315.003 213.622 315.083 213.318C315.162 213.013 315.162 212.513 315.083 212.209C315.003 211.902 314.938 212.153 314.938 212.762ZM461.771 223.068C461.773 224.115 461.832 224.505 461.902 223.934C461.975 223.365 461.973 222.509 461.9 222.031C461.828 221.556 461.769 222.022 461.771 223.068ZM626.105 239.679C632.663 263.612 631.05 290.626 621.923 309.653C619.646 314.401 610.543 328.499 609.753 328.499C609.628 328.499 609.43 327.464 609.312 326.199C607.813 309.97 601.165 287.139 594.429 275.069C591.459 269.748 585.877 262.14 585.555 262.977C585.468 263.205 586.071 264.179 586.893 265.146C597.206 277.23 605.446 300.292 608.619 325.961L609.07 329.608L605.975 334.364C596.932 348.26 590.019 362.908 584.986 378.835C584.138 381.52 583.91 381.662 583.636 379.671C582.542 371.69 577.66 356.958 571.876 344.195C568.802 337.41 563.013 326.332 562.885 326.988C562.832 327.26 564.072 329.96 565.642 332.985C574.608 350.277 580.824 367.108 583.008 380.013L583.571 383.342L582.551 387.549C581.069 393.66 580.704 395.558 579.144 405.267C578.369 410.082 577.517 414.975 577.247 416.138C576.954 417.399 576.865 418.451 577.026 418.738C577.378 419.368 578.32 414.865 579.785 405.55C581.149 396.86 581.571 394.653 582.996 388.704L584.109 384.063L585.277 383.871C585.92 383.765 587.271 383.677 588.282 383.675C591.248 383.67 596.242 383.027 596.685 382.595C597.014 382.273 596.767 382.243 595.416 382.437C594.493 382.57 591.636 382.781 589.063 382.907L584.389 383.135L584.886 381.463C589.735 365.137 597.294 348.903 606.838 334.321L609.567 330.154L612.116 329.125C633.818 320.366 653.161 303.688 665.58 283.025C668.396 278.34 671.582 271.983 671.581 271.059C671.579 270.619 670.69 272.073 669.421 274.594C657.11 299.046 636.127 318.794 612.36 328.299L610.37 329.094L612 326.815C629.33 302.602 634.419 279.243 628.9 249.228C627.755 243.001 626.176 236.861 625.719 236.861C625.445 236.861 625.555 237.672 626.105 239.679ZM467.256 244.604C467.368 244.896 468.768 245.063 472.231 245.206C494.907 246.132 513.7 253.331 526.915 266.15C530.759 269.879 531.737 270.014 528.085 266.312C515.328 253.379 495.274 245.417 473.405 244.604C471.051 244.519 468.669 244.391 468.114 244.323C467.389 244.235 467.146 244.315 467.256 244.604ZM236.941 253.251C237.246 253.331 237.746 253.331 238.05 253.251C238.355 253.171 238.105 253.107 237.495 253.107C236.886 253.107 236.635 253.171 236.941 253.251ZM593.719 254.064L592.787 255.093L593.818 254.163C594.779 253.295 594.994 253.033 594.75 253.033C594.695 253.033 594.231 253.497 593.719 254.064ZM266.112 254.836C266.417 254.916 266.917 254.916 267.221 254.836C267.528 254.756 267.277 254.691 266.668 254.691C266.057 254.691 265.808 254.756 266.112 254.836ZM590.865 256.917L589.933 257.947L590.964 257.016C591.925 256.149 592.14 255.886 591.896 255.886C591.841 255.886 591.377 256.35 590.865 256.917ZM341.579 258.959C341.883 259.039 342.383 259.039 342.688 258.959C342.992 258.879 342.743 258.814 342.132 258.814C341.522 258.814 341.272 258.879 341.579 258.959ZM423.386 263.397C423.691 263.477 424.191 263.477 424.495 263.397C424.8 263.317 424.55 263.253 423.94 263.253C423.329 263.253 423.08 263.317 423.386 263.397ZM152.748 303.211C145.045 335.281 149.285 361.481 166.046 385.372C169.838 390.777 169.827 390.713 166.735 389.36C142.395 378.723 123.552 361.02 111.251 337.231C109.689 334.212 108.452 332.144 108.448 332.546C108.437 334.001 114.019 344.24 117.913 349.902C130.418 368.082 148.066 382.488 167.618 390.473L170.512 391.656L173.055 395.511C176.415 400.602 177.87 403.007 180.473 407.767C181.946 410.459 182.64 411.473 182.64 410.932C182.64 409.945 177.855 401.492 173.94 395.562C170.605 390.509 170.812 391.673 171.895 384.147C175.194 361.199 182.396 340.567 191.091 329.167C192.35 327.513 192.569 326.227 191.338 327.706C185.469 334.756 179.179 348.829 175.378 363.421C173.287 371.44 170.591 385.854 170.591 389.004C170.591 389.558 170.483 390.012 170.354 390.011C170.064 390.009 164.034 381.394 161.695 377.646C149.609 358.265 146.639 329.926 153.76 301.942C154.39 299.467 154.551 298.375 154.289 298.375C154.061 298.375 153.442 300.313 152.748 303.211ZM469.124 344.035C469.984 344.908 470.758 345.621 470.844 345.621C470.932 345.621 470.3 344.908 469.442 344.035C468.584 343.163 467.81 342.45 467.722 342.45C467.634 342.45 468.266 343.163 469.124 344.035ZM668.729 350.593C659.193 358.924 645.018 367.67 633.561 372.291C631.691 373.044 631.107 373.398 631.605 373.47C635.169 373.995 655.609 362.143 666.87 353.024C669.075 351.24 670.966 349.841 671.073 349.919C671.179 349.997 671.198 349.971 671.118 349.86C671.036 349.75 671.12 349.381 671.303 349.04C671.891 347.943 671.476 348.192 668.729 350.593ZM436.112 350.663C434.832 351.445 433.926 352.741 433.466 354.455C432.999 356.186 433.22 356.525 433.722 354.849C434.346 352.769 437.653 350.576 439.243 351.184C439.54 351.299 439.774 351.125 439.881 350.713C440.117 349.815 437.558 349.782 436.112 350.663ZM441.589 351.15C441.475 351.449 441.884 351.881 442.773 352.4C445.046 353.734 446.916 356.043 448.252 359.171C448.866 360.607 448.994 360.765 448.849 359.909C448.195 356.04 442.398 349.044 441.589 351.15ZM481.966 356.561C482.913 357.52 483.76 358.304 483.848 358.304C483.935 358.304 483.231 357.52 482.284 356.561C481.336 355.6 480.49 354.816 480.402 354.816C480.317 354.816 481.019 355.6 481.966 356.561ZM397.32 366.073C397.32 367.434 398.958 369.935 413.204 390.33C421.307 401.926 438.551 426.611 451.524 445.185C464.499 463.757 476.749 481.308 478.747 484.186C483.962 491.699 484.833 492.468 488.172 492.498C490.714 492.521 489.966 493.052 523.981 467.117C558.205 441.022 557.566 441.532 558.424 439.645C559.312 437.687 559.112 437.219 558.138 438.979C557.259 440.568 555.146 442.23 521.443 467.838C518.827 469.824 514.048 473.462 510.821 475.918C484.493 495.963 487.573 495.634 476.399 479.588C473.121 474.879 465.353 463.75 459.14 454.855C452.924 445.961 444.504 433.905 440.425 428.062C436.346 422.22 426.929 408.737 419.496 398.098C412.064 387.459 404.298 376.345 402.242 373.396C400.183 370.449 398.235 367.453 397.91 366.737C397.541 365.927 397.32 365.678 397.32 366.073ZM494.968 369.243C495.559 369.854 496.115 370.354 496.201 370.354C496.288 370.354 495.875 369.854 495.284 369.243C494.692 368.632 494.136 368.134 494.051 368.134C493.963 368.134 494.376 368.632 494.968 369.243ZM473.78 377.538C471.793 378.929 471.814 378.044 473.542 388.057C474.314 392.533 476.249 403.828 477.84 413.16C479.432 422.49 480.878 430.874 481.057 431.791L481.378 433.458L483.096 432.267C484.04 431.611 484.814 430.945 484.816 430.785C484.818 430.625 484.04 425.916 483.089 420.321C482.135 414.726 480.347 404.226 479.116 396.989C476.656 382.515 475.608 376.575 475.496 376.461C475.456 376.421 474.683 376.904 473.78 377.538ZM457.234 389.531C451.229 391.466 449.81 399.068 453.919 407.293C458.78 417.022 466.83 420.498 471.696 414.968C478.766 406.937 467.068 386.365 457.234 389.531ZM488.311 392.332C487.702 392.526 486.467 393.403 485.566 394.282C477.164 402.476 490.594 424.575 500.875 419.473C511.74 414.079 499.956 388.624 488.311 392.332ZM519.065 392.647C519.065 392.703 519.529 393.167 520.096 393.679L521.127 394.611L520.195 393.58C519.327 392.619 519.065 392.404 519.065 392.647ZM460.692 395.863C466.251 398.737 470.766 411.258 466.244 411.258C461.299 411.258 454.475 397.385 458.603 395.722C459.564 395.334 459.686 395.343 460.692 395.863ZM492.652 398.878C495.211 400.438 499.345 407.392 499.64 410.632C500.068 415.365 496.17 415.135 492.546 410.213C487.417 403.246 487.487 395.728 492.652 398.878ZM533.176 406.501C534.034 407.373 534.808 408.086 534.895 408.086C534.983 408.086 534.351 407.373 533.493 406.501C532.633 405.628 531.859 404.915 531.773 404.915C531.686 404.915 532.318 405.628 533.176 406.501ZM108.688 410.278C110.128 414.165 133.434 429.181 145.834 434.211C150.419 436.072 149.498 435.022 144.748 432.975C132.827 427.836 121.927 421.025 111.384 412.127C109.734 410.735 108.559 409.928 108.688 410.278ZM545.86 418.868C546.718 419.739 547.492 420.453 547.579 420.453C547.667 420.453 547.035 419.739 546.175 418.868C545.317 417.994 544.543 417.281 544.456 417.281C544.368 417.281 545 417.994 545.86 418.868ZM522.952 429.096C497.26 445.839 488.688 451.423 485.079 453.765C479.46 457.41 478.344 459.29 480.242 461.887C482.377 464.805 483.049 464.621 492.299 458.592C496.294 455.987 505.772 449.816 513.357 444.877C532.611 432.341 532.538 432.391 533.008 431.253C534.142 428.519 532.441 425.523 529.763 425.528C528.591 425.532 527.725 425.985 522.952 429.096ZM109.489 507.016C109.489 507.975 109.548 508.367 109.62 507.888C109.694 507.408 109.694 506.624 109.62 506.145C109.548 505.665 109.489 506.057 109.489 507.016ZM287.753 541.693C287.23 542.247 286.18 543.198 285.421 543.805C283.273 545.519 281.669 547.094 282.302 546.864C282.763 546.699 282.858 546.799 282.778 547.368C282.715 547.825 282.829 548.047 283.1 547.992C283.33 547.943 283.45 548.017 283.366 548.154C283.28 548.291 283.414 548.677 283.659 549.014C283.904 549.351 284.106 549.522 284.106 549.394C284.106 549.267 284.306 549.347 284.549 549.571C284.793 549.798 284.937 550.072 284.869 550.182C284.802 550.294 285.139 550.458 285.617 550.549C286.602 550.739 288.229 549.925 288.229 549.244C288.229 548.767 289.806 547.395 290.204 547.524C290.339 547.568 290.449 547.389 290.449 547.127C290.449 546.866 290.592 546.651 290.765 546.651C290.94 546.651 291.082 546.818 291.082 547.022C291.082 547.568 291.433 547.121 291.535 546.444C291.598 546.031 291.847 545.886 292.384 545.951L293.143 546.044L292.351 545.413C291.916 545.066 291.558 544.537 291.556 544.237C291.556 543.936 291.341 543.634 291.081 543.561C290.662 543.447 290.662 543.474 291.082 543.797C291.505 544.123 291.505 544.149 291.082 544.033C290.82 543.963 290.607 543.624 290.607 543.284C290.607 542.943 290.179 542.218 289.656 541.674L288.704 540.683L287.753 541.693ZM292.974 550.336C292.544 550.916 292.076 551.394 291.931 551.4C291.552 551.411 290.765 552.258 290.765 552.653C290.765 552.84 290.457 552.994 290.08 552.994C289.053 552.994 287.532 554.82 287.936 555.574C288.109 555.899 288.495 556.165 288.796 556.169C289.195 556.173 289.231 556.242 288.933 556.432C288.619 556.632 288.676 556.877 289.186 557.526C289.547 557.984 289.8 558.414 289.749 558.477C289.697 558.54 289.89 559.08 290.177 559.677C290.464 560.273 290.835 561.12 291.003 561.555C291.17 561.991 291.64 563.06 292.047 563.933C292.454 564.805 292.814 565.625 292.846 565.756C292.878 565.887 292.941 566.064 292.985 566.152C293.029 566.239 293.093 566.418 293.13 566.549C293.168 566.679 293.364 567.188 293.567 567.679C293.771 568.17 293.944 568.741 293.953 568.948C293.963 569.154 294.366 570.301 294.849 571.496L295.73 573.668L296.278 570.545C296.849 567.278 297.053 561.677 296.708 558.701C296.295 555.149 296.214 554.758 295.871 554.643C295.679 554.579 295.523 554.288 295.527 553.997C295.531 553.536 295.574 553.53 295.873 553.945C296.149 554.328 296.174 554.297 295.997 553.785C295.734 553.028 295.578 552.343 295.546 551.805C295.532 551.586 295.272 551.396 294.967 551.383C294.634 551.367 294.572 551.293 294.808 551.198C295.026 551.11 295.205 550.899 295.205 550.728C295.205 550.559 295.076 550.5 294.918 550.597C294.758 550.694 294.699 550.509 294.785 550.184C295.074 549.073 293.834 549.178 292.974 550.336ZM285.579 550.993C285.466 551.105 285.752 551.851 286.21 552.65C287.344 554.624 287.612 554.872 287.529 553.867C287.491 553.403 287.395 553.087 287.317 553.163C287.078 553.405 286.322 552.621 286.507 552.322C286.602 552.168 286.515 552.043 286.311 552.043C286.107 552.043 286.022 551.833 286.121 551.577C286.311 551.08 285.915 550.656 285.579 550.993ZM127.468 553.409C127.468 553.464 127.932 553.928 128.499 554.44L129.528 555.372L128.598 554.341C127.73 553.38 127.468 553.165 127.468 553.409ZM206.345 554.17C206.741 554.244 207.312 554.242 207.614 554.162C207.917 554.082 207.595 554.021 206.897 554.025C206.199 554.029 205.951 554.094 206.345 554.17ZM441.216 587.555C441.216 606.129 441.254 613.727 441.3 604.439C441.348 595.153 441.348 579.958 441.3 570.67C441.254 561.384 441.216 568.983 441.216 587.555ZM439.616 555.61L438.684 556.639L439.715 555.709C440.676 554.841 440.891 554.579 440.648 554.579C440.592 554.579 440.128 555.043 439.616 555.61ZM134.891 577.251C134.891 580.39 134.939 581.63 134.998 580.009C135.055 578.387 135.055 575.818 134.996 574.302C134.939 572.784 134.891 574.112 134.891 577.251ZM420.928 573.672C412.15 574.034 413 573.202 413 581.41C413 589.149 412.928 588.987 416.33 588.7C417.464 588.605 420.78 588.432 423.7 588.316C430.697 588.038 430.102 588.698 430.222 581.086L430.319 574.88L429.522 574.083C429.084 573.646 428.54 573.309 428.316 573.336C428.089 573.362 424.765 573.514 420.928 573.672ZM382.085 575.057C356.595 576.018 344.469 576.463 343.82 576.461C342.239 576.454 342.132 576.939 342.132 584.225C342.132 591.118 342.279 591.995 343.432 591.995C343.717 591.995 365.094 591.01 388.11 589.937C393.778 589.672 398.869 589.455 399.422 589.457C401.351 589.459 401.427 589.174 401.427 581.889C401.427 577.199 401.319 575.208 401.047 574.936C400.581 574.469 397.048 574.492 382.085 575.057ZM141.211 588.03C141.211 589.427 141.268 589.958 141.335 589.212C141.401 588.466 141.401 587.325 141.333 586.676C141.264 586.025 141.209 586.636 141.211 588.03ZM418.746 604.384C412.799 604.691 413.035 604.495 412.896 609.219C412.803 612.382 412.862 612.875 413.411 613.554L414.032 614.321L421.419 613.92C430.872 613.408 430.463 613.688 430.235 607.913C430.066 603.606 430.602 603.772 418.746 604.384ZM393.817 605.53C392.684 605.583 385.264 605.916 377.329 606.27C347.212 607.613 342.992 607.847 342.562 608.205C342.239 608.473 342.132 609.648 342.132 612.938C342.132 618.6 342.012 618.459 346.552 618.185C348.395 618.073 356.18 617.63 363.853 617.2C393.228 615.55 400.296 615.09 400.853 614.793C401.563 614.412 401.734 606.38 401.047 605.693C400.68 605.326 399.015 605.288 393.817 605.53ZM143.125 614.35C143.127 616.442 143.178 617.257 143.239 616.159C143.302 615.063 143.302 613.351 143.239 612.354C143.176 611.359 143.125 612.257 143.125 614.35ZM420.78 616.614C415.531 616.948 413.86 617.16 413.486 617.532C412.675 618.343 412.601 625.238 413.394 626.217L413.995 626.959L421.427 626.535C430.871 625.995 430.382 626.312 430.229 620.81C430.115 616.714 429.826 616.031 428.239 616.136C427.88 616.159 424.524 616.374 420.78 616.614ZM387.317 618.476C380.515 618.872 367.888 619.583 359.255 620.059C340.218 621.105 342.132 620.415 342.132 626.24C342.132 631.853 341.948 631.674 347.364 631.293C349.457 631.147 357.092 630.656 364.329 630.201C392.181 628.457 400.56 627.833 400.992 627.475C402.365 626.335 401.317 617.376 399.85 617.717C399.759 617.738 394.118 618.08 387.317 618.476ZM141.223 635.277C141.224 637.37 141.276 638.184 141.337 637.086C141.4 635.991 141.4 634.278 141.337 633.281C141.274 632.286 141.223 633.184 141.223 635.277ZM143.125 662.546C143.127 664.638 143.178 665.453 143.239 664.357C143.302 663.259 143.302 661.547 143.239 660.552C143.176 659.555 143.125 660.453 143.125 662.546ZM289.814 660.961C290.405 661.572 290.961 662.07 291.048 662.07C291.136 662.07 290.723 661.572 290.131 660.961C289.54 660.35 288.984 659.85 288.897 659.85C288.809 659.85 289.222 660.35 289.814 660.961ZM291.4 662.487C291.4 662.542 291.863 663.004 292.429 663.516L293.461 664.448L292.528 663.417C291.661 662.456 291.4 662.241 291.4 662.487ZM184.472 672.766C185.218 672.832 186.359 672.832 187.008 672.764C187.657 672.695 187.048 672.642 185.652 672.642C184.257 672.644 183.726 672.699 184.472 672.766ZM202.061 672.76C202.54 672.834 203.326 672.834 203.805 672.76C204.285 672.688 203.893 672.629 202.934 672.629C201.973 672.629 201.581 672.688 202.061 672.76Z" fill="#EBD3CB"/>
<path fill-rule="evenodd" clip-rule="evenodd" d="M211.335 255.496C205.057 257.167 199.896 258.546 199.863 258.563C199.808 258.59 197.949 275.105 191.352 334.206C185.494 386.664 179.472 440.44 178.213 451.526C177.511 457.719 176.934 463.152 176.934 463.605L176.933 464.427L182.56 464.632C191.239 464.95 218.359 466.057 230.36 466.582C236.291 466.843 249.989 467.416 260.8 467.853C271.614 468.293 285.383 468.865 291.4 469.126C297.416 469.387 307.689 469.817 314.23 470.081C339.941 471.12 357.362 471.837 367.976 472.29C385.724 473.047 393.133 473.352 407.135 473.903C422.956 474.527 423.506 474.634 425.443 477.507C427.165 480.062 427.111 478.755 427.111 518.844C427.111 550.414 427.176 555.871 427.551 555.56C427.903 555.267 428.599 555.77 431.03 558.058C434.733 561.542 433.917 561.624 437.963 557.366L441.363 553.785L441.371 587.481L441.38 621.174L442.569 621.012C443.224 620.923 448.895 620.417 455.173 619.886C461.451 619.355 470.298 618.602 474.832 618.212L483.077 617.502L483.157 577.335L483.237 537.167L484.266 537.011C484.833 536.925 489.934 536.775 495.601 536.676C530.368 536.071 528.906 536.155 523.623 535.08C513.312 532.985 510.505 529.848 510.899 520.863C511.253 512.781 513.898 509.902 521.312 509.529C528.568 509.164 531.104 507.414 533.453 501.151C534.572 498.166 535.325 497.005 536.57 496.349C541.756 493.617 552.265 501.364 557.562 511.826L559.105 514.872L560.604 513.07C566.867 505.544 573.695 503.483 580.85 506.961C584.8 508.881 585.797 511.352 584.536 516.108C583.198 521.154 583.885 523.106 588.032 526.041C592.33 529.085 592.496 532.58 588.517 536.347L587.511 537.298L598.076 537.624C609.713 537.983 609.934 538.023 611.391 540.067L612.129 541.103L612.213 573.684C612.282 600.671 612.369 606.264 612.721 606.264C613.334 606.264 630.77 604.689 631.181 604.597C631.388 604.55 630.492 601.005 628.913 595.64C627.477 590.759 621.922 571.852 616.568 553.628C611.216 535.403 606.477 519.28 606.038 517.798C605.6 516.314 605.06 514.459 604.837 513.675C604.616 512.889 594.566 478.646 582.502 437.575C570.44 396.504 554.421 341.927 546.906 316.291C539.391 290.654 533.155 269.59 533.05 269.48C532.869 269.291 528.507 269.034 493.223 267.138C485.375 266.717 477.84 266.308 476.477 266.23L474.002 266.089L474.219 267.092C474.617 268.916 474.961 269.521 475.606 269.521C484.651 269.521 488.962 284.374 481.953 291.383C470.894 302.442 455.114 285.643 465.074 273.414C466.67 271.454 466.645 271.687 465.627 268.351C464.657 265.169 466.533 265.61 450.417 264.775C443.267 264.404 434.991 263.966 432.025 263.801C429.061 263.635 417.361 263.002 406.026 262.389C394.689 261.778 380.135 260.993 373.683 260.644C367.23 260.294 356.742 259.729 350.378 259.385C344.012 259.041 334.414 258.519 329.049 258.226C323.684 257.931 319.217 257.77 319.12 257.867C318.648 258.339 321.066 271.106 321.627 271.106C322.152 271.106 324.306 272.282 325.645 273.296C326.254 273.76 327.325 274.327 328.023 274.557C328.72 274.788 331.503 276.167 334.207 277.624C342.99 282.361 349.415 285.314 373.788 295.816C421.895 316.544 435.041 324.39 440.476 335.616C441.148 337.001 441.698 338.337 441.698 338.582C441.698 338.83 441.875 338.959 442.093 338.871C442.312 338.784 445.149 337.555 448.396 336.141C457.778 332.06 456.558 331.57 470.308 344.978C475.935 350.467 491.954 366.079 505.907 379.672C556.809 429.267 557.729 430.18 558.494 431.868C559.464 434.006 559.346 437.689 558.235 439.959C557.45 441.568 556.692 442.2 544.18 451.73C536.906 457.268 526.532 465.175 521.127 469.301C487.158 495.221 490.259 493.132 486.81 492.416C484.209 491.876 483.168 490.622 471.953 474.516C462.096 460.357 427.458 410.738 407.675 382.435C397.343 367.652 397.322 367.616 397.312 364.449C397.293 358.461 397.392 358.383 414.022 351.137C420.253 348.422 425.584 346.078 425.865 345.926C427.437 345.085 419.324 331.904 413.526 325.879C401.264 313.136 389.628 308.802 356.719 304.722C339.724 302.612 331.075 300.454 324.192 296.605C322.24 295.513 322.057 295.472 320.735 295.805C312.189 297.956 304.082 288.661 306.776 279.797C307.2 278.395 307.197 278.024 306.721 276.055C305.817 272.301 307.117 270.191 310.505 269.91L312.198 269.771L311.2 263.614C310.65 260.23 310.14 257.399 310.066 257.325C309.991 257.25 305.796 256.963 300.743 256.689C295.692 256.413 285.137 255.833 277.289 255.397C269.442 254.964 256.314 254.254 248.118 253.82C239.921 253.386 230.931 252.89 228.142 252.717C225.351 252.544 222.996 252.414 222.91 252.431C222.823 252.447 217.614 253.826 211.335 255.496ZM309.103 271.909C308.14 272.43 307.762 273.667 308.142 275.05L308.399 275.982L309.263 274.848C309.738 274.224 310.693 273.323 311.386 272.843C312.079 272.364 312.644 271.848 312.644 271.698C312.644 271.253 310.022 271.409 309.103 271.909ZM328.642 276.996C331.275 283.341 329.886 290.299 325.345 293.512C323.676 294.693 323.598 294.577 327.15 296.236C334.374 299.61 341.299 301.179 358.304 303.302C386.537 306.824 397.056 310.151 408.687 319.234C416.332 325.202 425.091 336.929 427.241 344.077L427.589 345.228L433.93 342.444C440.96 339.357 440.589 339.739 439.322 336.878C434.757 326.555 420.983 317.999 381.293 300.827C376.235 298.639 368.387 295.251 363.853 293.297C349.147 286.956 342.231 283.71 332.804 278.724C329.534 276.994 328.455 276.545 328.642 276.996ZM436.12 351.928C428.584 356.523 438.016 372.683 446.018 368.887C451.357 366.353 449.121 355.937 442.438 352.202L441.449 351.651L440.296 354.076C438.117 358.663 435.391 361.964 434.51 361.083C434.044 360.617 434.095 360.461 435.117 359.202C436.624 357.347 438.424 354.474 439.164 352.748L439.772 351.329H438.435C437.687 351.331 436.669 351.593 436.12 351.928ZM171.225 564.915C153.629 565.874 144.09 567.029 138.437 568.884C134.838 570.065 134.996 569.698 135.047 576.804L135.089 582.958L135.89 583.666C136.329 584.056 137.752 584.686 139.054 585.063L141.419 585.751V588.202V590.654L139.596 590.88C136.712 591.238 131.874 592.591 130.401 593.453L129.052 594.24V600.362C129.052 607.103 128.984 606.858 131.185 607.974C132.332 608.555 137.524 609.829 141.023 610.39L143.321 610.76V614.7V618.64L144.352 619.271C144.919 619.62 146.131 620.143 147.048 620.436L148.713 620.965V624.383V627.8L147.364 628.147C141.47 629.665 141.337 629.813 141.398 634.826L141.445 638.789L139.134 639.183C133.39 640.159 129.507 641.584 129.201 642.83C129.107 643.211 129.071 646.083 129.121 649.217L129.212 654.911L130.291 655.638C131.841 656.682 140.521 658.899 143.06 658.899C143.203 658.899 143.321 660.674 143.321 662.841V666.782L144.225 667.426C154.325 674.617 236.987 674.265 244.252 666.999C245.074 666.178 245.057 654.793 244.233 654.072C242.837 652.849 238.594 651.576 232.818 650.649L230.52 650.28V648.587C230.52 646.721 230.496 646.742 233.056 646.374C235.862 645.971 240.529 644.592 241.697 643.821L242.886 643.035V638.614V634.191L244.233 633.848C250.285 632.311 250.211 632.423 250.106 624.973L250.021 618.857L249.18 618.229C248.72 617.884 247.578 617.344 246.644 617.028L244.947 616.454L244.871 611.755C244.77 605.661 244.84 605.88 242.654 604.909C240.914 604.135 235.256 602.752 232.025 602.309L230.52 602.103V600.383C230.52 598.856 230.598 598.65 231.234 598.523C239.987 596.77 242.188 595.956 242.746 594.265L243.081 593.247L244.096 595.555C254.258 618.676 295.114 671.651 300.371 668.521C302.76 667.1 310.079 661.577 310.205 661.102C312.305 653.064 273.195 595.513 256.299 581.779C252.009 578.293 252.161 578.292 247.201 581.847C242.609 585.141 242.886 585.028 242.886 583.588C242.886 582.247 241.977 581.581 238.684 580.514L236.544 579.821V575.308C236.544 570.813 236.542 570.794 235.71 570.139C233.264 568.216 223.211 566.426 208.799 565.347C204.485 565.025 175.363 564.691 171.225 564.915Z" fill="#F1A643"/>
<path fill-rule="evenodd" clip-rule="evenodd" d="M614.665 371.435C605.258 373.577 595.745 381.655 588.812 393.391C581.716 405.406 580.105 414.95 582.741 429.331C584.111 436.799 584.385 438.819 584.385 441.462C584.385 443.412 602.019 505.43 605.242 514.817L605.471 515.48L608.482 514.78C648.992 505.359 671.166 479.738 670.222 443.444C669.208 404.54 639.337 365.82 614.665 371.435ZM157.059 463.909C154.354 464.438 152.297 466.112 151.045 468.801L150.303 470.393L150.301 518.395L150.298 566.399L152.12 566.184C170.685 564 204.458 564.112 221.008 566.412L223.702 566.787L227.474 559.97C229.548 556.221 237.875 541.166 245.978 526.517C254.083 511.868 261.052 499.288 261.468 498.562C264.063 494.022 270.948 495.632 270.948 500.778C270.948 502.321 270.513 503.219 263.766 515.577C259.815 522.815 255.974 529.879 255.23 531.273C254.486 532.668 252.315 536.663 250.409 540.152C234.439 569.357 234.508 569.224 235.044 569.523C236.467 570.32 236.544 570.613 236.544 575.306V579.819L238.859 580.498C241.783 581.36 242.818 582.146 242.947 583.603L243.044 584.709L247.007 581.861C249.188 580.295 251.149 579.009 251.368 579.003C251.853 578.992 251.88 579.229 251.107 576.775C245.483 558.88 254.547 538.83 269.548 535.984C283.653 533.307 294.572 541.904 296.792 557.432C297.174 560.109 297.361 561.352 297.399 561.491C297.412 561.542 297.945 561.08 298.582 560.459C299.22 559.841 299.878 559.335 300.043 559.335C300.209 559.335 300.26 559.114 300.157 558.842C300.051 558.568 300.102 558.433 300.273 558.54C300.808 558.871 304.335 556.065 304.153 555.45C304.115 555.321 304.297 555.212 304.558 555.212C304.82 555.212 305.034 555.07 305.034 554.896C305.034 554.721 305.176 554.579 305.349 554.579C305.65 554.579 306.122 554.212 308.291 552.281C308.829 551.801 309.404 551.407 309.565 551.407C309.725 551.407 309.778 551.202 309.681 550.949C309.563 550.641 309.659 550.547 309.965 550.665C310.248 550.774 310.425 550.646 310.425 550.332C310.425 550.053 310.619 549.822 310.857 549.822C311.418 549.822 313.777 547.933 313.675 547.568C313.631 547.412 313.703 547.286 313.833 547.285C314.228 547.285 315.979 545.652 315.899 545.361C315.857 545.211 316.041 545.173 316.31 545.275C316.608 545.392 317.128 545.104 317.653 544.535C318.631 543.478 321.325 541.261 321.637 541.261C321.749 541.261 322.542 540.548 323.395 539.676C324.249 538.803 325.038 538.09 325.151 538.09C325.392 538.09 325.676 537.865 327.532 536.193C328.311 535.493 329.075 534.92 329.231 534.92C329.389 534.92 329.433 534.698 329.328 534.427C329.224 534.153 329.275 534.018 329.445 534.123C329.983 534.456 333.255 531.851 333.255 531.09C333.255 530.929 333.468 530.797 333.731 530.797C333.992 530.797 334.206 530.655 334.206 530.48C334.206 530.307 334.355 530.164 334.536 530.164C334.922 530.164 335.373 529.808 337.051 528.182C337.726 527.527 338.447 526.992 338.655 526.992C338.864 526.992 338.946 526.774 338.841 526.5C338.733 526.218 338.786 526.091 338.965 526.201C339.324 526.424 342.966 523.551 342.846 523.142C342.802 522.992 342.956 522.87 343.186 522.87C343.645 522.87 345.178 521.262 345.064 520.901C345.026 520.775 345.188 520.749 345.424 520.838C345.66 520.929 346.265 520.6 346.769 520.105C347.916 518.979 350.541 516.846 350.781 516.846C350.878 516.846 351.67 516.133 352.537 515.26C353.405 514.388 354.206 513.675 354.32 513.675C354.565 513.675 354.845 513.452 356.705 511.776C357.482 511.076 358.246 510.504 358.402 510.504C358.56 510.504 358.604 510.283 358.5 510.013C358.395 509.739 358.446 509.604 358.616 509.708C359.026 509.961 360.25 509.126 362.164 507.281C363.039 506.438 363.819 505.747 363.897 505.747C364.093 505.747 364.785 505.157 366.222 503.767C366.897 503.112 367.531 502.578 367.628 502.578C367.725 502.578 368.2 502.222 368.684 501.786C370.344 500.289 371.463 499.406 371.701 499.406C371.832 499.406 371.939 499.226 371.939 499.007C371.939 498.786 372.26 498.463 372.652 498.289C373.044 498.114 373.349 497.743 373.328 497.462C373.301 497.099 373.476 497 373.936 497.119C374.433 497.249 374.538 497.171 374.387 496.779C374.258 496.442 374.33 496.32 374.597 496.423C374.821 496.509 375.732 495.896 376.625 495.061C378.506 493.295 379.585 492.43 379.905 492.43C380.028 492.43 380.841 491.716 381.708 490.845C382.576 489.974 383.378 489.26 383.491 489.26C383.736 489.26 384.016 489.036 385.876 487.362C386.653 486.661 387.417 486.089 387.575 486.089C387.731 486.089 387.781 485.881 387.684 485.628C387.574 485.341 387.661 485.229 387.916 485.326C388.142 485.413 388.508 485.263 388.732 484.993C388.957 484.725 389.248 484.504 389.379 484.504C389.51 484.504 390.52 483.648 391.624 482.601C392.727 481.555 393.738 480.699 393.869 480.699C394.002 480.699 394.676 480.128 395.366 479.43C396.057 478.732 396.776 478.161 396.964 478.161C397.151 478.161 397.305 478.039 397.305 477.891C397.305 477.742 398.138 476.966 399.156 476.167C401.477 474.345 401.523 473.873 399.394 473.77C390.224 473.329 368.027 472.355 355.134 471.83C346.325 471.47 335.767 471.034 331.669 470.861C321.709 470.439 274.795 468.496 255.411 467.701C246.865 467.349 234.879 466.853 228.776 466.596C222.672 466.339 210.614 465.842 201.983 465.492C193.349 465.144 184.788 464.785 182.958 464.693C181.126 464.604 175.776 464.387 171.067 464.214C166.358 464.039 161.577 463.841 160.444 463.774C159.31 463.706 157.788 463.767 157.059 463.909ZM426.948 517.798C426.948 537.416 426.986 545.443 427.031 535.634C427.079 525.822 427.079 509.771 427.031 499.962C426.986 490.151 426.948 498.177 426.948 517.798ZM214.039 492.38C229.681 496.68 237.887 513.806 233.205 532.382C226.371 559.489 190.522 562.092 181.025 536.17C173.712 516.203 183.471 495.166 201.665 491.68C203.722 491.286 211.701 491.737 214.039 492.38ZM204.831 504.965C195.17 507.945 194.479 535.405 203.946 540.124C210.681 543.478 216.061 538.095 217.233 526.835C218.772 512.029 213.287 502.357 204.831 504.965ZM527.548 536.418C528.115 536.488 529.041 536.488 529.608 536.418C530.175 536.347 529.711 536.29 528.577 536.29C527.443 536.29 526.981 536.347 527.548 536.418ZM493.381 536.813C489.087 536.914 486.753 537.07 487.516 537.205C490.175 537.673 499.886 537.833 510.612 537.586L521.761 537.327L515.895 536.943C509.855 536.547 505.696 536.524 493.381 536.813ZM586.2 538.031L585.336 538.554V557.446C585.336 577.759 585.333 577.726 586.946 577.726C587.121 577.726 587.568 578.008 587.939 578.354C588.31 578.701 589.233 579.218 589.988 579.507C590.743 579.796 591.36 580.154 591.36 580.306C591.36 580.457 591.575 580.58 591.835 580.58C592.098 580.58 592.311 580.719 592.311 580.89C592.311 581.062 592.669 581.292 593.104 581.4C593.54 581.511 593.898 581.716 593.898 581.857C593.898 582 594.396 582.281 595.007 582.483C595.618 582.684 596.116 582.979 596.116 583.141C596.116 583.301 596.32 583.434 596.565 583.434C596.812 583.434 597.063 583.544 597.121 583.681C597.18 583.818 598.047 584.34 599.05 584.844C600.052 585.346 600.872 585.877 600.872 586.021C600.872 586.168 601.087 586.288 601.348 586.288C601.61 586.288 601.824 586.409 601.824 586.562C601.824 586.712 602.503 587.092 603.33 587.406C604.158 587.72 605.069 588.24 605.351 588.561C605.634 588.883 606.313 589.301 606.858 589.492C607.404 589.682 607.849 589.965 607.849 590.123C607.849 590.281 608.062 590.409 608.324 590.409C608.585 590.409 608.8 590.549 608.8 590.721C608.8 590.892 609.158 591.12 609.593 591.23C610.029 591.339 610.385 591.542 610.385 591.681C610.385 591.82 610.813 592.081 611.336 592.263L612.287 592.596V567.394C612.287 539.829 612.369 541.048 610.402 539.201L609.388 538.25H598.974C593.247 538.25 588.455 538.143 588.325 538.014C588.196 537.884 587.871 537.957 587.602 538.172C587.262 538.447 587.184 538.453 587.342 538.193C587.718 537.563 587.112 537.477 586.2 538.031ZM564.409 538.09C562.742 538.349 562.638 538.333 568.372 538.704C570.813 538.862 573.739 538.891 574.873 538.769L576.933 538.544L574.464 538.16C571.857 537.751 566.806 537.717 564.409 538.09ZM525.724 538.687C521.901 538.893 535.147 539.692 542.212 539.682L544.908 539.678L543.873 540.308C541.482 541.767 541.581 540.89 541.579 560.773V578.541L542.53 579.102C543.053 579.412 543.481 579.871 543.481 580.122C543.481 580.399 543.793 580.58 544.273 580.58C544.71 580.58 545.066 580.723 545.066 580.896C545.066 581.071 545.426 581.214 545.865 581.214C546.417 581.214 546.78 581.467 547.035 582.028C547.3 582.606 547.583 582.795 548.015 582.682C548.437 582.572 548.675 582.719 548.791 583.162C548.907 583.607 549.145 583.754 549.568 583.641C549.916 583.552 550.251 583.668 550.344 583.913C550.435 584.151 550.711 584.267 550.958 584.172C551.259 584.056 551.407 584.222 551.407 584.674C551.407 585.234 551.54 585.314 552.201 585.148C552.815 584.994 552.994 585.072 552.994 585.494C552.994 585.837 553.161 585.974 553.449 585.863C553.7 585.766 554.234 585.945 554.638 586.261C555.041 586.577 555.692 586.935 556.086 587.058C556.477 587.18 556.799 587.538 556.799 587.85C556.799 588.285 556.984 588.382 557.59 588.266C558.028 588.185 558.384 588.261 558.384 588.439C558.384 588.616 558.825 588.915 559.364 589.103C559.902 589.29 560.418 589.733 560.509 590.085C560.617 590.5 560.941 590.726 561.424 590.726C561.997 590.726 562.238 590.968 562.459 591.757C562.643 592.423 562.761 588.274 562.792 579.996L562.839 567.208L561.959 566.171C560.381 564.312 560.132 563.947 559.788 562.982C559.601 562.459 559.293 562.061 559.105 562.099C558.916 562.137 558.677 561.949 558.574 561.683C558.336 561.062 559.27 561.321 561.106 562.389C561.82 562.801 562.497 563.14 562.613 563.14C562.729 563.14 562.822 557.88 562.822 551.451V539.762L559.573 539.549C557.784 539.431 554.183 539.193 551.567 539.022C545.538 538.624 530.503 538.428 525.724 538.687ZM271.886 548.198C263.82 551.862 262.969 576.591 270.771 580.571C276.384 583.434 281.091 578.615 282.223 568.847C283.872 554.6 279.042 544.948 271.886 548.198ZM295.22 575.248C292.173 587.142 277.634 596.569 267.741 593.064C267.343 592.924 267.524 593.266 268.285 594.088C268.913 594.767 270.971 597.231 272.857 599.563L276.287 603.802L280.752 603.587C283.208 603.469 291.766 603.024 299.771 602.598C307.775 602.172 314.946 601.824 315.705 601.824C317.626 601.824 317.685 600.693 315.815 599.643C307.76 595.115 301.008 586.811 296.642 576.058L295.643 573.598L295.22 575.248ZM242.896 594.086C242.869 595.72 238.897 597.326 232.025 598.483L230.836 598.683L230.838 600.332V601.983L235.832 602.971C238.577 603.515 241.538 604.28 242.411 604.672C243.828 605.307 248.364 605.648 248.857 605.155C248.917 605.094 248.466 604.141 247.852 603.037C247.239 601.934 245.875 599.32 244.821 597.227C243.769 595.134 242.902 593.721 242.896 594.086ZM315.657 634.01C315.482 634.069 311.843 634.278 307.571 634.472C303.298 634.666 299.423 634.9 298.961 634.992L298.12 635.155L300.802 639.655C302.277 642.13 304.56 646.275 305.874 648.869L308.262 653.581L309.581 653.376C315.511 652.459 317.084 649.702 317.084 640.233C317.084 633.474 317.092 633.513 315.657 634.01ZM262.863 637.046C260.682 637.185 256.116 637.454 252.715 637.642C249.315 637.832 245.712 638.068 244.709 638.169L242.886 638.352V640.65C242.886 644.061 240.839 645.197 232.025 646.679L230.836 646.879V648.589V650.299L232.343 650.505C240.832 651.669 244.789 653.362 244.789 655.83V657.156L251.21 656.787C254.741 656.583 263.196 656.109 269.997 655.731C276.799 655.352 282.769 654.947 283.265 654.831L284.167 654.618L281.517 651.448C278.595 647.952 272.328 640.01 270.905 638C269.868 636.535 270.233 636.578 262.863 637.046ZM323.345 652.464C323.739 652.54 324.38 652.54 324.772 652.464C325.166 652.388 324.844 652.327 324.059 652.327C323.275 652.327 322.953 652.388 323.345 652.464Z" fill="#A075ED"/>
<path fill-rule="evenodd" clip-rule="evenodd" d="M153.393 464.689C151.711 465.308 149.601 466.828 148.597 468.146C146.704 470.625 146.81 467.608 146.81 519.462V567.025L147.801 566.827C148.346 566.717 149.129 566.627 149.544 566.627H150.298L150.301 518.511L150.303 470.393L151.072 468.808C152.031 466.832 152.662 466.074 154.226 465.032C155.569 464.138 155.254 464.006 153.393 464.689ZM400.794 474.2C401.057 474.516 400.689 474.961 399.221 476.116C398.167 476.943 397.305 477.742 397.305 477.891C397.305 478.039 397.151 478.161 396.964 478.161C396.776 478.161 396.057 478.732 395.366 479.43C394.676 480.128 394.002 480.699 393.869 480.699C393.738 480.699 392.727 481.555 391.624 482.601C390.521 483.648 389.51 484.504 389.379 484.504C389.248 484.504 388.957 484.725 388.732 484.993C388.508 485.263 388.142 485.413 387.916 485.326C387.661 485.229 387.574 485.341 387.684 485.628C387.781 485.881 387.731 486.089 387.575 486.089C387.418 486.089 386.653 486.661 385.877 487.361C384.016 489.036 383.736 489.26 383.491 489.26C383.379 489.26 382.576 489.974 381.708 490.845C380.841 491.716 380.028 492.43 379.905 492.43C379.585 492.43 378.506 493.295 376.625 495.061C375.732 495.896 374.821 496.509 374.597 496.423C374.33 496.32 374.258 496.442 374.387 496.779C374.538 497.171 374.433 497.249 373.936 497.119C373.476 497 373.301 497.098 373.328 497.462C373.349 497.743 373.044 498.114 372.652 498.289C372.26 498.463 371.939 498.786 371.939 499.007C371.939 499.225 371.832 499.406 371.701 499.406C371.463 499.406 370.345 500.289 368.684 501.786C368.2 502.222 367.725 502.578 367.628 502.578C367.531 502.578 366.897 503.112 366.222 503.767C364.785 505.157 364.093 505.747 363.897 505.747C363.819 505.747 363.039 506.438 362.164 507.281C360.25 509.126 359.027 509.961 358.616 509.708C358.446 509.604 358.395 509.739 358.5 510.013C358.604 510.283 358.56 510.504 358.403 510.504C358.246 510.504 357.482 511.076 356.705 511.776C354.845 513.452 354.565 513.675 354.32 513.675C354.206 513.675 353.405 514.388 352.537 515.26C351.67 516.133 350.878 516.846 350.781 516.846C350.541 516.846 347.916 518.979 346.769 520.105C346.265 520.6 345.66 520.929 345.424 520.838C345.188 520.748 345.026 520.775 345.064 520.901C345.178 521.262 343.645 522.87 343.186 522.87C342.956 522.87 342.802 522.992 342.846 523.142C342.966 523.551 339.324 526.424 338.965 526.201C338.786 526.091 338.733 526.218 338.841 526.5C338.946 526.774 338.864 526.992 338.655 526.992C338.447 526.992 337.726 527.527 337.051 528.182C335.373 529.808 334.922 530.164 334.536 530.164C334.355 530.164 334.207 530.307 334.207 530.48C334.207 530.655 333.992 530.797 333.731 530.797C333.468 530.797 333.255 530.929 333.255 531.09C333.255 531.851 329.983 534.456 329.445 534.123C329.275 534.018 329.224 534.153 329.328 534.427C329.433 534.698 329.389 534.92 329.231 534.92C329.075 534.92 328.311 535.493 327.533 536.193C325.676 537.865 325.392 538.09 325.151 538.09C325.038 538.09 324.249 538.803 323.395 539.676C322.542 540.548 321.749 541.261 321.637 541.261C321.325 541.261 318.631 543.478 317.653 544.535C317.128 545.104 316.608 545.392 316.31 545.275C316.041 545.173 315.857 545.211 315.899 545.361C315.979 545.652 314.228 547.284 313.833 547.284C313.703 547.286 313.631 547.412 313.675 547.568C313.777 547.933 311.418 549.822 310.857 549.822C310.619 549.822 310.425 550.053 310.425 550.332C310.425 550.646 310.248 550.774 309.965 550.665C309.659 550.547 309.563 550.641 309.681 550.949C309.778 551.202 309.725 551.407 309.565 551.407C309.404 551.407 308.829 551.801 308.291 552.28C306.122 554.212 305.65 554.579 305.349 554.579C305.176 554.579 305.034 554.721 305.034 554.896C305.034 555.07 304.82 555.212 304.558 555.212C304.297 555.212 304.115 555.321 304.153 555.45C304.335 556.065 300.808 558.871 300.274 558.54C300.102 558.433 300.051 558.568 300.157 558.842C300.26 559.114 300.209 559.335 300.043 559.335C299.878 559.335 299.235 559.826 298.616 560.427C297.998 561.026 297.425 561.451 297.344 561.369C297.262 561.287 297.117 562.9 297.024 564.955C296.931 567.008 296.609 569.865 296.309 571.305C295.677 574.348 295.747 574.608 298.944 581.056C302.897 589.023 309.12 595.88 315.815 599.643C316.742 600.165 317.084 600.56 317.084 601.114V601.871L320.016 601.681C321.629 601.576 323.984 601.411 325.248 601.314L327.548 601.137V578.649C327.548 557.301 327.624 555.338 328.404 556.561C328.543 556.78 330.268 558.447 332.239 560.265L335.822 563.572L338.927 560.48L342.03 557.389L345.142 560.355L348.256 563.321L351.259 560.227L354.261 557.132L357.432 560.056L360.602 562.982L363.596 559.839L366.589 556.696L368.857 558.888C371.6 561.538 371.305 561.262 372.211 562.031L372.96 562.664L375.904 559.499L378.849 556.333L381.834 559.261C385.437 562.794 384.722 562.803 388.217 559.166L391.122 556.141L394.259 559.074L397.394 562.008L400.393 558.89L403.391 555.772L405.174 557.474C406.155 558.41 407.036 559.247 407.131 559.335C407.228 559.422 407.852 559.993 408.52 560.604L409.732 561.713L412.694 558.544L415.656 555.374L418.647 558.306C422.243 561.833 421.706 561.804 424.587 558.622L426.953 556.006L426.794 517.956C426.617 475.524 426.807 478.88 424.461 476.542C422.804 474.891 421.967 474.704 414.682 474.36C402.097 473.762 400.415 473.743 400.794 474.2ZM483.235 583.698V630.35L483.948 630.504C484.34 630.589 487.873 631.164 491.796 631.782C495.721 632.399 499.252 632.977 499.644 633.064L500.358 633.228V585.548V537.869L495.363 537.658C492.616 537.544 488.764 537.357 486.802 537.247L483.235 537.045V583.698ZM511.052 537.684C511.615 537.755 512.613 537.757 513.272 537.688C513.93 537.62 513.47 537.561 512.248 537.561C511.027 537.559 510.488 537.614 511.052 537.684ZM536.901 538.309C537.207 538.388 537.706 538.388 538.012 538.309C538.316 538.229 538.067 538.164 537.456 538.164C536.846 538.164 536.596 538.229 536.901 538.309ZM521.045 587.656L521.127 636.538L528.419 637.733C542.311 640.01 541.746 639.993 559.74 638.74L562.841 638.523L562.813 614.557C562.796 599.746 562.672 590.768 562.491 591.055C562.292 591.371 562.196 591.392 562.194 591.122C562.191 590.905 561.848 590.726 561.434 590.726C560.941 590.726 560.619 590.502 560.509 590.085C560.418 589.733 559.902 589.29 559.364 589.103C558.825 588.915 558.384 588.616 558.384 588.439C558.384 588.261 558.028 588.184 557.59 588.266C556.984 588.382 556.799 588.285 556.799 587.85C556.799 587.538 556.477 587.18 556.086 587.058C555.692 586.935 555.041 586.577 554.638 586.261C554.234 585.945 553.7 585.766 553.449 585.863C553.161 585.974 552.994 585.837 552.994 585.494C552.994 585.072 552.815 584.994 552.201 585.148C551.541 585.314 551.407 585.234 551.407 584.674C551.407 584.222 551.259 584.056 550.958 584.172C550.711 584.267 550.435 584.151 550.344 583.913C550.251 583.668 549.916 583.552 549.568 583.641C549.145 583.754 548.907 583.607 548.791 583.162C548.675 582.719 548.438 582.572 548.015 582.682C547.583 582.795 547.3 582.606 547.035 582.028C546.78 581.467 546.417 581.214 545.865 581.214C545.426 581.214 545.066 581.071 545.066 580.896C545.066 580.723 544.711 580.58 544.273 580.58C543.794 580.58 543.482 580.399 543.482 580.122C543.482 579.871 543.053 579.412 542.53 579.102L541.579 578.541V560.773C541.581 540.89 541.482 541.767 543.873 540.308L544.908 539.678L541.472 539.676C538.446 539.676 530.084 539.324 523.266 538.912L520.965 538.773L521.045 587.656ZM558.582 561.704C558.681 561.958 558.916 562.137 559.105 562.099C559.293 562.061 559.601 562.459 559.788 562.982C560.14 563.969 560.482 564.464 561.949 566.121L562.82 567.103L562.775 565.162L562.731 563.222L560.794 562.231C558.61 561.11 558.329 561.043 558.582 561.704ZM585.337 606.829V637.322L586.208 637.181C586.687 637.103 591.503 636.809 596.909 636.527C608.089 635.945 608.806 635.821 610.419 634.208C612.284 632.343 612.284 632.336 612.285 611.559L612.287 592.596L611.336 592.263C610.813 592.081 610.385 591.82 610.385 591.681C610.385 591.542 610.029 591.339 609.593 591.23C609.158 591.12 608.8 590.892 608.8 590.721C608.8 590.549 608.585 590.409 608.324 590.409C608.062 590.409 607.849 590.281 607.849 590.123C607.849 589.965 607.404 589.682 606.858 589.492C606.313 589.301 605.634 588.883 605.351 588.561C605.069 588.24 604.158 587.72 603.33 587.406C602.503 587.092 601.824 586.712 601.824 586.562C601.824 586.409 601.611 586.288 601.348 586.288C601.087 586.288 600.872 586.168 600.872 586.021C600.872 585.877 600.052 585.346 599.05 584.844C598.047 584.339 597.18 583.818 597.121 583.681C597.064 583.544 596.812 583.434 596.565 583.434C596.32 583.434 596.116 583.301 596.116 583.141C596.116 582.979 595.618 582.684 595.007 582.483C594.396 582.281 593.898 581.999 593.898 581.857C593.898 581.716 593.54 581.51 593.104 581.4C592.669 581.292 592.311 581.061 592.311 580.89C592.311 580.719 592.098 580.58 591.835 580.58C591.575 580.58 591.36 580.457 591.36 580.306C591.36 580.154 590.743 579.796 589.988 579.507C589.233 579.218 588.31 578.701 587.939 578.354C587.568 578.008 587.121 577.726 586.946 577.726C586.773 577.726 586.337 577.414 585.981 577.032L585.337 576.338V606.829ZM312.252 602.048C312.645 602.124 313.216 602.122 313.521 602.042C313.823 601.962 313.5 601.902 312.803 601.903C312.105 601.907 311.858 601.972 312.252 602.048ZM306.065 602.36C306.369 602.44 306.869 602.44 307.174 602.36C307.48 602.28 307.229 602.215 306.62 602.215C306.01 602.215 305.76 602.28 306.065 602.36ZM281.494 603.635C281.89 603.709 282.46 603.707 282.763 603.627C283.065 603.547 282.744 603.486 282.046 603.49C281.347 603.494 281.1 603.559 281.494 603.635ZM244.713 605.537C245.107 605.611 245.677 605.609 245.982 605.53C246.284 605.45 245.961 605.389 245.265 605.393C244.566 605.396 244.319 605.461 244.713 605.537ZM146.81 624.338C146.81 626.43 146.917 628.141 147.048 628.137C148.623 628.108 148.713 627.909 148.713 624.338C148.713 620.767 148.623 620.565 147.048 620.537C146.917 620.535 146.81 622.245 146.81 624.338ZM323.425 633.428C322.466 633.479 320.647 633.609 319.382 633.713L317.084 633.903V640.262C317.084 648.766 316.475 650.398 312.564 652.403L310.901 653.256L313.279 653.077C314.586 652.978 318.226 652.723 321.365 652.512C324.629 652.293 327.171 651.983 327.304 651.787C327.432 651.601 327.54 647.345 327.542 642.332L327.548 633.215L326.359 633.274C325.704 633.306 324.384 633.375 323.425 633.428ZM314.154 634.075C314.548 634.149 315.119 634.147 315.423 634.067C315.726 633.987 315.402 633.926 314.706 633.93C314.008 633.934 313.76 633.999 314.154 634.075ZM308.764 634.39C309.158 634.467 309.729 634.465 310.031 634.385C310.336 634.305 310.012 634.244 309.314 634.246C308.618 634.25 308.369 634.314 308.764 634.39ZM265.007 636.928C265.401 637.003 265.971 637.001 266.274 636.921C266.578 636.841 266.255 636.78 265.557 636.784C264.86 636.788 264.611 636.852 265.007 636.928ZM259.771 637.239C260.076 637.318 260.576 637.318 260.88 637.239C261.185 637.159 260.936 637.094 260.325 637.094C259.714 637.094 259.465 637.159 259.771 637.239ZM243.282 638.19C243.587 638.27 244.087 638.27 244.391 638.19C244.698 638.11 244.447 638.045 243.838 638.045C243.227 638.045 242.978 638.11 243.282 638.19Z" fill="#7462DF"/>
<path fill-rule="evenodd" clip-rule="evenodd" d="M332.243 106.23C302.781 110.845 280.508 142.691 265.606 201.507C261.828 216.417 255.038 253.322 255.926 254.117C255.991 254.176 257.92 254.324 260.213 254.448L264.381 254.672L264.598 252.979C265.218 248.164 267.514 234.222 268.764 227.666C282.696 154.675 307.02 115.126 337.992 115.103L341.303 115.101L339.455 116.214C322.261 126.568 311.858 146.97 307.925 178.042C305.018 201.02 306.333 234.439 311.325 264.493L312.202 269.769L310.507 269.91C307.117 270.191 305.817 272.301 306.721 276.055C307.197 278.024 307.2 278.395 306.776 279.797C304.082 288.661 312.189 297.956 320.735 295.805C322.057 295.472 322.24 295.513 324.192 296.605C331.075 300.454 339.724 302.612 356.719 304.722C372.196 306.641 377.669 307.568 384.939 309.504C403.115 314.342 415.841 324.645 424.263 341.341C426.267 345.313 427.149 346.304 427.362 344.819C427.49 343.928 424.119 337.216 421.714 333.571C411.838 318.6 398.305 310.151 377.804 306.164C372.624 305.155 369.578 304.708 358.304 303.302C341.299 301.179 334.374 299.61 327.15 296.236C323.598 294.577 323.676 294.693 325.345 293.512C329.344 290.683 331.111 284.157 329.311 278.874C328.895 277.655 328.581 276.627 328.615 276.593C328.649 276.559 330.947 277.733 333.721 279.203C343.367 284.31 349.067 286.931 371.939 296.786C406.703 311.765 420.047 318.404 429.212 325.28C442.339 335.129 444.561 346.719 435.595 358.566C434.198 360.41 434.092 360.665 434.531 361.104C436.723 363.296 442.483 351.122 442.457 344.353C442.396 328.691 430.38 320.198 373.788 295.816C349.415 285.314 342.99 282.361 334.206 277.624C331.503 276.167 328.72 274.788 328.023 274.557C327.325 274.327 326.254 273.76 325.645 273.296C324.306 272.282 322.152 271.106 321.627 271.106C320.598 271.106 317.284 248.103 315.986 231.947C310.829 167.686 323.547 128.735 352.417 120.365L355.248 119.545L357.014 120.537C390.26 139.206 419.345 195.537 427.849 257.726C428.26 260.728 428.696 263.285 428.818 263.407C429.021 263.609 436.991 264.162 437.183 263.987C437.567 263.635 434.641 245.004 432.771 235.91C423.099 188.842 401.125 145.545 375.417 122.886C373.328 121.047 371.79 119.54 372.002 119.54C374.17 119.54 383.007 123.354 387.49 126.225C414.806 143.722 442.79 193.848 464.199 263.631C466.835 272.223 466.757 271.348 465.074 273.414C456.657 283.748 467.06 299.48 478.574 293.826C488.916 288.748 487.578 272.552 476.586 269.738L474.868 269.299L472.693 262.037C452.373 194.165 424.117 142.294 396.196 121.606C384.351 112.828 376.119 109.907 363.06 109.852C357.683 109.829 355.398 109.708 354.856 109.417C350.054 106.841 338.624 105.229 332.243 106.23ZM312.644 271.698C312.644 271.848 312.078 272.364 311.386 272.843C310.693 273.323 309.738 274.224 309.263 274.848L308.399 275.982L308.142 275.05C307.762 273.667 308.14 272.43 309.103 271.909C310.022 271.409 312.644 271.253 312.644 271.698ZM537.298 496.071C535.546 496.701 534.882 497.586 533.512 501.119C531.06 507.448 528.518 509.208 521.348 509.541C513.905 509.885 511.255 512.758 510.899 520.863C510.445 531.231 513.095 533.32 530.48 536.3C530.917 536.374 528.134 536.374 524.297 536.298C520.461 536.223 516.038 536.282 514.468 536.429L511.615 536.697L517.004 536.994L522.394 537.293L517.798 537.492C515.267 537.603 510.31 537.711 506.778 537.734L500.358 537.774V585.494C500.358 615.413 500.47 633.215 500.658 633.215C500.824 633.215 505.197 633.928 510.378 634.801C515.557 635.673 520.058 636.386 520.381 636.386C520.95 636.386 520.967 634.86 520.967 587.555V538.725L523.743 538.691C525.269 538.674 528.87 538.56 531.749 538.438C535.649 538.272 540.169 538.4 549.505 538.94C556.394 539.338 562.208 539.667 562.427 539.669C562.742 539.675 562.822 549.79 562.822 589.178V638.681L565.122 638.485C567.228 638.304 571.764 638.028 581.61 637.482L585.336 637.275V587.92V538.565L586.746 537.675C592.351 534.134 592.867 529.466 588.032 526.041C583.894 523.111 583.181 521.083 584.536 516.11C586.021 510.658 584.273 507.846 578.261 506.016C571.88 504.071 566.207 506.339 560.604 513.07L559.105 514.872L557.562 511.826C552.537 501.902 542.589 494.169 537.298 496.071ZM575.982 538.335C577.69 538.862 572.965 539.1 567.896 538.742C562.233 538.341 562.36 538.364 564.091 538.071C565.939 537.757 574.747 537.953 575.982 538.335ZM321.365 601.542C316.563 601.844 287.951 603.334 281.321 603.627C275.849 603.869 276.013 603.654 278.673 607.099C283.414 613.244 293.818 628.236 297.073 633.612C297.73 634.695 297.916 634.801 299.181 634.801C300.595 634.801 320.166 633.698 324.932 633.35L327.548 633.158V617.175V601.19L326.517 601.236C325.95 601.26 323.63 601.399 321.365 601.542ZM245.58 605.535L244.629 605.657L244.73 610.954C244.838 616.787 244.743 616.473 246.56 616.988C247.276 617.19 248.345 617.685 248.938 618.084L250.021 618.813L250.106 624.95C250.211 632.427 250.289 632.311 244.233 633.848L242.886 634.191V636.082V637.971L245.185 637.948C246.45 637.935 252.513 637.613 258.662 637.235L269.841 636.544L267.115 632.739C260.785 623.91 254.444 614.291 250.529 607.59L249.199 605.313L247.865 605.362C247.133 605.391 246.104 605.469 245.58 605.535Z" fill="#602E4E"/>
<path fill-rule="evenodd" clip-rule="evenodd" d="M362.656 109.622C363.22 109.692 364.218 109.694 364.877 109.626C365.535 109.557 365.075 109.498 363.853 109.498C362.632 109.496 362.093 109.552 362.656 109.622ZM505.747 182.01C500.171 182.773 493.583 184.784 488.06 187.406L484.799 188.953L488.821 192.693C512.436 214.661 529.882 244.435 538.288 277.122C539.071 280.17 539.762 282.713 539.825 282.774C540.154 283.105 544.657 275.701 547.184 270.672C556.287 252.547 559.337 231.936 555.656 213.398C554.231 206.225 554 205.685 550.833 202.125C537.201 186.799 521.599 179.838 505.747 182.01ZM481.426 191.171C468.616 199.801 462.237 210.165 462.176 222.435C462.14 229.75 462.256 230.446 464.653 237.265C465.804 240.537 466.746 243.351 466.746 243.514C466.746 244.165 468.055 244.395 472.771 244.57C495.365 245.407 515.454 253.341 528.202 266.455C530.417 268.736 531.02 269.183 531.973 269.265C533.098 269.362 533.115 269.386 533.84 271.827C534.241 273.184 534.854 274.691 535.198 275.176C535.544 275.661 536.417 277.048 537.137 278.26C537.858 279.47 538.377 280.175 538.29 279.825C531.001 250.238 516.226 222.421 496.893 201.891C495.544 200.459 494.165 198.952 493.832 198.545C492.666 197.124 484.472 189.616 484.093 189.624C483.882 189.628 482.681 190.324 481.426 191.171ZM314.938 196.275C314.938 196.884 315.003 197.135 315.083 196.829C315.162 196.524 315.162 196.024 315.083 195.72C315.003 195.415 314.938 195.665 314.938 196.275ZM555.054 207.53C555.585 209.083 556.822 215.553 557.244 218.987C559.818 239.94 554.527 261.917 542.473 280.349L539.981 284.159L540.768 288.206C541.204 290.432 541.912 294.808 542.344 297.93C543.107 303.441 543.381 304.455 551.655 332.576L560.18 361.545L560.878 357.151C562.324 348.076 562.495 345.511 562.818 328.339C563.384 298.145 566.405 288.307 581.174 268.57C583.894 264.936 583.887 265.977 581.242 258.072C575.415 240.645 567.076 223.612 558.673 211.971C555.501 207.576 554.756 206.661 555.054 207.53ZM314.938 215.616C314.938 216.227 315.003 216.476 315.083 216.172C315.162 215.867 315.162 215.367 315.083 215.062C315.003 214.756 314.938 215.007 314.938 215.616ZM467.381 245.156C467.381 245.558 469.267 250.812 469.739 251.725C470.037 252.302 470.201 252.981 470.102 253.236C470.005 253.491 470.041 253.628 470.182 253.54C470.325 253.453 471.757 256.271 473.369 259.804L476.297 266.224L483.65 266.607C501.691 267.545 525.758 268.871 527.786 269.038L530.004 269.223L527.626 266.809C514.815 253.805 495.16 246.142 472.216 245.206C469.556 245.095 467.381 245.074 467.381 245.156ZM535.706 278.083C536.528 281.401 541.547 297.595 541.404 296.472C540.386 288.409 539.267 283.788 537.568 280.619C535.953 277.611 535.402 276.859 535.706 278.083ZM156.81 432.516C137.587 435.524 117.034 461.718 111.302 490.514C105.899 517.649 113.749 542.22 132.949 558.273C137.134 561.772 145.104 566.945 146.31 566.945C146.763 566.945 146.81 562.44 146.81 519.128V471.31L147.621 469.684C150.53 463.847 153.948 463.175 175.038 464.305L176.788 464.398L178.009 453.286C178.683 447.173 179.299 441.738 179.383 441.205C179.516 440.339 179.351 440.098 177.836 438.931C171.126 433.768 163.564 431.46 156.81 432.516ZM214.111 466.014C214.416 466.093 214.916 466.093 215.22 466.014C215.525 465.934 215.275 465.869 214.665 465.869C214.056 465.869 213.805 465.934 214.111 466.014ZM282.917 468.867C283.223 468.947 283.722 468.947 284.028 468.867C284.332 468.787 284.083 468.723 283.473 468.723C282.862 468.723 282.613 468.787 282.917 468.867ZM351.725 471.721C352.029 471.801 352.529 471.801 352.834 471.721C353.14 471.641 352.889 471.576 352.28 471.576C351.67 471.576 351.42 471.641 351.725 471.721ZM526.443 536.098C526.924 536.172 527.637 536.17 528.027 536.094C528.417 536.018 528.024 535.959 527.15 535.961C526.279 535.965 525.959 536.026 526.443 536.098ZM512.014 536.412C512.408 536.488 512.979 536.486 513.283 536.406C513.586 536.326 513.262 536.265 512.566 536.267C511.868 536.271 511.62 536.336 512.014 536.412ZM484.746 537.047C485.139 537.121 485.71 537.12 486.013 537.04C486.317 536.96 485.994 536.899 485.295 536.903C484.599 536.906 484.35 536.971 484.746 537.047ZM596.358 537.681C596.753 537.757 597.324 537.753 597.627 537.675C597.929 537.595 597.608 537.532 596.909 537.536C596.211 537.54 595.964 537.605 596.358 537.681ZM606.188 537.998C606.582 538.073 607.152 538.071 607.457 537.991C607.759 537.911 607.436 537.85 606.74 537.854C606.041 537.858 605.794 537.922 606.188 537.998Z" fill="#FB8C8C"/>
<path fill-rule="evenodd" clip-rule="evenodd" d="M626.24 237.181C626.24 237.356 626.663 239.175 627.18 241.224C632.555 262.53 631.933 285.008 625.468 302.973C623.031 309.75 618.594 317.601 612 326.815L610.37 329.094L612.36 328.299C636.415 318.678 658.431 297.718 670.049 273.374C671.581 270.168 671.586 270.212 668.797 264.72C660.145 247.675 644.662 236.861 628.911 236.861C627.33 236.861 626.24 236.991 626.24 237.181ZM621.516 237.668C610.902 239.972 600.442 246.847 589.221 258.898C585.382 263.021 585.519 262.364 587.892 265.315C598.23 278.166 607.24 303.772 609.312 326.199C609.59 329.186 609.43 329.29 613.461 323.505C629.13 301.015 633.732 276.521 627.823 247.08C625.725 236.629 625.799 236.739 621.516 237.668ZM583.139 266.004C568.13 285.095 562.86 299.807 562.828 322.696L562.822 326.246L565.834 331.92C574.584 348.397 582.121 368.621 583.636 379.67C583.91 381.662 584.138 381.52 584.986 378.835C590.019 362.908 596.932 348.26 605.975 334.364L609.07 329.608L608.619 325.961C605.436 300.222 597.151 277.092 586.786 265.003C585.175 263.123 585.466 263.043 583.139 266.004ZM669.988 274.978C658.018 299.25 636.683 319.211 612.116 329.125L609.567 330.154L606.839 334.321C597.294 348.903 589.735 365.137 584.886 381.463L584.389 383.135L589.064 382.907C596.771 382.53 596.616 382.576 599.518 379.847C608.359 371.534 617.848 369.037 628.162 372.31L631.194 373.27L634.008 372.106C646.093 367.103 660.712 357.923 669.946 349.537C671.59 348.043 671.662 347.906 672.412 344.828C678.774 318.688 678.915 293.655 672.806 274.594C672.275 272.936 671.815 271.555 671.782 271.521C671.75 271.487 670.943 273.043 669.988 274.978ZM144.575 298.866C131.025 301.32 117.645 312.571 110.628 327.409C108.361 332.199 108.311 331.535 111.38 337.473C123.537 360.999 142.49 378.765 166.735 389.36C169.827 390.713 169.838 390.777 166.046 385.372C149.272 361.46 144.917 334.195 152.851 302.754C153.364 300.715 153.785 298.896 153.785 298.712C153.785 298.228 147.508 298.335 144.575 298.866ZM154.565 298.81C150.233 311.451 148.756 333.872 151.275 348.759C153.671 362.898 157.497 371.905 166.747 385.174C170.333 390.321 170.591 390.578 170.591 389.004C170.591 388.449 170.959 385.631 171.406 382.741C175.019 359.46 181.906 340.169 190.792 328.44C192.033 326.804 192.175 326.423 192.354 324.298L192.552 321.96L187.992 317.369C176.879 306.183 166.912 300.41 155.585 298.597C155.08 298.517 154.633 298.611 154.565 298.81ZM562.82 331.986C562.8 340.84 562.164 349.111 560.872 357.352L560.203 361.633L565.657 380.182C568.655 390.385 571.376 399.588 571.699 400.634C572.023 401.681 573.244 405.818 574.414 409.831C575.584 413.841 576.619 417.258 576.716 417.424C576.986 417.89 577.635 414.663 579.011 406.026C580.54 396.401 580.928 394.367 582.393 388.268C583.689 382.872 583.676 382.441 581.994 374.907C579.311 362.904 571.699 343.787 564.143 330.084L562.832 327.706L562.82 331.986ZM190.197 330.42C181.706 342.461 175.099 361.856 171.895 384.147C170.812 391.673 170.603 390.509 173.94 395.562C175.553 398.003 178.205 402.348 179.836 405.217L182.798 410.434L183.009 408.389C183.123 407.262 185.163 388.951 187.539 367.694C189.915 346.438 191.81 328.897 191.747 328.712C191.686 328.528 190.988 329.296 190.197 330.42ZM107.236 336.001C101.186 355.201 101.234 379.385 107.369 404.976L108.486 409.633L110.446 411.343C120.417 420.045 132.654 427.762 144.748 432.975C146.668 433.802 148.357 434.59 148.505 434.727C148.654 434.864 149.4 434.698 150.161 434.362C158.796 430.543 168.811 432.117 177.454 438.652C178.475 439.426 179.345 440.024 179.387 439.982C179.43 439.94 180.178 433.578 181.051 425.842L182.638 411.781L180.895 408.518C178.69 404.39 176.293 400.41 173.057 395.511L170.512 391.656L167.618 390.473C143.361 380.567 122.985 361.595 110.476 337.269L108.22 332.882L107.236 336.001ZM668.095 352.014C657.864 360.644 636.238 373.524 631.98 373.524C631.708 373.524 632.606 374.163 633.976 374.943C639.567 378.129 645.747 383.816 651.639 391.198L653.471 393.494L655.364 389.929C660.885 379.547 672.918 348.709 671.162 349.449C671.132 349.461 669.75 350.616 668.095 352.014ZM592.787 383.365C591.74 383.496 589.885 383.618 588.666 383.639C587.444 383.66 585.921 383.765 585.278 383.871L584.109 384.063L582.996 388.704C581.56 394.696 581.168 396.766 579.639 406.385C578.94 410.767 578.109 415.477 577.789 416.849L577.209 419.345L580.479 430.441C582.279 436.546 583.893 441.966 584.066 442.489C584.821 444.766 584.031 436.441 582.939 430.599C579.566 412.557 582.724 399.805 594.048 385.732C594.889 384.685 595.717 383.651 595.886 383.434C596.232 382.987 595.901 382.979 592.787 383.365ZM109.443 413.063C113.404 426.584 117.451 436.898 123.657 449.294L126.552 455.08L127.795 453.415C132.581 447 139.41 440.541 145.345 436.814L148.066 435.107L146.249 434.384C135.437 430.081 120.084 420.688 111.384 413.052C108.627 410.632 108.73 410.632 109.443 413.063ZM603.968 537.998C604.363 538.073 604.934 538.071 605.237 537.991C605.539 537.911 605.218 537.85 604.519 537.854C603.821 537.858 603.574 537.922 603.968 537.998ZM230.617 600.397C230.619 601.443 230.678 601.833 230.749 601.264C230.821 600.693 230.819 599.837 230.747 599.362C230.674 598.884 230.615 599.35 230.617 600.397ZM230.6 648.595C230.604 649.291 230.669 649.54 230.745 649.144C230.819 648.751 230.817 648.18 230.737 647.877C230.657 647.573 230.596 647.896 230.6 648.595Z" fill="#E48DDC"/>
<path fill-rule="evenodd" clip-rule="evenodd" d="M644.314 383.196C644.906 383.805 645.461 384.305 645.547 384.305C645.634 384.305 645.221 383.805 644.63 383.196C644.038 382.585 643.483 382.085 643.397 382.085C643.309 382.085 643.722 382.585 644.314 383.196ZM670.409 445.503C670.409 446.462 670.47 446.854 670.542 446.374C670.614 445.895 670.614 445.109 670.542 444.629C670.47 444.15 670.409 444.542 670.409 445.503ZM587.344 537.936C587.344 538.24 587.465 538.297 587.697 538.103C587.916 537.922 588.232 537.924 588.517 538.107C588.947 538.383 603.066 538.179 603.384 537.892C603.456 537.827 601.744 537.757 599.579 537.738C597.414 537.717 593.774 537.65 591.493 537.588C588.015 537.491 587.344 537.548 587.344 537.936ZM257.928 542.292L256.995 543.322L258.027 542.391C258.594 541.88 259.058 541.415 259.058 541.36C259.058 541.115 258.795 541.332 257.928 542.292ZM225.429 546.573L224.337 547.762L225.526 546.668C226.632 545.652 226.86 545.384 226.618 545.384C226.565 545.384 226.03 545.919 225.429 546.573ZM327.702 603.25C327.702 629.237 327.74 639.82 327.786 626.769C327.831 613.72 327.831 592.459 327.786 579.524C327.74 566.589 327.702 577.266 327.702 603.25ZM182.878 564.645C184.491 564.702 187.13 564.702 188.743 564.645C190.357 564.588 189.036 564.54 185.811 564.54C182.585 564.54 181.265 564.588 182.878 564.645Z" fill="#B198EE"/>
<path fill-rule="evenodd" clip-rule="evenodd" d="M398.574 135.176C398.574 135.232 399.038 135.696 399.605 136.208L400.634 137.138L399.704 136.109C398.836 135.148 398.574 134.931 398.574 135.176ZM484.397 189.215C484.316 189.348 485.809 190.884 487.715 192.628C511.944 214.777 529.336 244.762 538.297 279.825C538.385 280.175 537.726 279.247 536.83 277.765C535.934 276.283 535.061 274.928 534.89 274.755C534.302 274.165 535.472 276.968 536.65 278.973C539.09 283.126 539.987 286.305 541.269 295.363C541.663 298.133 542.54 301.959 542.736 301.763C542.928 301.571 541.632 292.667 540.761 288.175L539.981 284.159L542.473 280.349C554.297 262.269 559.618 240.761 557.391 220.056C556.723 213.856 555.058 206.581 554.132 205.811C553.776 205.516 553.804 205.86 554.274 207.433C559.944 226.483 557.233 250.666 547.184 270.672C544.657 275.701 540.154 283.105 539.825 282.774C539.762 282.713 539.071 280.17 538.288 277.122C531.654 251.324 519.778 227.933 503.196 208.006C496.183 199.58 484.938 188.338 484.397 189.215ZM314.938 198.811C314.938 199.422 315.003 199.671 315.083 199.367C315.162 199.06 315.162 198.562 315.083 198.256C315.003 197.951 314.938 198.201 314.938 198.811ZM314.938 212.762C314.938 213.373 315.003 213.622 315.083 213.318C315.162 213.013 315.162 212.513 315.083 212.209C315.003 211.902 314.938 212.153 314.938 212.762ZM461.771 223.068C461.773 224.115 461.832 224.505 461.902 223.934C461.975 223.365 461.973 222.509 461.9 222.031C461.828 221.556 461.769 222.022 461.771 223.068ZM626.105 239.679C632.663 263.612 631.05 290.626 621.923 309.653C619.646 314.401 610.543 328.499 609.753 328.499C609.628 328.499 609.43 327.464 609.312 326.199C607.813 309.97 601.165 287.139 594.429 275.069C591.459 269.748 585.877 262.14 585.555 262.977C585.468 263.205 586.071 264.179 586.893 265.146C597.206 277.23 605.446 300.292 608.619 325.961L609.07 329.608L605.975 334.364C596.932 348.26 590.019 362.908 584.986 378.835C584.138 381.52 583.91 381.662 583.636 379.671C582.542 371.69 577.66 356.958 571.876 344.195C568.802 337.41 563.013 326.332 562.885 326.988C562.832 327.26 564.072 329.96 565.642 332.985C574.608 350.277 580.824 367.108 583.008 380.013L583.571 383.342L582.551 387.549C581.069 393.66 580.704 395.558 579.144 405.267C578.369 410.082 577.517 414.975 577.247 416.138C576.954 417.399 576.865 418.451 577.026 418.738C577.378 419.368 578.32 414.865 579.785 405.55C581.149 396.86 581.571 394.653 582.996 388.704L584.109 384.063L585.277 383.871C585.92 383.765 587.271 383.677 588.282 383.675C591.248 383.67 596.242 383.027 596.685 382.595C597.014 382.273 596.767 382.243 595.416 382.437C594.493 382.57 591.636 382.781 589.063 382.907L584.389 383.135L584.886 381.463C589.735 365.137 597.294 348.903 606.838 334.321L609.567 330.154L612.116 329.125C633.818 320.366 653.161 303.688 665.58 283.025C668.396 278.34 671.582 271.983 671.581 271.059C671.579 270.619 670.69 272.073 669.421 274.594C657.11 299.046 636.127 318.794 612.36 328.299L610.37 329.094L612 326.815C629.33 302.602 634.419 279.243 628.9 249.228C627.755 243.001 626.176 236.861 625.719 236.861C625.445 236.861 625.555 237.672 626.105 239.679ZM467.256 244.604C467.368 244.896 468.768 245.063 472.231 245.206C494.907 246.132 513.7 253.331 526.915 266.15C530.759 269.879 531.737 270.014 528.085 266.312C515.328 253.379 495.274 245.417 473.405 244.604C471.051 244.519 468.669 244.391 468.114 244.323C467.389 244.235 467.146 244.315 467.256 244.604ZM236.941 253.251C237.246 253.331 237.746 253.331 238.05 253.251C238.355 253.171 238.105 253.107 237.495 253.107C236.886 253.107 236.635 253.171 236.941 253.251ZM593.719 254.064L592.787 255.093L593.818 254.163C594.779 253.295 594.994 253.033 594.75 253.033C594.695 253.033 594.231 253.497 593.719 254.064ZM266.112 254.836C266.417 254.916 266.917 254.916 267.221 254.836C267.528 254.756 267.277 254.691 266.668 254.691C266.057 254.691 265.808 254.756 266.112 254.836ZM590.865 256.917L589.933 257.947L590.964 257.016C591.925 256.149 592.14 255.886 591.896 255.886C591.841 255.886 591.377 256.35 590.865 256.917ZM341.579 258.959C341.883 259.039 342.383 259.039 342.688 258.959C342.992 258.879 342.743 258.814 342.132 258.814C341.522 258.814 341.272 258.879 341.579 258.959ZM423.386 263.397C423.691 263.477 424.191 263.477 424.495 263.397C424.8 263.317 424.55 263.253 423.94 263.253C423.329 263.253 423.08 263.317 423.386 263.397ZM152.748 303.211C145.045 335.281 149.285 361.481 166.046 385.372C169.838 390.777 169.827 390.713 166.735 389.36C142.395 378.723 123.552 361.02 111.251 337.231C109.689 334.212 108.452 332.144 108.448 332.546C108.437 334.001 114.019 344.24 117.913 349.902C130.418 368.082 148.066 382.488 167.618 390.473L170.512 391.656L173.055 395.511C176.415 400.602 177.87 403.007 180.473 407.767C181.946 410.459 182.64 411.473 182.64 410.932C182.64 409.945 177.855 401.492 173.94 395.562C170.605 390.509 170.812 391.673 171.895 384.147C175.194 361.199 182.396 340.567 191.091 329.167C192.35 327.513 192.569 326.227 191.338 327.706C185.469 334.756 179.179 348.829 175.378 363.421C173.287 371.44 170.591 385.854 170.591 389.004C170.591 389.558 170.483 390.012 170.354 390.011C170.064 390.009 164.034 381.394 161.695 377.646C149.609 358.265 146.639 329.926 153.76 301.942C154.39 299.467 154.551 298.375 154.289 298.375C154.061 298.375 153.442 300.313 152.748 303.211ZM469.124 344.035C469.984 344.908 470.758 345.621 470.844 345.621C470.932 345.621 470.3 344.908 469.442 344.035C468.584 343.163 467.81 342.45 467.722 342.45C467.634 342.45 468.266 343.163 469.124 344.035ZM668.729 350.593C659.193 358.924 645.018 367.67 633.561 372.291C631.691 373.044 631.107 373.398 631.605 373.47C635.169 373.995 655.609 362.143 666.87 353.024C669.075 351.24 670.966 349.841 671.073 349.919C671.179 349.997 671.198 349.971 671.118 349.86C671.036 349.75 671.12 349.381 671.303 349.04C671.891 347.943 671.476 348.192 668.729 350.593ZM436.112 350.663C434.832 351.445 433.926 352.741 433.466 354.455C432.999 356.186 433.22 356.525 433.722 354.849C434.346 352.769 437.653 350.576 439.243 351.184C439.54 351.299 439.774 351.125 439.881 350.713C440.117 349.815 437.558 349.782 436.112 350.663ZM441.589 351.15C441.475 351.449 441.884 351.881 442.773 352.4C445.046 353.734 446.916 356.043 448.252 359.171C448.866 360.607 448.994 360.765 448.849 359.909C448.195 356.04 442.398 349.044 441.589 351.15ZM481.966 356.561C482.913 357.52 483.76 358.304 483.848 358.304C483.935 358.304 483.231 357.52 482.284 356.561C481.336 355.6 480.49 354.816 480.402 354.816C480.317 354.816 481.019 355.6 481.966 356.561ZM397.32 366.073C397.32 367.434 398.958 369.935 413.204 390.33C421.307 401.926 438.551 426.611 451.524 445.185C464.499 463.757 476.749 481.308 478.747 484.186C483.962 491.699 484.833 492.468 488.172 492.498C490.714 492.521 489.966 493.052 523.981 467.117C558.205 441.022 557.566 441.532 558.424 439.645C559.312 437.687 559.112 437.219 558.138 438.979C557.259 440.568 555.146 442.23 521.443 467.838C518.827 469.824 514.048 473.462 510.821 475.918C484.493 495.963 487.573 495.634 476.399 479.588C473.121 474.879 465.353 463.75 459.14 454.855C452.924 445.961 444.504 433.905 440.425 428.062C436.346 422.22 426.929 408.737 419.496 398.098C412.064 387.459 404.298 376.345 402.242 373.396C400.183 370.449 398.235 367.453 397.91 366.737C397.541 365.927 397.32 365.678 397.32 366.073ZM494.968 369.243C495.559 369.854 496.115 370.354 496.201 370.354C496.288 370.354 495.875 369.854 495.284 369.243C494.692 368.632 494.136 368.134 494.051 368.134C493.963 368.134 494.376 368.632 494.968 369.243ZM473.78 377.538C471.793 378.929 471.814 378.044 473.542 388.057C474.314 392.533 476.249 403.828 477.84 413.16C479.432 422.49 480.878 430.874 481.057 431.791L481.378 433.458L483.096 432.267C484.04 431.611 484.814 430.945 484.816 430.785C484.818 430.625 484.04 425.916 483.089 420.321C482.135 414.726 480.347 404.226 479.116 396.989C476.656 382.515 475.608 376.575 475.496 376.461C475.456 376.421 474.683 376.904 473.78 377.538ZM457.234 389.531C451.229 391.466 449.81 399.068 453.919 407.293C458.78 417.022 466.83 420.498 471.696 414.968C478.766 406.937 467.068 386.365 457.234 389.531ZM488.311 392.332C487.702 392.526 486.467 393.403 485.566 394.282C477.164 402.476 490.594 424.575 500.875 419.473C511.74 414.079 499.956 388.624 488.311 392.332ZM519.065 392.647C519.065 392.703 519.529 393.167 520.096 393.679L521.127 394.611L520.195 393.58C519.327 392.619 519.065 392.404 519.065 392.647ZM460.692 395.863C466.251 398.737 470.766 411.258 466.244 411.258C461.299 411.258 454.475 397.385 458.603 395.722C459.564 395.334 459.686 395.343 460.692 395.863ZM492.652 398.878C495.211 400.438 499.345 407.392 499.64 410.632C500.068 415.365 496.17 415.135 492.546 410.213C487.417 403.246 487.487 395.728 492.652 398.878ZM533.176 406.501C534.034 407.373 534.808 408.086 534.895 408.086C534.983 408.086 534.351 407.373 533.493 406.501C532.633 405.628 531.859 404.915 531.773 404.915C531.686 404.915 532.318 405.628 533.176 406.501ZM108.688 410.278C110.128 414.165 133.434 429.181 145.834 434.211C150.419 436.072 149.498 435.022 144.748 432.975C132.827 427.836 121.927 421.025 111.384 412.127C109.734 410.735 108.559 409.928 108.688 410.278ZM545.86 418.868C546.718 419.739 547.492 420.453 547.579 420.453C547.667 420.453 547.035 419.739 546.175 418.868C545.317 417.994 544.543 417.281 544.456 417.281C544.368 417.281 545 417.994 545.86 418.868ZM522.952 429.096C497.26 445.839 488.688 451.423 485.079 453.765C479.46 457.41 478.344 459.29 480.242 461.887C482.377 464.805 483.049 464.621 492.299 458.592C496.294 455.987 505.772 449.816 513.357 444.877C532.611 432.341 532.538 432.391 533.008 431.253C534.142 428.519 532.441 425.523 529.763 425.528C528.591 425.532 527.725 425.985 522.952 429.096ZM109.489 507.016C109.489 507.975 109.548 508.367 109.62 507.888C109.694 507.408 109.694 506.624 109.62 506.145C109.548 505.665 109.489 506.057 109.489 507.016ZM287.753 541.693C287.23 542.247 286.18 543.198 285.421 543.805C283.273 545.519 281.669 547.094 282.302 546.864C282.763 546.699 282.858 546.799 282.778 547.368C282.715 547.825 282.829 548.047 283.1 547.992C283.33 547.943 283.45 548.017 283.366 548.154C283.28 548.291 283.414 548.677 283.659 549.014C283.904 549.351 284.106 549.522 284.106 549.394C284.106 549.267 284.306 549.347 284.549 549.571C284.793 549.798 284.937 550.072 284.869 550.182C284.802 550.294 285.139 550.458 285.617 550.549C286.602 550.739 288.229 549.925 288.229 549.244C288.229 548.767 289.806 547.395 290.204 547.524C290.339 547.568 290.449 547.389 290.449 547.127C290.449 546.866 290.592 546.651 290.765 546.651C290.94 546.651 291.082 546.818 291.082 547.022C291.082 547.568 291.433 547.121 291.535 546.444C291.598 546.031 291.847 545.886 292.384 545.951L293.143 546.044L292.351 545.413C291.916 545.066 291.558 544.537 291.556 544.237C291.556 543.936 291.341 543.634 291.081 543.561C290.662 543.447 290.662 543.474 291.082 543.797C291.505 544.123 291.505 544.149 291.082 544.033C290.82 543.963 290.607 543.624 290.607 543.284C290.607 542.943 290.179 542.218 289.656 541.674L288.704 540.683L287.753 541.693ZM292.974 550.336C292.544 550.916 292.076 551.394 291.931 551.4C291.552 551.411 290.765 552.258 290.765 552.653C290.765 552.84 290.457 552.994 290.08 552.994C289.053 552.994 287.532 554.82 287.936 555.574C288.109 555.899 288.495 556.165 288.796 556.169C289.195 556.173 289.231 556.242 288.933 556.432C288.619 556.632 288.676 556.877 289.186 557.526C289.547 557.984 289.8 558.414 289.749 558.477C289.697 558.54 289.89 559.08 290.177 559.677C290.464 560.273 290.835 561.12 291.003 561.555C291.17 561.991 291.64 563.06 292.047 563.933C292.454 564.805 292.814 565.625 292.846 565.756C292.878 565.887 292.941 566.064 292.985 566.152C293.029 566.239 293.093 566.418 293.13 566.549C293.168 566.679 293.364 567.188 293.567 567.679C293.771 568.17 293.944 568.741 293.953 568.948C293.963 569.154 294.366 570.301 294.849 571.496L295.73 573.668L296.278 570.545C296.849 567.278 297.053 561.677 296.708 558.701C296.295 555.149 296.214 554.758 295.871 554.643C295.679 554.579 295.523 554.288 295.527 553.997C295.531 553.536 295.574 553.53 295.873 553.945C296.149 554.328 296.174 554.297 295.997 553.785C295.734 553.028 295.578 552.343 295.546 551.805C295.532 551.586 295.272 551.396 294.967 551.383C294.634 551.367 294.572 551.293 294.808 551.198C295.026 551.11 295.205 550.899 295.205 550.728C295.205 550.559 295.076 550.5 294.918 550.597C294.758 550.694 294.699 550.509 294.785 550.184C295.074 549.073 293.834 549.178 292.974 550.336ZM285.579 550.993C285.466 551.105 285.752 551.851 286.21 552.65C287.344 554.624 287.612 554.872 287.529 553.867C287.491 553.403 287.395 553.087 287.317 553.163C287.078 553.405 286.322 552.621 286.507 552.322C286.602 552.168 286.515 552.043 286.311 552.043C286.107 552.043 286.022 551.833 286.121 551.577C286.311 551.08 285.915 550.656 285.579 550.993ZM127.468 553.409C127.468 553.464 127.932 553.928 128.499 554.44L129.528 555.372L128.598 554.341C127.73 553.38 127.468 553.165 127.468 553.409ZM206.345 554.17C206.741 554.244 207.312 554.242 207.614 554.162C207.917 554.082 207.595 554.021 206.897 554.025C206.199 554.029 205.951 554.094 206.345 554.17ZM441.216 587.555C441.216 606.129 441.254 613.727 441.3 604.439C441.348 595.153 441.348 579.958 441.3 570.67C441.254 561.384 441.216 568.983 441.216 587.555ZM439.616 555.61L438.684 556.639L439.715 555.709C440.676 554.841 440.891 554.579 440.648 554.579C440.592 554.579 440.128 555.043 439.616 555.61ZM134.891 577.251C134.891 580.39 134.939 581.63 134.998 580.009C135.055 578.387 135.055 575.818 134.996 574.302C134.939 572.784 134.891 574.112 134.891 577.251ZM420.928 573.672C412.15 574.034 413 573.202 413 581.41C413 589.149 412.928 588.987 416.33 588.7C417.464 588.605 420.78 588.432 423.7 588.316C430.697 588.038 430.102 588.698 430.222 581.086L430.319 574.88L429.522 574.083C429.084 573.646 428.54 573.309 428.316 573.336C428.089 573.362 424.765 573.514 420.928 573.672ZM382.085 575.057C356.595 576.018 344.469 576.463 343.82 576.461C342.239 576.454 342.132 576.939 342.132 584.225C342.132 591.118 342.279 591.995 343.432 591.995C343.717 591.995 365.094 591.01 388.11 589.937C393.778 589.672 398.869 589.455 399.422 589.457C401.351 589.459 401.427 589.174 401.427 581.889C401.427 577.199 401.319 575.208 401.047 574.936C400.581 574.469 397.048 574.492 382.085 575.057ZM141.211 588.03C141.211 589.427 141.268 589.958 141.335 589.212C141.401 588.466 141.401 587.325 141.333 586.676C141.264 586.025 141.209 586.636 141.211 588.03ZM418.746 604.384C412.799 604.691 413.035 604.495 412.896 609.219C412.803 612.382 412.862 612.875 413.411 613.554L414.032 614.321L421.419 613.92C430.872 613.408 430.463 613.688 430.235 607.913C430.066 603.606 430.602 603.772 418.746 604.384ZM393.817 605.53C392.684 605.583 385.264 605.916 377.329 606.27C347.212 607.613 342.992 607.847 342.562 608.205C342.239 608.473 342.132 609.648 342.132 612.938C342.132 618.6 342.012 618.459 346.552 618.185C348.395 618.073 356.18 617.63 363.853 617.2C393.228 615.55 400.296 615.09 400.853 614.793C401.563 614.412 401.734 606.38 401.047 605.693C400.68 605.326 399.015 605.288 393.817 605.53ZM143.125 614.35C143.127 616.442 143.178 617.257 143.239 616.159C143.302 615.063 143.302 613.351 143.239 612.354C143.176 611.359 143.125 612.257 143.125 614.35ZM420.78 616.614C415.531 616.948 413.86 617.16 413.486 617.532C412.675 618.343 412.601 625.238 413.394 626.217L413.995 626.959L421.427 626.535C430.871 625.995 430.382 626.312 430.229 620.81C430.115 616.714 429.826 616.031 428.239 616.136C427.88 616.159 424.524 616.374 420.78 616.614ZM387.317 618.476C380.515 618.872 367.888 619.583 359.255 620.059C340.218 621.105 342.132 620.415 342.132 626.24C342.132 631.853 341.948 631.674 347.364 631.293C349.457 631.147 357.092 630.656 364.329 630.201C392.181 628.457 400.56 627.833 400.992 627.475C402.365 626.335 401.317 617.376 399.85 617.717C399.759 617.738 394.118 618.08 387.317 618.476ZM141.223 635.277C141.224 637.37 141.276 638.184 141.337 637.086C141.4 635.991 141.4 634.278 141.337 633.281C141.274 632.286 141.223 633.184 141.223 635.277ZM143.125 662.546C143.127 664.638 143.178 665.453 143.239 664.357C143.302 663.259 143.302 661.547 143.239 660.552C143.176 659.555 143.125 660.453 143.125 662.546ZM289.814 660.961C290.405 661.572 290.961 662.07 291.048 662.07C291.136 662.07 290.723 661.572 290.131 660.961C289.54 660.35 288.984 659.85 288.897 659.85C288.809 659.85 289.222 660.35 289.814 660.961ZM291.4 662.487C291.4 662.542 291.863 663.004 292.429 663.516L293.461 664.448L292.528 663.417C291.661 662.456 291.4 662.241 291.4 662.487ZM184.472 672.766C185.218 672.832 186.359 672.832 187.008 672.764C187.657 672.695 187.048 672.642 185.652 672.642C184.257 672.644 183.726 672.699 184.472 672.766ZM202.061 672.76C202.54 672.834 203.326 672.834 203.805 672.76C204.285 672.688 203.893 672.629 202.934 672.629C201.973 672.629 201.581 672.688 202.061 672.76Z" fill="#EBD3CB"/>
<path fill-rule="evenodd" clip-rule="evenodd" d="M398.574 135.176C398.574 135.232 399.038 135.696 399.605 136.208L400.634 137.138L399.704 136.109C398.836 135.148 398.574 134.931 398.574 135.176ZM484.397 189.215C484.316 189.348 485.809 190.884 487.715 192.628C511.944 214.777 529.336 244.762 538.297 279.825C538.385 280.175 537.726 279.247 536.83 277.765C535.934 276.283 535.061 274.928 534.89 274.755C534.302 274.165 535.472 276.968 536.65 278.973C539.09 283.126 539.987 286.305 541.269 295.363C541.663 298.133 542.54 301.959 542.736 301.763C542.928 301.571 541.632 292.667 540.761 288.175L539.981 284.159L542.473 280.349C554.297 262.269 559.618 240.761 557.391 220.056C556.723 213.856 555.058 206.581 554.132 205.811C553.776 205.516 553.804 205.86 554.274 207.433C559.944 226.483 557.233 250.666 547.184 270.672C544.657 275.701 540.154 283.105 539.825 282.774C539.762 282.713 539.071 280.17 538.288 277.122C531.654 251.324 519.778 227.933 503.196 208.006C496.183 199.58 484.938 188.338 484.397 189.215ZM314.938 198.811C314.938 199.422 315.003 199.671 315.083 199.367C315.162 199.06 315.162 198.562 315.083 198.256C315.003 197.951 314.938 198.201 314.938 198.811ZM314.938 212.762C314.938 213.373 315.003 213.622 315.083 213.318C315.162 213.013 315.162 212.513 315.083 212.209C315.003 211.902 314.938 212.153 314.938 212.762ZM461.771 223.068C461.773 224.115 461.832 224.505 461.902 223.934C461.975 223.365 461.973 222.509 461.9 222.031C461.828 221.556 461.769 222.022 461.771 223.068ZM626.105 239.679C632.663 263.612 631.05 290.626 621.923 309.653C619.646 314.401 610.543 328.499 609.753 328.499C609.628 328.499 609.43 327.464 609.312 326.199C607.813 309.97 601.165 287.139 594.429 275.069C591.459 269.748 585.877 262.14 585.555 262.977C585.468 263.205 586.071 264.179 586.893 265.146C597.206 277.23 605.446 300.292 608.619 325.961L609.07 329.608L605.975 334.364C596.932 348.26 590.019 362.908 584.986 378.835C584.138 381.52 583.91 381.662 583.636 379.671C582.542 371.69 577.66 356.958 571.876 344.195C568.802 337.41 563.013 326.332 562.885 326.988C562.832 327.26 564.072 329.96 565.642 332.985C574.608 350.277 580.824 367.108 583.008 380.013L583.571 383.342L582.551 387.549C581.069 393.66 580.704 395.558 579.144 405.267C578.369 410.082 577.517 414.975 577.247 416.138C576.954 417.399 576.865 418.451 577.026 418.738C577.378 419.368 578.32 414.865 579.785 405.55C581.149 396.86 581.571 394.653 582.996 388.704L584.109 384.063L585.277 383.871C585.92 383.765 587.271 383.677 588.282 383.675C591.248 383.67 596.242 383.027 596.685 382.595C597.014 382.273 596.767 382.243 595.416 382.437C594.493 382.57 591.636 382.781 589.063 382.907L584.389 383.135L584.886 381.463C589.735 365.137 597.294 348.903 606.838 334.321L609.567 330.154L612.116 329.125C633.818 320.366 653.161 303.688 665.58 283.025C668.396 278.34 671.582 271.983 671.581 271.059C671.579 270.619 670.69 272.073 669.421 274.594C657.11 299.046 636.127 318.794 612.36 328.299L610.37 329.094L612 326.815C629.33 302.602 634.419 279.243 628.9 249.228C627.755 243.001 626.176 236.861 625.719 236.861C625.445 236.861 625.555 237.672 626.105 239.679ZM467.256 244.604C467.368 244.896 468.768 245.063 472.231 245.206C494.907 246.132 513.7 253.331 526.915 266.15C530.759 269.879 531.737 270.014 528.085 266.312C515.328 253.379 495.274 245.417 473.405 244.604C471.051 244.519 468.669 244.391 468.114 244.323C467.389 244.235 467.146 244.315 467.256 244.604ZM236.941 253.251C237.246 253.331 237.746 253.331 238.05 253.251C238.355 253.171 238.105 253.107 237.495 253.107C236.886 253.107 236.635 253.171 236.941 253.251ZM593.719 254.064L592.787 255.093L593.818 254.163C594.779 253.295 594.994 253.033 594.75 253.033C594.695 253.033 594.231 253.497 593.719 254.064ZM266.112 254.836C266.417 254.916 266.917 254.916 267.221 254.836C267.528 254.756 267.277 254.691 266.668 254.691C266.057 254.691 265.808 254.756 266.112 254.836ZM590.865 256.917L589.933 257.947L590.964 257.016C591.925 256.149 592.14 255.886 591.896 255.886C591.841 255.886 591.377 256.35 590.865 256.917ZM341.579 258.959C341.883 259.039 342.383 259.039 342.688 258.959C342.992 258.879 342.743 258.814 342.132 258.814C341.522 258.814 341.272 258.879 341.579 258.959ZM423.386 263.397C423.691 263.477 424.191 263.477 424.495 263.397C424.8 263.317 424.55 263.253 423.94 263.253C423.329 263.253 423.08 263.317 423.386 263.397ZM152.748 303.211C145.045 335.281 149.285 361.481 166.046 385.372C169.838 390.777 169.827 390.713 166.735 389.36C142.395 378.723 123.552 361.02 111.251 337.231C109.689 334.212 108.452 332.144 108.448 332.546C108.437 334.001 114.019 344.24 117.913 349.902C130.418 368.082 148.066 382.488 167.618 390.473L170.512 391.656L173.055 395.511C176.415 400.602 177.87 403.007 180.473 407.767C181.946 410.459 182.64 411.473 182.64 410.932C182.64 409.945 177.855 401.492 173.94 395.562C170.605 390.509 170.812 391.673 171.895 384.147C175.194 361.199 182.396 340.567 191.091 329.167C192.35 327.513 192.569 326.227 191.338 327.706C185.469 334.756 179.179 348.829 175.378 363.421C173.287 371.44 170.591 385.854 170.591 389.004C170.591 389.558 170.483 390.012 170.354 390.011C170.064 390.009 164.034 381.394 161.695 377.646C149.609 358.265 146.639 329.926 153.76 301.942C154.39 299.467 154.551 298.375 154.289 298.375C154.061 298.375 153.442 300.313 152.748 303.211ZM469.124 344.035C469.984 344.908 470.758 345.621 470.844 345.621C470.932 345.621 470.3 344.908 469.442 344.035C468.584 343.163 467.81 342.45 467.722 342.45C467.634 342.45 468.266 343.163 469.124 344.035ZM668.729 350.593C659.193 358.924 645.018 367.67 633.561 372.291C631.691 373.044 631.107 373.398 631.605 373.47C635.169 373.995 655.609 362.143 666.87 353.024C669.075 351.24 670.966 349.841 671.073 349.919C671.179 349.997 671.198 349.971 671.118 349.86C671.036 349.75 671.12 349.381 671.303 349.04C671.891 347.943 671.476 348.192 668.729 350.593ZM436.112 350.663C434.832 351.445 433.926 352.741 433.466 354.455C432.999 356.186 433.22 356.525 433.722 354.849C434.346 352.769 437.653 350.576 439.243 351.184C439.54 351.299 439.774 351.125 439.881 350.713C440.117 349.815 437.558 349.782 436.112 350.663ZM441.589 351.15C441.475 351.449 441.884 351.881 442.773 352.4C445.046 353.734 446.916 356.043 448.252 359.171C448.866 360.607 448.994 360.765 448.849 359.909C448.195 356.04 442.398 349.044 441.589 351.15ZM481.966 356.561C482.913 357.52 483.76 358.304 483.848 358.304C483.935 358.304 483.231 357.52 482.284 356.561C481.336 355.6 480.49 354.816 480.402 354.816C480.317 354.816 481.019 355.6 481.966 356.561ZM397.32 366.073C397.32 367.434 398.958 369.935 413.204 390.33C421.307 401.926 438.551 426.611 451.524 445.185C464.499 463.757 476.749 481.308 478.747 484.186C483.962 491.699 484.833 492.468 488.172 492.498C490.714 492.521 489.966 493.052 523.981 467.117C558.205 441.022 557.566 441.532 558.424 439.645C559.312 437.687 559.112 437.219 558.138 438.979C557.259 440.568 555.146 442.23 521.443 467.838C518.827 469.824 514.048 473.462 510.821 475.918C484.493 495.963 487.573 495.634 476.399 479.588C473.121 474.879 465.353 463.75 459.14 454.855C452.924 445.961 444.504 433.905 440.425 428.062C436.346 422.22 426.929 408.737 419.496 398.098C412.064 387.459 404.298 376.345 402.242 373.396C400.183 370.449 398.235 367.453 397.91 366.737C397.541 365.927 397.32 365.678 397.32 366.073ZM494.968 369.243C495.559 369.854 496.115 370.354 496.201 370.354C496.288 370.354 495.875 369.854 495.284 369.243C494.692 368.632 494.136 368.134 494.051 368.134C493.963 368.134 494.376 368.632 494.968 369.243ZM473.78 377.538C471.793 378.929 471.814 378.044 473.542 388.057C474.314 392.533 476.249 403.828 477.84 413.16C479.432 422.49 480.878 430.874 481.057 431.791L481.378 433.458L483.096 432.267C484.04 431.611 484.814 430.945 484.816 430.785C484.818 430.625 484.04 425.916 483.089 420.321C482.135 414.726 480.347 404.226 479.116 396.989C476.656 382.515 475.608 376.575 475.496 376.461C475.456 376.421 474.683 376.904 473.78 377.538ZM457.234 389.531C451.229 391.466 449.81 399.068 453.919 407.293C458.78 417.022 466.83 420.498 471.696 414.968C478.766 406.937 467.068 386.365 457.234 389.531ZM488.311 392.332C487.702 392.526 486.467 393.403 485.566 394.282C477.164 402.476 490.594 424.575 500.875 419.473C511.74 414.079 499.956 388.624 488.311 392.332ZM519.065 392.647C519.065 392.703 519.529 393.167 520.096 393.679L521.127 394.611L520.195 393.58C519.327 392.619 519.065 392.404 519.065 392.647ZM460.692 395.863C466.251 398.737 470.766 411.258 466.244 411.258C461.299 411.258 454.475 397.385 458.603 395.722C459.564 395.334 459.686 395.343 460.692 395.863ZM492.652 398.878C495.211 400.438 499.345 407.392 499.64 410.632C500.068 415.365 496.17 415.135 492.546 410.213C487.417 403.246 487.487 395.728 492.652 398.878ZM533.176 406.501C534.034 407.373 534.808 408.086 534.895 408.086C534.983 408.086 534.351 407.373 533.493 406.501C532.633 405.628 531.859 404.915 531.773 404.915C531.686 404.915 532.318 405.628 533.176 406.501ZM108.688 410.278C110.128 414.165 133.434 429.181 145.834 434.211C150.419 436.072 149.498 435.022 144.748 432.975C132.827 427.836 121.927 421.025 111.384 412.127C109.734 410.735 108.559 409.928 108.688 410.278ZM545.86 418.868C546.718 419.739 547.492 420.453 547.579 420.453C547.667 420.453 547.035 419.739 546.175 418.868C545.317 417.994 544.543 417.281 544.456 417.281C544.368 417.281 545 417.994 545.86 418.868ZM522.952 429.096C497.26 445.839 488.688 451.423 485.079 453.765C479.46 457.41 478.344 459.29 480.242 461.887C482.377 464.805 483.049 464.621 492.299 458.592C496.294 455.987 505.772 449.816 513.357 444.877C532.611 432.341 532.538 432.391 533.008 431.253C534.142 428.519 532.441 425.523 529.763 425.528C528.591 425.532 527.725 425.985 522.952 429.096ZM109.489 507.016C109.489 507.975 109.548 508.367 109.62 507.888C109.694 507.408 109.694 506.624 109.62 506.145C109.548 505.665 109.489 506.057 109.489 507.016ZM287.753 541.693C287.23 542.247 286.18 543.198 285.421 543.805C283.273 545.519 281.669 547.094 282.302 546.864C282.763 546.699 282.858 546.799 282.778 547.368C282.715 547.825 282.829 548.047 283.1 547.992C283.33 547.943 283.45 548.017 283.366 548.154C283.28 548.291 283.414 548.677 283.659 549.014C283.904 549.351 284.106 549.522 284.106 549.394C284.106 549.267 284.306 549.347 284.549 549.571C284.793 549.798 284.937 550.072 284.869 550.182C284.802 550.294 285.139 550.458 285.617 550.549C286.602 550.739 288.229 549.925 288.229 549.244C288.229 548.767 289.806 547.395 290.204 547.524C290.339 547.568 290.449 547.389 290.449 547.127C290.449 546.866 290.592 546.651 290.765 546.651C290.94 546.651 291.082 546.818 291.082 547.022C291.082 547.568 291.433 547.121 291.535 546.444C291.598 546.031 291.847 545.886 292.384 545.951L293.143 546.044L292.351 545.413C291.916 545.066 291.558 544.537 291.556 544.237C291.556 543.936 291.341 543.634 291.081 543.561C290.662 543.447 290.662 543.474 291.082 543.797C291.505 544.123 291.505 544.149 291.082 544.033C290.82 543.963 290.607 543.624 290.607 543.284C290.607 542.943 290.179 542.218 289.656 541.674L288.704 540.683L287.753 541.693ZM292.974 550.336C292.544 550.916 292.076 551.394 291.931 551.4C291.552 551.411 290.765 552.258 290.765 552.653C290.765 552.84 290.457 552.994 290.08 552.994C289.053 552.994 287.532 554.82 287.936 555.574C288.109 555.899 288.495 556.165 288.796 556.169C289.195 556.173 289.231 556.242 288.933 556.432C288.619 556.632 288.676 556.877 289.186 557.526C289.547 557.984 289.8 558.414 289.749 558.477C289.697 558.54 289.89 559.08 290.177 559.677C290.464 560.273 290.835 561.12 291.003 561.555C291.17 561.991 291.64 563.06 292.047 563.933C292.454 564.805 292.814 565.625 292.846 565.756C292.878 565.887 292.941 566.064 292.985 566.152C293.029 566.239 293.093 566.418 293.13 566.549C293.168 566.679 293.364 567.188 293.567 567.679C293.771 568.17 293.944 568.741 293.953 568.948C293.963 569.154 294.366 570.301 294.849 571.496L295.73 573.668L296.278 570.545C296.849 567.278 297.053 561.677 296.708 558.701C296.295 555.149 296.214 554.758 295.871 554.643C295.679 554.579 295.523 554.288 295.527 553.997C295.531 553.536 295.574 553.53 295.873 553.945C296.149 554.328 296.174 554.297 295.997 553.785C295.734 553.028 295.578 552.343 295.546 551.805C295.532 551.586 295.272 551.396 294.967 551.383C294.634 551.367 294.572 551.293 294.808 551.198C295.026 551.11 295.205 550.899 295.205 550.728C295.205 550.559 295.076 550.5 294.918 550.597C294.758 550.694 294.699 550.509 294.785 550.184C295.074 549.073 293.834 549.178 292.974 550.336ZM285.579 550.993C285.466 551.105 285.752 551.851 286.21 552.65C287.344 554.624 287.612 554.872 287.529 553.867C287.491 553.403 287.395 553.087 287.317 553.163C287.078 553.405 286.322 552.621 286.507 552.322C286.602 552.168 286.515 552.043 286.311 552.043C286.107 552.043 286.022 551.833 286.121 551.577C286.311 551.08 285.915 550.656 285.579 550.993ZM127.468 553.409C127.468 553.464 127.932 553.928 128.499 554.44L129.528 555.372L128.598 554.341C127.73 553.38 127.468 553.165 127.468 553.409ZM206.345 554.17C206.741 554.244 207.312 554.242 207.614 554.162C207.917 554.082 207.595 554.021 206.897 554.025C206.199 554.029 205.951 554.094 206.345 554.17ZM441.216 587.555C441.216 606.129 441.254 613.727 441.3 604.439C441.348 595.153 441.348 579.958 441.3 570.67C441.254 561.384 441.216 568.983 441.216 587.555ZM439.616 555.61L438.684 556.639L439.715 555.709C440.676 554.841 440.891 554.579 440.648 554.579C440.592 554.579 440.128 555.043 439.616 555.61ZM134.891 577.251C134.891 580.39 134.939 581.63 134.998 580.009C135.055 578.387 135.055 575.818 134.996 574.302C134.939 572.784 134.891 574.112 134.891 577.251ZM420.928 573.672C412.15 574.034 413 573.202 413 581.41C413 589.149 412.928 588.987 416.33 588.7C417.464 588.605 420.78 588.432 423.7 588.316C430.697 588.038 430.102 588.698 430.222 581.086L430.319 574.88L429.522 574.083C429.084 573.646 428.54 573.309 428.316 573.336C428.089 573.362 424.765 573.514 420.928 573.672ZM382.085 575.057C356.595 576.018 344.469 576.463 343.82 576.461C342.239 576.454 342.132 576.939 342.132 584.225C342.132 591.118 342.279 591.995 343.432 591.995C343.717 591.995 365.094 591.01 388.11 589.937C393.778 589.672 398.869 589.455 399.422 589.457C401.351 589.459 401.427 589.174 401.427 581.889C401.427 577.199 401.319 575.208 401.047 574.936C400.581 574.469 397.048 574.492 382.085 575.057ZM141.211 588.03C141.211 589.427 141.268 589.958 141.335 589.212C141.401 588.466 141.401 587.325 141.333 586.676C141.264 586.025 141.209 586.636 141.211 588.03ZM418.746 604.384C412.799 604.691 413.035 604.495 412.896 609.219C412.803 612.382 412.862 612.875 413.411 613.554L414.032 614.321L421.419 613.92C430.872 613.408 430.463 613.688 430.235 607.913C430.066 603.606 430.602 603.772 418.746 604.384ZM393.817 605.53C392.684 605.583 385.264 605.916 377.329 606.27C347.212 607.613 342.992 607.847 342.562 608.205C342.239 608.473 342.132 609.648 342.132 612.938C342.132 618.6 342.012 618.459 346.552 618.185C348.395 618.073 356.18 617.63 363.853 617.2C393.228 615.55 400.296 615.09 400.853 614.793C401.563 614.412 401.734 606.38 401.047 605.693C400.68 605.326 399.015 605.288 393.817 605.53ZM143.125 614.35C143.127 616.442 143.178 617.257 143.239 616.159C143.302 615.063 143.302 613.351 143.239 612.354C143.176 611.359 143.125 612.257 143.125 614.35ZM420.78 616.614C415.531 616.948 413.86 617.16 413.486 617.532C412.675 618.343 412.601 625.238 413.394 626.217L413.995 626.959L421.427 626.535C430.871 625.995 430.382 626.312 430.229 620.81C430.115 616.714 429.826 616.031 428.239 616.136C427.88 616.159 424.524 616.374 420.78 616.614ZM387.317 618.476C380.515 618.872 367.888 619.583 359.255 620.059C340.218 621.105 342.132 620.415 342.132 626.24C342.132 631.853 341.948 631.674 347.364 631.293C349.457 631.147 357.092 630.656 364.329 630.201C392.181 628.457 400.56 627.833 400.992 627.475C402.365 626.335 401.317 617.376 399.85 617.717C399.759 617.738 394.118 618.08 387.317 618.476ZM141.223 635.277C141.224 637.37 141.276 638.184 141.337 637.086C141.4 635.991 141.4 634.278 141.337 633.281C141.274 632.286 141.223 633.184 141.223 635.277ZM143.125 662.546C143.127 664.638 143.178 665.453 143.239 664.357C143.302 663.259 143.302 661.547 143.239 660.552C143.176 659.555 143.125 660.453 143.125 662.546ZM289.814 660.961C290.405 661.572 290.961 662.07 291.048 662.07C291.136 662.07 290.723 661.572 290.131 660.961C289.54 660.35 288.984 659.85 288.897 659.85C288.809 659.85 289.222 660.35 289.814 660.961ZM291.4 662.487C291.4 662.542 291.863 663.004 292.429 663.516L293.461 664.448L292.528 663.417C291.661 662.456 291.4 662.241 291.4 662.487ZM184.472 672.766C185.218 672.832 186.359 672.832 187.008 672.764C187.657 672.695 187.048 672.642 185.652 672.642C184.257 672.644 183.726 672.699 184.472 672.766ZM202.061 672.76C202.54 672.834 203.326 672.834 203.805 672.76C204.285 672.688 203.893 672.629 202.934 672.629C201.973 672.629 201.581 672.688 202.061 672.76Z" fill="#EBD3CB"/>
</svg>
