<svg id="svg" version="1.1" xmlns="http://www.w3.org/2000/svg" xmlns:xlink="http://www.w3.org/1999/xlink" width="400" height="400" viewBox="0, 0, 400,400"><g id="svgg"><path id="path0" d="M197.100 34.532 C 176.267 37.006,167.063 61.321,181.222 76.482 C 195.113 91.356,220.256 83.911,223.945 63.830 C 226.882 47.840,212.963 32.649,197.100 34.532 M204.693 38.897 C 220.455 43.040,225.875 62.459,214.532 74.149 C 203.719 85.291,185.016 81.335,179.523 66.743 C 173.568 50.922,188.325 34.596,204.693 38.897 M193.640 44.040 C 193.255 44.425,193.292 44.554,195.690 51.206 L 197.979 57.556 197.590 58.320 C 197.103 59.274,197.101 59.735,197.577 60.516 C 198.491 62.014,200.536 61.857,201.318 60.229 C 201.716 59.400,201.880 59.289,204.782 57.883 C 207.699 56.469,207.825 56.384,207.764 55.854 C 207.662 54.971,207.114 55.074,204.036 56.555 L 201.185 57.927 200.308 57.520 L 199.431 57.113 197.202 50.907 C 194.578 43.603,194.407 43.273,193.640 44.040 M152.743 85.823 C 146.553 86.420,138.678 89.111,134.118 92.188 C 127.088 96.932,125.041 102.990,126.186 115.661 C 126.652 120.822,125.674 123.034,120.589 128.319 C 116.711 132.349,115.644 134.862,115.852 139.470 C 115.959 141.833,116.117 142.416,117.515 145.586 C 118.688 148.246,118.607 149.119,116.701 154.300 C 114.259 160.941,117.780 166.982,123.842 166.550 C 126.591 166.354,128.080 165.167,129.818 161.785 C 130.998 159.486,132.054 158.309,133.215 157.996 C 134.055 157.770,134.361 157.816,136.600 158.501 C 142.881 160.424,148.083 159.004,150.157 154.800 C 150.684 153.733,150.700 153.596,150.707 150.200 C 150.716 146.196,150.713 146.207,152.389 143.982 C 154.829 140.744,154.375 138.073,150.550 133.179 C 147.050 128.699,146.864 128.256,148.095 127.318 C 149.745 126.059,150.291 124.613,149.120 124.603 C 147.699 124.592,145.073 122.326,143.986 120.173 C 140.392 113.052,144.978 108.763,150.970 113.642 L 152.441 114.839 153.670 114.393 C 160.387 111.961,165.555 106.309,168.100 98.613 L 168.658 96.925 169.454 98.507 C 174.020 107.582,179.151 131.221,177.322 134.757 C 176.266 136.799,168.506 139.000,162.364 139.000 L 160.548 139.000 160.689 140.650 C 161.128 145.793,162.891 152.425,163.893 152.703 C 164.007 152.735,165.848 153.179,167.984 153.690 C 172.521 154.777,176.989 156.208,179.537 157.392 L 181.343 158.232 183.922 157.797 C 195.396 155.860,198.028 150.959,192.242 142.307 C 189.463 138.152,189.371 137.772,190.177 133.772 C 190.799 130.688,190.836 130.147,190.525 128.653 C 189.903 125.673,188.252 123.326,184.255 119.743 C 178.564 114.641,177.578 113.186,175.977 107.530 C 174.194 101.226,173.214 99.018,170.781 95.815 L 169.349 93.931 169.575 92.315 C 169.896 90.017,169.926 90.110,168.529 89.113 C 164.594 86.305,159.266 85.195,152.743 85.823 M221.100 92.700 C 220.101 93.054,219.096 94.123,218.816 95.131 C 218.668 95.662,218.602 106.635,218.601 130.650 L 218.600 165.400 277.800 165.400 L 337.000 165.400 337.032 139.450 C 337.082 99.200,337.045 95.471,336.583 94.488 C 336.163 93.595,335.461 92.994,334.420 92.634 C 333.315 92.253,222.182 92.318,221.100 92.700 M332.000 128.000 L 332.000 159.400 277.800 159.400 L 223.600 159.400 223.600 128.000 L 223.600 96.600 277.800 96.600 L 332.000 96.600 332.000 128.000 M92.244 168.138 C 91.854 168.216,91.803 168.323,91.892 168.865 C 92.042 169.772,92.800 175.714,92.800 175.979 C 92.800 176.108,93.175 176.200,93.700 176.200 C 94.788 176.200,94.759 176.503,94.138 171.600 C 93.650 167.746,93.704 167.845,92.244 168.138 M234.421 169.507 C 234.079 169.896,233.800 170.383,233.800 170.590 C 233.800 172.221,235.241 184.308,235.450 184.427 C 235.587 184.506,236.145 184.889,236.690 185.279 C 237.234 185.668,237.701 185.966,237.727 185.940 C 237.752 185.914,237.500 182.340,237.167 177.997 L 236.561 170.100 235.941 169.450 C 235.174 168.645,235.177 168.645,234.421 169.507 M149.400 173.731 C 135.195 174.694,123.294 177.619,120.899 180.736 C 119.349 182.753,117.011 188.267,115.796 192.771 L 115.356 194.400 85.278 194.400 L 55.200 194.400 55.200 200.485 L 55.200 206.570 59.150 206.581 C 61.323 206.587,63.303 206.594,63.550 206.596 L 64.000 206.600 64.000 217.777 L 64.000 228.953 64.450 229.074 C 64.698 229.140,65.287 229.196,65.759 229.197 L 66.618 229.200 66.459 228.450 C 65.282 222.901,67.720 216.118,71.872 213.388 L 73.157 212.544 73.128 209.574 L 73.100 206.604 92.900 206.552 C 103.790 206.523,112.870 206.536,113.078 206.581 C 113.427 206.655,113.447 206.805,113.336 208.499 C 113.067 212.593,113.779 218.367,115.006 222.042 C 117.421 229.277,121.723 233.073,130.034 235.299 C 132.659 236.002,132.451 236.116,132.873 233.750 C 133.315 231.273,135.076 224.214,135.442 223.448 C 136.582 221.068,142.000 220.836,145.216 223.031 L 146.152 223.669 145.768 224.985 C 144.593 229.013,142.991 237.058,143.302 237.368 C 143.606 237.672,155.674 237.483,158.700 237.128 C 168.379 235.991,176.445 233.235,178.203 230.463 C 182.348 223.927,183.936 192.885,180.696 181.706 C 179.802 178.620,179.029 177.642,176.626 176.552 C 171.827 174.376,159.192 173.067,149.400 173.731 M299.000 177.273 C 299.000 177.313,299.715 178.487,300.589 179.883 C 304.009 185.343,306.400 191.143,306.400 193.980 C 306.400 194.373,306.131 194.376,268.009 194.438 L 229.619 194.500 227.459 196.638 C 224.980 199.093,222.482 201.189,218.500 204.156 C 216.960 205.303,215.614 206.323,215.510 206.421 C 215.397 206.527,233.751 206.599,260.310 206.596 C 297.241 206.592,305.310 206.638,305.356 206.853 C 305.388 206.997,305.053 208.893,304.612 211.065 C 302.085 223.530,302.813 229.587,307.406 234.328 C 311.366 238.415,316.527 240.240,324.100 240.230 L 327.300 240.226 327.300 281.363 L 327.300 322.500 331.850 322.554 L 336.400 322.608 336.400 280.711 L 336.400 238.815 337.250 238.595 C 341.106 237.597,344.549 236.451,347.442 235.202 C 349.602 234.271,349.619 234.268,350.119 234.820 C 352.841 237.829,358.009 234.540,356.709 230.627 C 355.468 226.891,349.971 227.048,348.999 230.847 C 348.878 231.316,348.748 231.799,348.708 231.921 C 348.547 232.408,342.055 234.856,338.150 235.902 L 336.400 236.371 336.400 221.486 C 336.400 207.443,336.420 206.600,336.750 206.598 C 336.943 206.597,338.923 206.586,341.150 206.573 L 345.200 206.549 345.200 200.475 L 345.200 194.400 336.150 194.394 C 331.173 194.390,323.011 194.368,318.013 194.344 L 308.927 194.300 308.490 192.100 C 307.693 188.089,305.937 183.935,303.100 179.350 L 301.770 177.200 300.385 177.200 C 299.623 177.200,299.000 177.233,299.000 177.273 M185.800 201.917 C 185.800 202.301,186.589 206.220,186.703 206.406 C 186.820 206.594,189.000 206.692,189.000 206.509 C 189.000 206.459,188.280 205.364,187.400 204.075 C 186.520 202.787,185.800 201.815,185.800 201.917 M327.130 206.663 C 327.256 206.789,327.218 237.648,327.092 237.775 C 326.823 238.044,320.475 237.849,318.742 237.519 C 308.611 235.589,304.416 229.224,305.815 217.900 C 306.072 215.818,307.851 206.730,308.026 206.600 C 308.177 206.489,327.017 206.551,327.130 206.663 M124.031 247.295 C 114.918 251.731,112.900 259.249,119.600 263.798 C 122.917 266.050,130.562 268.562,136.358 269.304 L 137.417 269.440 136.276 267.770 C 134.533 265.219,133.067 261.732,132.419 258.596 C 132.216 257.614,132.019 257.315,130.633 255.883 C 128.748 253.937,127.485 251.567,126.672 248.450 C 126.378 247.322,126.077 246.400,126.004 246.400 C 125.931 246.400,125.043 246.803,124.031 247.295 M203.200 254.822 C 190.069 258.625,165.747 261.382,150.300 260.818 C 148.210 260.742,146.467 260.702,146.427 260.729 C 145.973 261.039,150.071 266.867,152.400 269.224 L 154.500 271.349 157.882 271.474 C 179.587 272.280,196.723 268.831,203.029 262.387 C 204.363 261.024,205.608 258.689,205.638 257.494 C 205.658 256.709,204.897 254.379,204.636 254.423 C 204.561 254.435,203.915 254.615,203.200 254.822 M37.760 291.872 C 34.824 293.175,34.908 297.820,37.880 298.529 C 38.221 298.611,38.568 298.694,38.650 298.714 C 38.733 298.734,38.970 298.761,39.178 298.775 C 39.450 298.793,39.593 299.009,39.688 299.550 C 39.761 299.963,40.408 303.315,41.125 307.000 C 42.458 313.845,42.688 315.038,44.799 326.000 C 45.466 329.465,46.106 332.773,46.220 333.350 L 46.428 334.400 60.002 334.400 C 68.753 334.400,73.620 334.330,73.699 334.202 C 73.818 334.010,74.698 329.387,78.291 310.100 C 79.233 305.040,80.096 300.444,80.209 299.886 C 80.410 298.887,80.427 298.869,81.387 298.623 C 84.759 297.758,85.020 293.051,81.761 291.870 C 80.806 291.524,38.539 291.526,37.760 291.872 M169.811 300.374 C 168.555 303.452,167.537 306.045,167.549 306.135 C 167.560 306.226,175.383 308.784,184.934 311.821 L 202.300 317.341 202.365 316.738 C 202.450 315.947,201.720 313.961,200.870 312.674 C 199.174 310.105,195.639 307.769,186.443 303.141 C 183.299 301.558,182.799 301.244,182.880 300.900 C 182.931 300.680,183.029 300.185,183.099 299.800 L 183.225 299.100 180.862 299.100 C 177.369 299.100,174.935 298.076,172.949 295.771 L 172.093 294.777 169.811 300.374 M235.485 305.778 C 233.149 307.198,229.156 307.557,225.923 306.636 C 225.056 306.389,224.329 306.212,224.306 306.243 C 224.251 306.321,225.998 319.265,226.075 319.341 C 226.155 319.422,261.178 311.833,261.697 311.623 C 262.055 311.478,261.977 311.346,260.897 310.267 C 257.813 307.188,254.247 306.662,240.557 307.265 L 236.813 307.430 236.582 306.511 C 236.298 305.383,236.220 305.331,235.485 305.778 M122.549 321.004 C 114.286 323.092,114.885 335.242,123.308 336.385 C 132.105 337.579,135.734 325.330,127.698 321.570 C 126.265 320.899,123.965 320.647,122.549 321.004 M191.182 321.166 C 183.355 323.762,184.367 335.280,192.519 336.386 C 198.619 337.214,203.256 330.914,200.648 325.341 C 199.010 321.840,194.777 319.974,191.182 321.166 M126.300 324.513 C 129.852 326.199,129.792 331.155,126.200 332.783 C 121.645 334.848,117.683 328.948,121.237 325.393 C 122.428 324.203,124.783 323.793,126.300 324.513 M195.462 324.471 C 198.491 325.737,199.047 330.048,196.456 332.185 C 193.047 334.997,188.034 331.626,189.275 327.356 C 189.999 324.865,193.026 323.454,195.462 324.471 M211.400 369.300 C 211.201 369.540,211.193 369.673,211.368 369.848 C 211.791 370.271,211.609 370.581,210.794 370.825 C 209.940 371.081,209.811 371.539,210.620 371.444 C 210.884 371.413,211.723 371.323,212.484 371.244 C 214.080 371.078,214.498 370.658,213.163 370.562 C 212.323 370.502,212.300 370.481,212.300 369.805 C 212.300 369.024,211.842 368.767,211.400 369.300 M215.704 371.793 C 215.638 371.900,215.767 372.101,215.990 372.240 C 216.213 372.380,216.683 372.878,217.035 373.347 C 217.387 373.816,217.793 374.200,217.937 374.200 C 218.280 374.200,218.270 373.969,217.906 373.488 C 217.501 372.952,217.529 372.665,218.000 372.542 C 218.486 372.415,218.528 371.837,218.064 371.659 C 217.845 371.574,217.630 371.679,217.442 371.962 L 217.155 372.394 216.651 371.997 C 216.087 371.554,215.880 371.509,215.704 371.793 M223.293 371.790 C 222.641 372.055,222.321 372.580,222.207 373.573 C 222.110 374.410,222.045 374.506,221.538 374.564 C 220.714 374.659,220.810 375.867,221.650 375.963 L 222.200 376.027 222.200 378.113 L 222.200 380.200 222.900 380.200 L 223.600 380.200 223.600 378.100 L 223.600 376.000 224.500 376.000 C 225.874 376.000,225.920 374.661,224.550 374.561 C 223.747 374.503,223.702 374.468,223.742 373.917 C 223.794 373.204,224.125 372.957,224.850 373.090 C 225.361 373.183,225.400 373.142,225.400 372.516 C 225.400 371.633,224.471 371.313,223.293 371.790 M249.000 372.000 C 248.344 372.656,248.759 373.590,249.710 373.597 C 250.826 373.605,250.950 372.057,249.860 371.717 C 249.550 371.620,249.296 371.704,249.000 372.000 M210.434 372.321 C 208.475 373.297,206.961 376.654,208.065 377.571 C 209.865 379.065,217.804 377.526,217.466 375.749 C 216.852 372.528,213.398 370.844,210.434 372.321 M251.400 376.000 L 251.400 380.200 252.200 380.200 L 253.000 380.200 253.000 379.200 C 253.000 378.650,253.054 378.200,253.119 378.200 C 253.185 378.200,253.643 378.650,254.138 379.200 C 254.995 380.153,255.085 380.200,256.062 380.200 L 257.086 380.200 256.086 379.150 C 255.536 378.572,254.912 377.892,254.701 377.638 L 254.316 377.175 255.675 375.888 L 257.034 374.600 256.088 374.600 C 255.235 374.600,255.040 374.694,254.121 375.550 L 253.100 376.500 253.044 374.150 L 252.987 371.800 252.194 371.800 L 251.400 371.800 251.400 376.000 M147.800 373.800 C 147.800 374.570,147.760 375.200,147.711 375.200 C 147.663 375.200,147.299 375.009,146.903 374.775 C 144.536 373.379,142.218 376.812,143.813 379.350 C 144.452 380.366,146.340 380.678,147.191 379.909 C 147.620 379.520,147.800 379.517,147.800 379.900 C 147.800 380.067,147.978 380.200,148.200 380.200 C 148.586 380.200,148.600 380.067,148.600 376.300 C 148.600 372.533,148.586 372.400,148.200 372.400 C 147.838 372.400,147.800 372.533,147.800 373.800 M186.800 373.797 L 186.800 375.194 186.150 374.798 C 183.861 373.402,181.570 376.165,182.769 378.876 C 183.404 380.312,184.851 380.794,186.150 380.002 C 186.680 379.679,186.800 379.661,186.800 379.903 C 186.800 380.086,186.991 380.200,187.300 380.200 L 187.800 380.200 187.800 376.300 L 187.800 372.400 187.300 372.400 C 186.814 372.400,186.800 372.440,186.800 373.797 M192.000 376.300 C 192.000 380.067,192.014 380.200,192.400 380.200 C 192.622 380.200,192.800 380.067,192.800 379.900 C 192.800 379.650,192.927 379.667,193.547 380.000 C 195.456 381.023,197.200 379.753,197.200 377.340 C 197.200 375.039,194.898 373.544,193.419 374.883 C 192.861 375.388,192.800 375.282,192.800 373.800 C 192.800 372.533,192.762 372.400,192.400 372.400 C 192.014 372.400,192.000 372.533,192.000 376.300 M207.847 372.886 C 207.432 373.413,207.000 373.567,207.000 373.186 C 207.000 373.068,206.798 373.001,206.550 373.036 C 205.972 373.118,205.969 373.642,206.545 373.895 C 206.928 374.063,206.973 374.196,206.870 374.845 C 206.712 375.832,207.283 375.933,207.479 374.953 C 207.550 374.598,207.840 373.958,208.122 373.531 C 208.731 372.611,208.496 372.061,207.847 372.886 M161.472 372.900 C 161.314 373.313,161.529 373.800,161.869 373.800 C 162.279 373.800,162.627 373.303,162.482 372.925 C 162.325 372.517,161.626 372.499,161.472 372.900 M211.873 374.415 C 212.562 374.956,212.577 375.841,211.909 376.509 C 210.818 377.600,209.028 376.404,209.580 374.953 C 209.955 373.966,210.993 373.722,211.873 374.415 M215.355 374.311 C 215.874 374.674,215.937 375.435,215.486 375.886 C 214.845 376.526,213.600 375.978,213.600 375.055 C 213.600 374.265,214.652 373.819,215.355 374.311 M151.700 374.543 C 149.433 375.092,149.133 379.044,151.285 380.021 C 152.510 380.578,154.226 380.367,154.698 379.603 C 154.973 379.158,154.493 378.976,153.884 379.293 C 152.650 379.937,150.937 379.283,150.760 378.100 C 150.703 377.723,150.829 377.697,152.950 377.643 L 155.200 377.587 155.200 377.040 C 155.200 375.342,153.478 374.113,151.700 374.543 M156.868 374.787 C 155.188 375.811,155.858 377.179,158.347 377.802 C 159.402 378.066,159.793 378.655,159.285 379.217 C 158.831 379.718,157.692 379.716,156.866 379.212 C 156.308 378.872,156.219 378.863,156.113 379.138 C 155.652 380.340,158.815 380.803,159.922 379.696 C 160.938 378.680,160.248 377.441,158.376 376.918 C 156.986 376.530,156.697 376.236,157.117 375.636 C 157.493 375.100,158.685 375.042,159.377 375.527 C 159.825 375.840,160.185 375.684,160.197 375.172 C 160.212 374.540,157.742 374.254,156.868 374.787 M164.860 374.781 C 163.189 375.828,163.152 379.118,164.800 380.000 C 165.511 380.380,166.777 380.292,167.419 379.818 L 168.000 379.388 168.000 380.009 C 168.000 381.500,165.783 382.371,164.635 381.332 C 164.316 381.043,164.266 381.049,164.044 381.403 C 163.516 382.249,166.412 382.888,167.686 382.207 C 168.658 381.687,168.800 381.116,168.800 377.710 C 168.800 374.733,168.783 374.600,168.400 374.600 C 168.178 374.600,168.000 374.733,168.000 374.900 C 168.000 375.285,167.820 375.280,167.381 374.883 C 166.811 374.367,165.598 374.318,164.860 374.781 M171.950 374.789 C 171.332 375.128,171.200 375.148,171.200 374.900 C 171.200 374.733,171.022 374.600,170.800 374.600 C 170.419 374.600,170.400 374.733,170.400 377.400 C 170.400 380.067,170.419 380.200,170.800 380.200 C 171.174 380.200,171.200 380.067,171.200 378.131 C 171.200 375.808,171.366 375.474,172.625 375.277 C 173.880 375.081,174.090 375.450,174.168 377.984 C 174.230 380.009,174.268 380.200,174.618 380.200 C 175.174 380.200,175.200 375.692,174.648 375.010 C 174.132 374.372,172.892 374.271,171.950 374.789 M177.556 374.841 C 175.593 375.978,175.751 379.257,177.808 380.080 C 179.027 380.568,180.647 380.333,181.098 379.603 C 181.373 379.158,180.867 378.930,180.372 379.277 C 179.408 379.952,177.827 379.565,177.326 378.532 C 176.897 377.644,176.996 377.600,179.412 377.600 L 181.600 377.600 181.600 377.047 C 181.600 375.046,179.334 373.810,177.556 374.841 M228.045 374.711 C 227.795 374.886,227.600 374.930,227.600 374.811 C 227.600 374.695,227.240 374.600,226.800 374.600 L 226.000 374.600 226.000 377.400 L 226.000 380.200 226.800 380.200 L 227.600 380.200 227.600 378.400 C 227.600 376.419,227.904 375.800,228.877 375.800 C 229.383 375.800,230.110 374.940,229.897 374.594 C 229.709 374.292,228.538 374.366,228.045 374.711 M231.060 374.792 C 228.535 376.331,229.688 380.400,232.649 380.400 C 233.563 380.400,235.006 379.925,234.996 379.627 C 234.972 378.945,234.263 378.594,233.529 378.901 C 232.728 379.235,232.198 379.169,231.701 378.673 C 231.148 378.119,231.388 378.015,233.350 377.957 L 235.300 377.900 235.364 377.342 C 235.604 375.253,232.916 373.660,231.060 374.792 M237.180 374.854 C 233.861 377.071,237.164 382.067,240.574 379.988 L 241.248 379.577 240.814 379.115 C 240.406 378.681,240.335 378.669,239.596 378.924 C 238.685 379.238,237.946 379.047,237.605 378.410 C 237.391 378.009,237.432 378.000,239.393 378.000 L 241.400 378.000 241.399 377.150 C 241.397 374.931,239.009 373.632,237.180 374.854 M244.150 374.714 C 243.831 374.887,243.600 374.926,243.600 374.806 C 243.600 374.693,243.285 374.600,242.900 374.600 L 242.200 374.600 242.200 378.600 L 242.200 382.600 242.900 382.600 L 243.600 382.600 243.600 381.200 C 243.600 379.660,243.600 379.660,244.311 380.126 C 245.555 380.940,247.579 379.964,248.017 378.337 C 248.713 375.750,246.340 373.526,244.150 374.714 M161.600 377.400 C 161.600 380.067,161.619 380.200,162.000 380.200 C 162.381 380.200,162.400 380.067,162.400 377.400 C 162.400 374.733,162.381 374.600,162.000 374.600 C 161.619 374.600,161.600 374.733,161.600 377.400 M197.658 374.850 C 197.713 374.988,198.228 376.244,198.803 377.642 C 199.887 380.279,199.952 380.819,199.270 381.502 C 199.089 381.683,198.774 381.787,198.570 381.734 C 198.309 381.666,198.200 381.746,198.200 382.007 C 198.200 382.549,198.518 382.658,199.325 382.392 C 200.136 382.124,200.528 381.342,203.012 375.050 C 203.167 374.659,203.127 374.600,202.713 374.600 C 202.292 374.600,202.135 374.858,201.368 376.799 C 200.891 378.008,200.455 378.997,200.400 378.997 C 200.345 378.997,199.901 378.008,199.413 376.799 C 198.627 374.849,198.472 374.600,198.042 374.600 C 197.734 374.600,197.594 374.691,197.658 374.850 M248.800 377.400 L 248.800 380.200 249.600 380.200 L 250.400 380.200 250.400 377.400 L 250.400 374.600 249.600 374.600 L 248.800 374.600 248.800 377.400 M147.005 375.538 C 147.731 376.035,147.794 376.186,147.797 377.450 C 147.803 379.591,145.643 380.464,144.595 378.745 C 143.376 376.746,145.209 374.309,147.005 375.538 M153.673 375.650 C 154.863 376.732,154.635 377.000,152.524 377.000 L 150.621 377.000 150.831 376.397 C 151.253 375.187,152.735 374.797,153.673 375.650 M167.350 375.598 C 168.127 376.071,168.335 378.236,167.669 378.902 C 166.092 380.480,163.866 378.724,164.605 376.485 C 164.999 375.292,166.207 374.901,167.350 375.598 M180.073 375.650 C 181.263 376.732,181.035 377.000,178.924 377.000 L 177.021 377.000 177.231 376.397 C 177.653 375.187,179.135 374.797,180.073 375.650 M186.273 375.615 C 187.107 376.271,187.070 378.754,186.219 379.257 C 184.732 380.136,183.500 379.295,183.500 377.400 C 183.500 375.480,184.931 374.559,186.273 375.615 M195.269 375.422 C 197.172 376.289,196.285 379.861,194.248 379.530 C 193.072 379.339,192.800 378.933,192.800 377.366 C 192.800 375.563,193.818 374.761,195.269 375.422 M233.434 376.131 C 234.030 376.670,233.867 376.800,232.600 376.800 C 231.319 376.800,231.289 376.781,231.607 376.187 C 231.868 375.700,232.922 375.668,233.434 376.131 M239.673 376.240 C 239.983 376.736,239.778 376.828,238.518 376.761 L 237.390 376.700 237.714 376.239 C 238.103 375.685,239.326 375.686,239.673 376.240 M246.109 376.291 C 247.057 377.239,246.401 379.000,245.100 379.000 C 244.380 379.000,243.600 378.168,243.600 377.400 C 243.600 376.632,244.380 375.800,245.100 375.800 C 245.385 375.800,245.839 376.021,246.109 376.291 M217.078 377.402 C 216.248 378.232,211.984 378.953,209.858 378.622 C 208.249 378.372,208.239 378.378,208.934 379.203 C 211.101 381.780,215.793 381.059,217.092 377.950 C 217.419 377.168,217.416 377.064,217.078 377.402 " stroke="none" fill="#442655" fill-rule="evenodd"></path><path id="path1" d="M196.317 38.407 C 178.967 41.143,172.096 62.476,184.675 74.553 C 196.458 85.865,215.749 80.444,219.943 64.641 C 223.746 50.312,210.947 36.100,196.317 38.407 M204.100 41.382 C 215.343 44.347,221.198 56.909,216.206 67.352 C 209.448 81.490,189.362 81.510,182.610 67.386 C 175.849 53.244,188.954 37.387,204.100 41.382 M43.800 89.400 L 43.800 121.200 84.768 121.200 L 125.737 121.200 126.102 119.992 C 126.445 118.860,126.450 118.587,126.184 115.642 C 125.276 105.598,126.432 99.722,130.123 95.617 L 131.037 94.600 125.819 94.600 L 120.600 94.600 120.600 91.800 C 120.600 89.115,120.583 89.000,120.192 89.000 C 117.813 89.000,115.912 85.321,117.091 83.000 C 117.755 81.693,119.166 80.600,120.189 80.600 C 120.588 80.600,120.596 80.480,120.647 73.650 L 120.700 66.700 132.050 66.648 L 143.400 66.597 143.400 77.220 C 143.400 87.255,143.419 87.835,143.750 87.707 C 144.769 87.311,148.829 86.380,150.868 86.075 L 153.200 85.726 153.200 71.663 L 153.200 57.600 98.500 57.600 L 43.800 57.600 43.800 89.400 M57.100 67.301 C 62.482 67.914,66.419 68.371,67.550 68.516 C 68.595 68.649,68.581 68.004,67.700 75.486 C 67.315 78.756,67.000 81.604,67.000 81.816 C 67.000 82.189,67.253 82.200,75.900 82.200 L 84.800 82.200 84.800 90.300 L 84.800 98.400 73.400 98.400 L 62.000 98.400 62.000 94.528 L 62.000 90.655 60.650 90.522 C 57.428 90.203,49.114 89.180,49.025 89.092 C 48.971 89.038,49.077 87.713,49.259 86.147 C 49.442 84.581,50.006 79.655,50.513 75.200 C 51.584 65.788,51.432 66.580,52.142 66.704 C 52.449 66.757,54.680 67.026,57.100 67.301 M110.951 77.377 C 112.435 78.138,113.256 79.552,113.241 81.325 C 113.210 85.279,108.179 86.965,105.632 83.876 C 102.725 80.349,106.869 75.284,110.951 77.377 M111.848 93.128 C 112.942 93.687,113.463 95.395,112.926 96.656 C 111.739 99.442,107.400 98.614,107.400 95.602 C 107.400 93.340,109.728 92.045,111.848 93.128 M98.200 108.200 L 98.200 114.200 93.500 114.200 L 88.800 114.200 88.800 108.200 L 88.800 102.200 93.500 102.200 L 98.200 102.200 98.200 108.200 M110.800 108.200 L 110.800 114.200 106.100 114.200 L 101.400 114.200 101.400 108.200 L 101.400 102.200 106.100 102.200 L 110.800 102.200 110.800 108.200 M337.000 129.398 L 337.000 135.800 347.503 135.800 L 358.006 135.800 357.953 129.450 L 357.900 123.100 347.450 123.048 L 337.000 122.996 337.000 129.398 M150.650 148.500 C 150.653 148.940,150.694 149.096,150.741 148.848 C 150.789 148.599,150.787 148.239,150.737 148.048 C 150.687 147.856,150.648 148.060,150.650 148.500 M264.230 170.124 C 261.001 170.481,258.334 170.802,258.304 170.837 C 258.273 170.872,258.365 171.890,258.508 173.100 C 258.651 174.310,258.964 176.965,259.204 179.000 C 259.444 181.035,259.653 182.714,259.670 182.732 C 259.686 182.749,260.870 182.636,262.300 182.481 C 263.730 182.325,266.385 182.039,268.200 181.845 L 271.500 181.491 271.485 180.896 C 271.457 179.756,270.326 169.699,270.213 169.587 C 270.151 169.524,267.458 169.766,264.230 170.124 M240.905 170.650 C 240.735 171.622,239.596 181.863,239.652 181.914 C 239.678 181.938,241.770 182.197,244.300 182.489 C 246.830 182.781,249.471 183.091,250.168 183.178 C 251.038 183.287,251.461 183.268,251.514 183.118 C 251.641 182.760,252.971 171.506,252.896 171.430 C 252.832 171.365,241.801 170.014,241.259 170.004 C 241.127 170.002,240.967 170.293,240.905 170.650 M308.105 171.050 C 307.935 172.019,306.796 182.263,306.852 182.311 C 306.912 182.362,314.008 183.206,314.350 183.202 C 314.543 183.201,314.600 182.085,314.600 178.300 L 314.600 173.400 317.274 173.400 L 319.948 173.400 320.068 172.661 C 320.134 172.254,320.151 171.885,320.107 171.841 C 320.035 171.769,309.055 170.415,308.459 170.404 C 308.327 170.402,308.167 170.692,308.105 171.050 M91.044 176.153 L 85.187 176.206 85.244 178.553 L 85.300 180.900 92.500 180.900 L 99.700 180.900 99.756 178.567 L 99.812 176.233 98.356 176.167 C 97.555 176.130,94.265 176.124,91.044 176.153 M85.200 183.700 L 85.200 184.400 92.500 184.400 L 99.800 184.400 99.800 183.700 L 99.800 183.000 92.500 183.000 L 85.200 183.000 85.200 183.700 M85.336 186.531 C 85.261 186.606,85.200 188.407,85.200 190.533 L 85.200 194.400 92.504 194.400 L 99.808 194.400 99.754 190.450 L 99.700 186.500 92.586 186.448 C 88.673 186.419,85.411 186.456,85.336 186.531 M241.950 194.341 C 242.197 194.389,242.603 194.389,242.850 194.341 C 243.097 194.293,242.895 194.254,242.400 194.254 C 241.905 194.254,241.703 194.293,241.950 194.341 M37.032 199.798 C 34.447 200.729,32.270 202.774,30.979 205.485 C 28.851 209.956,28.879 213.827,31.104 222.798 C 33.640 233.024,33.663 235.356,31.310 244.000 C 28.260 255.202,28.716 258.277,34.359 264.574 C 38.238 268.903,38.949 271.369,37.568 275.700 C 35.884 280.982,35.940 280.707,35.942 283.700 C 35.944 286.610,36.188 287.973,37.177 290.600 L 37.591 291.700 58.433 291.646 C 69.895 291.617,79.310 291.556,79.354 291.512 C 79.758 291.109,79.923 287.039,79.704 282.900 C 79.515 279.325,80.052 277.416,82.336 273.542 C 85.258 268.587,85.550 265.995,83.686 261.566 C 83.064 260.089,83.049 260.169,84.562 256.900 C 89.160 246.962,89.201 238.636,84.678 233.084 L 83.766 231.964 84.284 230.132 C 86.504 222.272,83.994 213.448,79.101 211.909 C 71.915 209.649,64.523 219.320,66.459 228.450 L 66.618 229.200 65.827 229.200 C 59.713 229.200,56.266 225.464,54.004 216.385 C 52.226 209.254,50.817 206.108,48.110 203.225 C 45.099 200.020,40.431 198.576,37.032 199.798 M138.369 221.679 C 135.692 222.454,135.528 222.686,134.313 227.422 C 127.825 252.716,132.107 270.100,146.100 275.267 C 146.870 275.552,148.122 276.105,148.883 276.497 C 149.643 276.888,151.153 277.484,152.237 277.821 L 154.208 278.434 154.081 295.267 C 154.010 304.525,153.896 312.760,153.826 313.566 L 153.700 315.033 143.600 318.374 C 138.045 320.211,132.672 321.981,131.661 322.306 C 129.849 322.889,129.827 322.903,130.178 323.299 C 130.897 324.108,131.500 325.114,131.803 326.007 L 132.113 326.923 145.929 323.674 L 159.746 320.424 172.723 323.989 L 185.700 327.555 185.918 326.727 C 186.179 325.733,186.672 324.734,187.344 323.837 C 187.957 323.017,189.030 323.505,179.600 320.316 C 175.145 318.810,169.916 317.035,167.980 316.372 L 164.459 315.166 164.330 302.533 C 164.259 295.585,164.184 287.431,164.165 284.412 L 164.129 278.925 165.813 278.562 C 169.537 277.761,172.459 276.434,175.100 274.343 C 176.415 273.302,178.400 271.273,178.400 270.969 C 178.400 270.928,177.253 271.004,175.850 271.139 C 172.041 271.505,164.295 271.676,159.100 271.509 L 154.500 271.362 152.393 269.228 C 142.804 259.519,140.351 244.258,145.462 226.100 L 146.138 223.700 145.237 223.053 C 143.342 221.690,140.380 221.098,138.369 221.679 " stroke="none" fill="#dcd356" fill-rule="evenodd"></path><path id="path2" d="M224.250 57.700 C 224.253 58.140,224.294 58.296,224.341 58.048 C 224.389 57.799,224.387 57.439,224.337 57.248 C 224.287 57.056,224.248 57.260,224.250 57.700 M268.848 67.050 L 268.900 76.500 285.850 76.551 L 302.800 76.602 302.800 67.101 L 302.800 57.600 285.798 57.600 L 268.796 57.600 268.848 67.050 M308.400 75.000 L 308.400 92.400 310.299 92.400 L 312.198 92.400 312.249 76.950 L 312.300 61.500 330.400 61.500 L 348.500 61.500 348.500 85.600 L 348.500 109.700 342.853 109.753 L 337.205 109.806 337.153 102.853 C 337.124 99.029,337.100 102.020,337.100 109.500 C 337.100 116.980,337.124 120.963,337.154 118.350 L 337.207 113.600 344.804 113.600 L 352.400 113.600 352.400 85.600 L 352.400 57.600 330.400 57.600 L 308.400 57.600 308.400 75.000 M299.200 67.000 L 299.200 73.400 285.800 73.400 L 272.400 73.400 272.400 67.000 L 272.400 60.600 285.800 60.600 L 299.200 60.600 299.200 67.000 M107.712 77.039 C 106.509 77.373,105.120 78.867,104.809 80.161 C 104.035 83.389,106.994 86.234,110.150 85.296 C 115.602 83.677,113.194 75.521,107.712 77.039 M119.201 80.919 C 115.918 82.343,115.947 87.312,119.246 88.690 C 122.074 89.872,125.200 87.829,125.200 84.800 C 125.200 81.800,121.977 79.715,119.201 80.919 M109.588 92.788 C 107.800 93.338,106.888 95.236,107.681 96.760 C 109.093 99.474,113.200 98.535,113.200 95.498 C 113.200 93.772,111.220 92.286,109.588 92.788 M151.200 113.863 C 151.200 113.897,151.493 114.190,151.850 114.513 L 152.500 115.100 151.913 114.450 C 151.365 113.844,151.200 113.708,151.200 113.863 M120.091 128.650 L 119.300 129.500 120.150 128.709 C 120.940 127.974,121.092 127.800,120.941 127.800 C 120.908 127.800,120.525 128.183,120.091 128.650 M337.095 150.600 C 337.095 158.795,337.120 162.148,337.150 158.050 C 337.180 153.953,337.180 147.248,337.150 143.150 C 337.120 139.053,337.095 142.405,337.095 150.600 M115.660 138.800 C 115.660 139.405,115.697 139.653,115.743 139.350 C 115.789 139.047,115.789 138.553,115.743 138.250 C 115.697 137.947,115.660 138.195,115.660 138.800 M195.250 149.500 C 195.253 149.940,195.294 150.096,195.341 149.848 C 195.389 149.599,195.387 149.239,195.337 149.048 C 195.287 148.856,195.248 149.060,195.250 149.500 M150.764 151.968 C 150.473 158.057,144.360 160.877,136.600 158.501 C 134.361 157.816,134.055 157.770,133.215 157.996 C 132.054 158.309,130.998 159.486,129.818 161.785 C 127.980 165.362,126.477 166.484,123.508 166.494 C 122.111 166.499,121.871 166.552,121.678 166.900 C 121.556 167.120,120.671 168.695,119.712 170.400 C 112.274 183.616,110.670 190.090,114.022 193.375 L 114.859 194.195 107.279 194.250 L 99.700 194.305 107.528 194.352 L 115.356 194.400 115.796 192.771 C 117.856 185.136,120.451 180.315,123.170 179.073 C 139.363 171.676,176.009 171.769,179.808 179.217 C 183.993 187.419,182.875 223.096,178.203 230.463 C 176.446 233.234,168.390 235.987,158.700 237.129 C 156.462 237.393,154.116 237.485,149.468 237.491 L 143.235 237.500 143.127 238.200 C 143.067 238.585,142.956 240.039,142.881 241.431 L 142.744 243.962 144.122 244.131 C 159.101 245.967,179.664 240.577,189.100 232.341 L 189.900 231.643 189.879 229.271 C 189.849 225.847,188.724 217.612,187.197 209.649 C 186.981 208.521,186.763 207.306,186.713 206.949 C 186.663 206.592,186.437 205.355,186.211 204.200 C 185.985 203.046,185.800 202.018,185.800 201.917 C 185.800 201.815,186.532 202.805,187.427 204.116 C 192.983 212.259,195.958 215.600,197.651 215.600 C 203.554 215.600,230.000 197.279,230.000 193.189 C 230.000 191.578,226.533 187.406,223.469 185.330 L 222.038 184.361 212.969 187.765 C 207.981 189.637,203.658 191.261,203.362 191.375 L 202.824 191.581 200.635 187.332 C 192.069 170.711,185.351 160.740,180.968 158.144 C 176.944 155.761,165.578 152.671,153.600 150.706 C 152.555 150.534,151.508 150.351,151.274 150.299 C 150.870 150.209,150.845 150.292,150.764 151.968 M85.050 163.141 C 84.496 163.248,84.480 162.621,85.208 169.500 C 86.005 177.030,85.744 176.200,87.317 176.200 C 88.468 176.200,88.615 176.158,88.530 175.850 C 88.477 175.658,88.137 172.688,87.776 169.250 L 87.120 163.000 86.310 163.027 C 85.864 163.042,85.298 163.093,85.050 163.141 M99.923 165.163 C 99.774 165.405,97.200 175.523,97.200 175.868 C 97.200 176.132,97.399 176.200,98.169 176.200 L 99.139 176.200 100.470 171.050 C 101.203 168.218,101.802 165.841,101.801 165.769 C 101.799 165.576,100.022 165.003,99.923 165.163 M314.600 181.164 C 314.600 190.713,314.711 191.256,317.105 193.363 L 318.048 194.192 313.474 194.249 C 310.958 194.280,317.090 194.305,327.100 194.304 C 337.110 194.303,341.267 194.278,336.337 194.249 L 327.374 194.196 328.237 193.541 C 329.196 192.813,330.370 191.199,330.533 190.383 C 330.630 189.899,330.762 189.832,332.035 189.622 C 340.382 188.243,340.393 176.057,332.048 175.068 L 331.000 174.944 331.000 174.172 L 331.000 173.400 322.800 173.400 L 314.600 173.400 314.600 181.164 M298.800 177.150 C 298.800 177.233,299.272 177.274,299.850 177.242 C 301.610 177.145,301.777 177.056,300.250 177.027 C 299.453 177.012,298.800 177.067,298.800 177.150 M332.317 178.094 C 336.857 179.442,336.172 186.800,331.506 186.800 L 331.000 186.800 331.000 182.300 C 331.000 179.825,331.074 177.800,331.164 177.800 C 331.254 177.800,331.773 177.932,332.317 178.094 M326.337 179.790 C 328.524 181.124,327.608 184.135,323.824 188.050 C 322.463 189.458,322.552 189.459,320.763 188.037 C 316.812 184.898,315.841 182.410,317.762 180.350 C 318.452 179.610,319.904 179.583,321.290 180.285 C 322.226 180.759,322.258 180.761,322.647 180.399 C 323.737 179.384,325.259 179.132,326.337 179.790 M62.650 194.350 C 66.803 194.380,73.598 194.380,77.750 194.350 C 81.903 194.320,78.505 194.295,70.200 194.295 C 61.895 194.295,58.498 194.320,62.650 194.350 M258.950 194.350 C 267.667 194.379,281.932 194.379,290.650 194.350 C 299.368 194.321,292.235 194.298,274.800 194.298 C 257.365 194.298,250.232 194.321,258.950 194.350 M232.355 194.547 C 232.826 194.589,233.546 194.588,233.955 194.545 C 234.365 194.502,233.980 194.468,233.100 194.469 C 232.220 194.469,231.885 194.504,232.355 194.547 M63.894 217.800 C 63.894 224.015,63.919 226.558,63.950 223.450 C 63.981 220.343,63.981 215.258,63.950 212.150 C 63.919 209.043,63.894 211.585,63.894 217.800 M113.250 208.500 C 113.253 208.940,113.294 209.096,113.341 208.848 C 113.389 208.599,113.387 208.239,113.337 208.048 C 113.287 207.856,113.248 208.060,113.250 208.500 M113.250 212.100 C 113.253 212.540,113.294 212.696,113.341 212.448 C 113.389 212.199,113.387 211.839,113.337 211.648 C 113.287 211.456,113.248 211.660,113.250 212.100 M303.046 221.000 C 303.046 221.385,303.088 221.543,303.138 221.350 C 303.188 221.157,303.188 220.843,303.138 220.650 C 303.088 220.457,303.046 220.615,303.046 221.000 M305.457 222.300 C 305.459 222.850,305.498 223.051,305.544 222.747 C 305.589 222.443,305.588 221.993,305.541 221.747 C 305.493 221.501,305.456 221.750,305.457 222.300 M303.046 223.600 C 303.046 223.985,303.088 224.143,303.138 223.950 C 303.188 223.757,303.188 223.443,303.138 223.250 C 303.088 223.058,303.046 223.215,303.046 223.600 M122.016 232.785 C 122.098 233.288,122.321 234.897,122.512 236.360 C 122.840 238.867,122.890 239.036,123.380 239.283 C 124.340 239.767,130.835 241.800,131.422 241.800 C 131.666 241.800,132.578 236.061,132.358 235.910 C 132.326 235.888,131.383 235.634,130.261 235.345 C 127.762 234.702,124.451 233.425,122.971 232.534 L 121.867 231.870 122.016 232.785 M323.253 237.944 C 323.557 237.989,324.007 237.988,324.253 237.941 C 324.499 237.893,324.250 237.856,323.700 237.857 C 323.150 237.859,322.949 237.898,323.253 237.944 M321.952 240.341 C 322.201 240.389,322.561 240.387,322.752 240.337 C 322.944 240.287,322.740 240.248,322.300 240.250 C 321.860 240.253,321.704 240.294,321.952 240.341 M324.750 240.341 C 324.998 240.389,325.403 240.389,325.650 240.341 C 325.898 240.293,325.695 240.254,325.200 240.254 C 324.705 240.254,324.503 240.293,324.750 240.341 M153.750 260.946 C 154.218 260.989,154.983 260.989,155.450 260.946 C 155.918 260.904,155.535 260.870,154.600 260.870 C 153.665 260.870,153.282 260.904,153.750 260.946 M173.400 296.300 C 173.773 296.685,174.123 297.000,174.178 297.000 C 174.233 297.000,173.973 296.685,173.600 296.300 C 173.227 295.915,172.877 295.600,172.822 295.600 C 172.767 295.600,173.027 295.915,173.400 296.300 M242.754 307.145 C 243.113 307.189,243.653 307.189,243.954 307.143 C 244.254 307.097,243.960 307.061,243.300 307.062 C 242.640 307.063,242.394 307.100,242.754 307.145 M238.750 307.341 C 238.998 307.389,239.403 307.389,239.650 307.341 C 239.898 307.293,239.695 307.254,239.200 307.254 C 238.705 307.254,238.503 307.293,238.750 307.341 M185.654 328.600 C 185.654 329.095,185.693 329.298,185.741 329.050 C 185.789 328.803,185.789 328.398,185.741 328.150 C 185.693 327.903,185.654 328.105,185.654 328.600 M128.850 328.700 C 128.853 329.140,128.894 329.296,128.941 329.048 C 128.989 328.799,128.987 328.439,128.937 328.248 C 128.887 328.056,128.848 328.260,128.850 328.700 M189.046 328.600 C 189.046 328.985,189.088 329.143,189.138 328.950 C 189.188 328.757,189.188 328.443,189.138 328.250 C 189.088 328.058,189.046 328.215,189.046 328.600 M187.400 333.663 C 187.400 333.697,187.692 333.990,188.050 334.313 L 188.700 334.900 188.113 334.250 C 187.565 333.644,187.400 333.508,187.400 333.663 M225.450 372.500 C 225.453 372.940,225.494 373.096,225.541 372.848 C 225.589 372.599,225.587 372.239,225.537 372.048 C 225.487 371.856,225.448 372.060,225.450 372.500 M147.667 373.800 C 147.667 374.625,147.703 374.963,147.746 374.550 C 147.789 374.138,147.789 373.463,147.746 373.050 C 147.703 372.638,147.667 372.975,147.667 373.800 M191.884 376.300 C 191.884 378.500,191.913 379.427,191.949 378.361 C 191.985 377.294,191.985 375.494,191.949 374.361 C 191.914 373.227,191.884 374.100,191.884 376.300 M222.016 373.936 C 222.005 374.223,221.846 374.402,221.550 374.459 L 221.100 374.546 221.556 374.573 C 222.030 374.601,222.313 374.201,222.135 373.757 C 222.078 373.615,222.024 373.696,222.016 373.936 M223.663 374.100 C 223.695 374.419,223.874 374.512,224.540 374.561 C 225.276 374.615,225.386 374.687,225.457 375.161 C 225.530 375.649,225.536 375.643,225.519 375.100 C 225.501 374.542,225.441 374.496,224.663 374.439 C 224.084 374.397,223.794 374.273,223.724 374.039 C 223.651 373.792,223.634 373.809,223.663 374.100 M226.552 374.541 C 226.801 374.589,227.161 374.587,227.352 374.537 C 227.544 374.487,227.340 374.448,226.900 374.450 C 226.460 374.453,226.304 374.494,226.552 374.541 M242.798 374.541 C 243.182 374.591,243.572 374.738,243.663 374.866 C 243.777 375.026,243.805 375.005,243.750 374.800 C 243.697 374.604,243.397 374.491,242.885 374.475 C 242.133 374.450,242.129 374.453,242.798 374.541 M249.352 374.541 C 249.601 374.589,249.961 374.587,250.152 374.537 C 250.344 374.487,250.140 374.448,249.700 374.450 C 249.260 374.453,249.104 374.494,249.352 374.541 M255.653 374.544 C 255.957 374.589,256.407 374.588,256.653 374.541 C 256.899 374.493,256.650 374.456,256.100 374.457 C 255.550 374.459,255.349 374.498,255.653 374.544 M161.479 377.400 C 161.479 378.995,161.511 379.648,161.549 378.850 C 161.586 378.053,161.586 376.748,161.549 375.950 C 161.511 375.153,161.479 375.805,161.479 377.400 M170.279 377.400 C 170.279 378.995,170.311 379.648,170.349 378.850 C 170.386 378.053,170.386 376.748,170.349 375.950 C 170.311 375.153,170.279 375.805,170.279 377.400 M255.589 375.950 L 254.900 376.700 255.650 376.011 C 256.063 375.632,256.400 375.294,256.400 375.261 C 256.400 375.108,256.231 375.252,255.589 375.950 M222.089 378.100 L 222.100 380.300 222.900 380.300 L 223.700 380.300 223.710 378.200 L 223.720 376.100 223.653 378.150 L 223.586 380.200 222.900 380.200 L 222.214 380.200 222.146 378.050 L 222.078 375.900 222.089 378.100 M147.664 377.400 C 147.664 378.115,147.700 378.408,147.745 378.050 C 147.789 377.693,147.789 377.108,147.745 376.750 C 147.700 376.393,147.664 376.685,147.664 377.400 M174.074 378.200 C 174.074 379.355,174.107 379.828,174.147 379.250 C 174.188 378.673,174.188 377.728,174.147 377.150 C 174.107 376.572,174.074 377.045,174.074 378.200 M150.730 377.750 C 150.679 377.832,151.371 377.876,152.268 377.846 C 155.072 377.754,155.389 377.669,153.062 377.634 C 151.831 377.615,150.782 377.668,150.730 377.750 M177.130 377.750 C 177.079 377.832,177.771 377.876,178.668 377.846 C 181.472 377.754,181.789 377.669,179.462 377.634 C 178.231 377.615,177.182 377.668,177.130 377.750 M210.853 378.744 C 211.157 378.789,211.607 378.788,211.853 378.741 C 212.099 378.693,211.850 378.656,211.300 378.657 C 210.750 378.659,210.549 378.698,210.853 378.744 M243.600 381.188 L 243.600 382.576 242.898 382.659 L 242.197 382.742 242.948 382.721 L 243.700 382.700 243.759 381.344 C 243.800 380.415,243.888 380.031,244.040 380.125 C 244.174 380.208,244.205 380.171,244.119 380.031 C 243.782 379.486,243.600 379.892,243.600 381.188 M226.552 380.341 C 226.801 380.389,227.161 380.387,227.352 380.337 C 227.544 380.287,227.340 380.248,226.900 380.250 C 226.460 380.253,226.304 380.294,226.552 380.341 M249.352 380.341 C 249.601 380.389,249.961 380.387,250.152 380.337 C 250.344 380.287,250.140 380.248,249.700 380.250 C 249.260 380.253,249.104 380.294,249.352 380.341 M251.952 380.341 C 252.201 380.389,252.561 380.387,252.752 380.337 C 252.944 380.287,252.740 380.248,252.300 380.250 C 251.860 380.253,251.704 380.294,251.952 380.341 M255.653 380.344 C 255.957 380.389,256.407 380.388,256.653 380.341 C 256.899 380.293,256.650 380.256,256.100 380.257 C 255.550 380.259,255.349 380.298,255.653 380.344 " stroke="none" fill="#9c5ed0" fill-rule="evenodd"></path><path id="path3" d="M312.295 77.000 C 312.295 85.525,312.320 89.013,312.350 84.750 C 312.380 80.488,312.380 73.513,312.350 69.250 C 312.320 64.987,312.295 68.475,312.295 77.000 M348.497 85.600 C 348.497 98.855,348.521 104.277,348.550 97.650 C 348.579 91.022,348.579 80.177,348.550 73.550 C 348.521 66.922,348.497 72.345,348.497 85.600 M123.400 81.263 C 123.400 81.297,123.692 81.590,124.050 81.913 L 124.700 82.500 124.113 81.850 C 123.565 81.244,123.400 81.108,123.400 81.263 M125.246 84.800 C 125.246 85.185,125.288 85.343,125.338 85.150 C 125.388 84.958,125.388 84.642,125.338 84.450 C 125.288 84.258,125.246 84.415,125.246 84.800 M223.692 96.850 C 223.640 96.987,223.620 111.095,223.649 128.200 L 223.700 159.300 277.800 159.300 L 331.900 159.300 331.900 128.000 L 331.900 96.700 277.844 96.650 C 234.704 96.609,223.768 96.650,223.692 96.850 M331.800 128.000 L 331.800 159.200 277.800 159.200 L 223.800 159.200 223.800 128.000 L 223.800 96.800 277.800 96.800 L 331.800 96.800 331.800 128.000 M225.800 101.800 C 225.800 104.511,225.846 105.000,226.100 105.000 C 226.265 105.001,249.440 105.001,277.600 105.001 C 305.760 105.001,328.935 105.001,329.100 105.000 C 329.354 105.000,329.400 104.511,329.400 101.800 L 329.400 98.600 277.600 98.600 L 225.800 98.600 225.800 101.800 M226.150 107.154 C 225.820 107.225,225.800 108.095,225.800 122.015 L 225.800 136.800 226.901 136.800 L 228.003 136.800 227.951 121.963 L 227.900 107.125 227.200 107.102 C 226.815 107.090,226.343 107.113,226.150 107.154 M304.321 108.345 C 304.255 108.412,304.200 110.882,304.200 113.833 L 304.200 119.200 309.700 119.200 L 315.200 119.200 315.200 113.694 L 315.200 108.189 309.821 108.206 C 306.863 108.216,304.388 108.279,304.321 108.345 M317.520 108.347 C 317.454 108.413,317.400 119.387,317.400 132.733 L 317.400 157.000 323.601 157.000 L 329.802 157.000 329.751 132.650 L 329.700 108.300 323.670 108.263 C 320.353 108.243,317.586 108.281,317.520 108.347 M265.671 109.350 C 239.031 109.391,232.023 109.453,231.949 109.651 C 231.897 109.788,231.865 110.170,231.877 110.500 L 231.900 111.100 265.950 111.151 L 300.000 111.201 300.000 110.322 C 300.000 109.592,299.571 108.901,299.334 109.249 C 299.315 109.277,284.167 109.322,265.671 109.350 M121.487 127.250 L 120.900 127.900 121.550 127.313 C 121.908 126.990,122.200 126.697,122.200 126.663 C 122.200 126.508,122.035 126.644,121.487 127.250 M218.634 169.850 C 218.743 177.061,218.664 177.000,228.004 177.000 L 234.381 177.000 234.276 176.050 C 234.218 175.528,234.058 174.020,233.920 172.700 L 233.669 170.300 234.379 169.447 L 235.089 168.595 235.837 169.347 L 236.586 170.100 236.799 172.900 C 236.916 174.440,237.059 175.996,237.116 176.359 L 237.221 177.017 238.661 176.959 L 240.100 176.900 240.436 174.300 C 240.621 172.870,240.779 171.317,240.786 170.850 C 240.803 169.815,240.248 169.840,246.544 170.592 C 249.270 170.917,251.838 171.206,252.250 171.233 C 252.663 171.260,252.999 171.331,252.998 171.391 C 252.998 171.451,252.863 172.577,252.698 173.892 C 252.534 175.208,252.400 176.446,252.400 176.642 C 252.400 176.971,252.660 177.000,255.600 177.000 L 258.800 177.000 258.800 176.492 C 258.800 175.907,258.446 172.406,258.292 171.467 C 258.164 170.684,257.818 170.764,264.200 170.100 C 266.895 169.819,269.375 169.540,269.711 169.480 L 270.322 169.370 270.577 171.835 C 270.717 173.191,271.005 175.852,271.216 177.749 C 271.427 179.647,271.600 181.273,271.600 181.363 C 271.600 181.454,270.498 181.641,269.150 181.780 C 267.803 181.918,266.453 182.081,266.150 182.141 L 265.600 182.250 265.600 186.225 L 265.600 190.200 277.800 190.200 L 290.000 190.200 290.000 186.332 C 290.000 184.204,290.059 181.234,290.131 179.732 L 290.262 177.000 298.760 177.005 C 303.433 177.007,307.290 176.976,307.331 176.936 C 307.371 176.896,307.559 175.399,307.748 173.611 L 308.092 170.358 308.996 170.453 C 309.493 170.505,312.224 170.806,315.065 171.124 L 320.229 171.700 320.102 172.550 L 319.975 173.400 325.488 173.400 L 331.000 173.400 331.000 174.172 L 331.000 174.944 332.050 175.068 C 332.628 175.137,333.638 175.459,334.296 175.785 C 336.508 176.881,337.000 175.780,337.000 169.737 L 337.000 165.400 277.783 165.400 L 218.567 165.400 218.634 169.850 M55.089 200.400 C 55.089 203.755,55.116 205.128,55.150 203.450 C 55.183 201.773,55.183 199.028,55.150 197.350 C 55.116 195.673,55.089 197.045,55.089 200.400 M345.289 200.400 C 345.289 203.755,345.316 205.128,345.350 203.450 C 345.383 201.773,345.383 199.028,345.350 197.350 C 345.316 195.673,345.289 197.045,345.289 200.400 M336.495 221.400 C 336.495 229.595,336.520 232.947,336.550 228.850 C 336.580 224.753,336.580 218.048,336.550 213.950 C 336.520 209.853,336.495 213.205,336.495 221.400 M344.290 223.667 C 344.243 223.795,344.182 226.159,344.153 228.921 L 344.100 233.941 344.900 233.602 L 345.700 233.262 345.800 229.146 L 345.900 225.030 352.800 225.065 L 359.700 225.100 359.753 232.150 L 359.805 239.200 352.803 239.200 L 345.800 239.200 345.800 237.600 C 345.800 236.720,345.766 236.000,345.724 236.000 C 345.683 236.000,345.323 236.136,344.924 236.303 L 344.200 236.605 344.200 238.703 L 344.200 240.800 352.802 240.800 L 361.404 240.800 361.352 232.150 L 361.300 223.500 352.837 223.467 C 346.549 223.442,344.353 223.494,344.290 223.667 M189.967 230.127 C 189.875 231.939,189.771 232.057,186.081 234.521 C 175.342 241.694,159.352 245.508,145.421 244.221 C 144.057 244.095,142.897 244.037,142.842 244.092 C 142.023 244.911,144.080 255.181,146.014 259.924 C 146.344 260.735,146.956 260.797,154.715 260.799 C 170.183 260.802,188.105 258.645,202.000 255.107 C 203.484 254.729,204.753 254.482,204.819 254.560 C 206.802 256.893,205.290 260.923,201.300 263.939 C 197.302 266.961,187.886 269.954,179.955 270.724 C 179.215 270.795,178.651 270.921,178.701 271.002 C 178.751 271.083,177.094 276.043,175.019 282.025 L 171.245 292.900 171.743 293.883 C 173.714 297.776,178.410 299.776,183.607 298.935 L 184.514 298.788 188.936 291.044 C 191.369 286.785,196.347 278.051,199.999 271.636 C 203.650 265.221,206.671 260.005,206.712 260.045 C 206.752 260.085,209.317 267.449,212.412 276.409 C 215.506 285.369,218.833 294.995,219.803 297.800 C 220.774 300.605,221.744 303.427,221.960 304.071 C 222.950 307.027,231.072 308.100,235.290 305.832 C 237.205 304.803,237.283 304.663,237.013 302.755 C 235.097 289.241,226.796 248.459,224.707 242.300 C 222.845 236.811,220.317 232.506,218.022 230.915 C 217.235 230.370,217.133 230.355,210.862 229.888 C 203.411 229.333,192.029 228.600,190.859 228.600 L 190.044 228.600 189.967 230.127 M336.498 280.700 C 336.498 303.800,336.521 313.220,336.550 301.634 C 336.579 290.048,336.579 271.148,336.550 259.634 C 336.521 248.120,336.498 257.600,336.498 280.700 M125.643 242.082 C 126.069 247.824,127.785 252.768,130.326 255.576 C 132.078 257.513,132.189 257.510,131.827 255.538 C 131.606 254.327,131.525 252.330,131.517 247.876 L 131.506 241.852 130.503 241.597 C 129.951 241.457,128.599 241.058,127.497 240.710 L 125.495 240.077 125.643 242.082 M79.657 282.500 C 79.659 283.050,79.698 283.251,79.744 282.947 C 79.789 282.643,79.788 282.193,79.741 281.947 C 79.693 281.701,79.656 281.950,79.657 282.500 M246.750 306.946 C 247.218 306.989,247.982 306.989,248.450 306.946 C 248.918 306.904,248.535 306.870,247.600 306.870 C 246.665 306.870,246.282 306.904,246.750 306.946 M250.554 306.945 C 250.913 306.989,251.453 306.989,251.754 306.943 C 252.054 306.897,251.760 306.861,251.100 306.862 C 250.440 306.863,250.194 306.900,250.554 306.945 M241.250 307.138 C 241.443 307.188,241.757 307.188,241.950 307.138 C 242.143 307.088,241.985 307.046,241.600 307.046 C 241.215 307.046,241.058 307.088,241.250 307.138 M260.800 310.100 C 261.173 310.485,261.523 310.800,261.578 310.800 C 261.633 310.800,261.373 310.485,261.000 310.100 C 260.627 309.715,260.277 309.400,260.222 309.400 C 260.167 309.400,260.427 309.715,260.800 310.100 M199.400 310.900 C 199.773 311.285,200.123 311.600,200.178 311.600 C 200.233 311.600,199.973 311.285,199.600 310.900 C 199.227 310.515,198.877 310.200,198.822 310.200 C 198.767 310.200,199.027 310.515,199.400 310.900 M132.257 328.700 C 132.259 329.250,132.298 329.451,132.344 329.147 C 132.389 328.843,132.388 328.393,132.341 328.147 C 132.293 327.901,132.256 328.150,132.257 328.700 M124.050 333.138 C 124.243 333.188,124.558 333.188,124.750 333.138 C 124.942 333.088,124.785 333.046,124.400 333.046 C 124.015 333.046,123.858 333.088,124.050 333.138 M193.250 333.138 C 193.442 333.188,193.758 333.188,193.950 333.138 C 194.143 333.088,193.985 333.046,193.600 333.046 C 193.215 333.046,193.058 333.088,193.250 333.138 M129.789 334.350 L 129.100 335.100 129.850 334.411 C 130.548 333.769,130.692 333.600,130.539 333.600 C 130.506 333.600,130.168 333.938,129.789 334.350 M199.087 334.250 L 198.500 334.900 199.150 334.313 C 199.508 333.990,199.800 333.697,199.800 333.663 C 199.800 333.508,199.635 333.644,199.087 334.250 M252.192 371.742 L 252.987 371.822 253.053 374.061 L 253.119 376.300 253.110 374.000 L 253.100 371.700 252.249 371.680 L 251.397 371.661 252.192 371.742 M148.645 376.236 C 148.600 380.143,148.597 380.173,148.150 380.259 L 147.700 380.346 148.156 380.373 C 148.802 380.411,148.816 380.310,148.750 376.094 L 148.691 372.300 148.645 376.236 M192.867 373.800 C 192.867 374.625,192.903 374.963,192.946 374.550 C 192.989 374.138,192.989 373.463,192.946 373.050 C 192.903 372.638,192.867 372.975,192.867 373.800 M161.950 374.531 C 162.617 374.674,162.661 380.114,161.997 380.263 C 161.662 380.338,161.670 380.349,162.047 380.327 C 162.496 380.300,162.500 380.272,162.500 377.400 L 162.500 374.500 162.000 374.467 C 161.559 374.438,161.553 374.446,161.950 374.531 M167.874 374.695 C 167.806 374.872,167.807 375.073,167.875 375.142 C 167.944 375.211,168.000 375.117,168.000 374.933 C 168.000 374.735,168.160 374.600,168.395 374.600 C 168.767 374.600,168.793 374.768,168.853 377.600 L 168.916 380.600 168.908 377.550 C 168.900 374.540,168.894 374.499,168.449 374.436 C 168.174 374.397,167.950 374.498,167.874 374.695 M254.389 375.150 L 253.700 375.900 254.450 375.211 C 254.863 374.832,255.200 374.494,255.200 374.461 C 255.200 374.308,255.031 374.452,254.389 375.150 M242.084 378.600 C 242.084 380.855,242.114 381.778,242.149 380.650 C 242.185 379.523,242.185 377.678,242.149 376.550 C 242.114 375.423,242.084 376.345,242.084 378.600 M250.479 377.400 C 250.479 378.995,250.511 379.648,250.549 378.850 C 250.586 378.053,250.586 376.748,250.549 375.950 C 250.511 375.153,250.479 375.805,250.479 377.400 M167.864 377.400 C 167.864 378.115,167.900 378.408,167.945 378.050 C 167.989 377.693,167.989 377.108,167.945 376.750 C 167.900 376.393,167.864 376.685,167.864 377.400 M175.042 378.136 C 175.002 380.073,174.978 380.176,174.550 380.259 L 174.100 380.346 174.556 380.373 C 175.170 380.409,175.227 380.179,175.149 377.985 L 175.083 376.100 175.042 378.136 M192.839 377.426 C 192.808 378.481,192.871 378.807,193.150 379.026 C 193.457 379.266,193.470 379.262,193.261 378.992 C 193.129 378.823,192.989 378.103,192.949 377.392 L 192.877 376.100 192.839 377.426 M144.246 377.400 C 144.246 377.785,144.288 377.943,144.338 377.750 C 144.388 377.558,144.388 377.243,144.338 377.050 C 144.288 376.858,144.246 377.015,144.246 377.400 M227.671 378.500 C 227.670 379.490,227.704 379.920,227.746 379.456 C 227.788 378.992,227.789 378.182,227.747 377.656 C 227.706 377.130,227.672 377.510,227.671 378.500 M253.060 379.200 C 253.060 379.805,253.097 380.053,253.143 379.750 C 253.189 379.447,253.189 378.953,253.143 378.650 C 253.097 378.348,253.060 378.595,253.060 379.200 M167.481 379.831 C 167.396 379.968,167.426 380.008,167.554 379.928 C 167.673 379.855,167.811 379.954,167.862 380.148 C 167.932 380.416,167.959 380.392,167.977 380.050 C 168.001 379.572,167.718 379.447,167.481 379.831 M192.800 379.853 C 192.800 380.028,192.597 380.211,192.350 380.259 L 191.900 380.346 192.356 380.373 C 192.796 380.399,193.181 379.915,192.925 379.658 C 192.856 379.589,192.800 379.677,192.800 379.853 M238.450 380.538 C 238.643 380.588,238.957 380.588,239.150 380.538 C 239.343 380.488,239.185 380.446,238.800 380.446 C 238.415 380.446,238.257 380.488,238.450 380.538 M212.250 380.938 C 212.443 380.988,212.757 380.988,212.950 380.938 C 213.143 380.888,212.985 380.846,212.600 380.846 C 212.215 380.846,212.058 380.888,212.250 380.938 " stroke="none" fill="#9bd9e5" fill-rule="evenodd"></path></g></svg>